<?xml version="1.0" encoding="utf-8"?>
<svg width="573px" height="394px" viewbox="0 0 573 394" version="1.1" xmlns:xlink="http://www.w3.org/1999/xlink" xmlns="http://www.w3.org/2000/svg">
  <defs>
    <path d="M0 0L572 0L572 254L0 254L0 0Z" id="path_1" />
    <clipPath id="mask_1">
      <use xlink:href="#path_1" />
    </clipPath>
  </defs>
  <path d="M196.5 0L393 572L0 572L196.5 0Z" transform="matrix(1.2004008E-06 0.99999994 -0.99999994 1.2004008E-06 571.99994 0)" id="Triangle" fill="#00C1B2" fill-rule="evenodd" stroke="none" />
  <g id="chart_illustration" transform="translate(6.1035156E-05 133.49902)">
    <g id="Mask-group">
      <path d="M0 0L572 0L572 254L0 254L0 0Z" id="Rectangle" fill="none" fill-rule="evenodd" stroke="none" />
      <g clip-path="url(#mask_1)">
        <g id="Group">
          <path d="M543.088 16.771L543.088 7.158L0 0L0.0205002 26.322L543.088 16.771L543.088 16.771Z" transform="translate(16.253204 227.678)" id="Shape" fill="#007E8A" fill-rule="evenodd" stroke="none" />
          <path d="M16.4461 32.045L0 7.563L2.03391 6.19299L16.779 28.142L9.0305 0.667L11.3899 0L19.8682 30.065L18.3576 30.492L18.4804 30.675L16.4461 32.045L16.4461 32.045Z" transform="translate(80.325806 105.938)" id="Shape" fill="#BF836E" fill-rule="evenodd" stroke="none" />
          <path d="M15.4047 0C11.1546 0 7.5252 1.507 4.5151 4.52C1.5049 7.53301 0 11.167 0 15.422C0 19.676 1.5049 23.309 4.5151 26.323C7.5252 29.336 11.1546 30.842 15.4047 30.842C19.6537 30.842 23.2827 29.336 26.2937 26.323C29.3027 23.309 30.8087 19.676 30.8087 15.422C30.8087 11.167 29.3027 7.53301 26.2937 4.52C23.2827 1.507 19.6537 0 15.4047 0L15.4047 0Z" transform="translate(87.451294 126.151)" id="Shape" fill="#FABE00" fill-rule="evenodd" stroke="none" />
          <path d="M4.985 0L6.7011 11.3512L19.0408 19.4096L0 51.2956L13.9744 56.1016L29.9505 24.9115C32.7154 19.4709 31.6391 15.3667 26.7222 12.5987L4.985 0L4.985 0Z" transform="translate(40.054 65.8364)" id="Shape" fill="#FFAD93" fill-rule="evenodd" stroke="none" />
          <path d="M17.1264 0.0972748C12.8768 -0.35273 9.0905 0.758575 5.7676 3.43117C2.444 6.07617 0.557896 9.51907 0.108396 13.76C-0.368505 18 0.728296 21.79 3.3976 25.131C6.0672 28.445 9.5198 30.326 13.7555 30.776C17.9776 31.254 21.7503 30.163 25.0736 27.504C28.3968 24.831 30.2899 21.375 30.7533 17.135C31.2163 12.894 30.1132 9.11687 27.4436 5.80347C24.7876 2.47657 21.3489 0.574676 17.1264 0.0972748L17.1264 0.0972748Z" transform="translate(15.756714 89.81203)" id="Shape" fill="#FB5058" fill-rule="evenodd" stroke="none" />
          <path d="M15.1921 2.659L5.2017 0L0 19.042L9.6145 20.269L15.1921 2.659L15.1921 2.659Z" transform="translate(90.1969 210.845)" id="Shape" fill="#FFAD93" fill-rule="evenodd" stroke="none" />
          <path d="M21.7985 12.128L21.7985 9.98001L10.7051 0.20401L1.0294 0L0 11.453L5.2915 11.453L5.598 7.54701L8.4377 11.453L21.7985 12.128L21.7985 12.128Z" transform="translate(89.16751 229.887)" id="Shape" fill="#FFFFFF" fill-rule="evenodd" stroke="none" />
          <path d="M2.0627 19.696C3.6834 22.232 4.9365 23.745 5.8218 24.236L39.5518 23.541L31.8087 57.86L46.5178 60.008L63.0458 17.712C63.7128 15.694 63.8968 13.43 63.5978 10.921C63.3658 9.13499 62.8558 7.588 62.0658 6.278L62.1058 6.21699C60.4308 2.37199 56.5088 0.298996 50.3388 0L19.4894 0.203995C12.3253 0.122986 7.3813 1.254 4.6575 3.59999C1.9333 5.94398 0.407803 8.58299 0.0812035 11.515C-0.245796 14.432 0.414803 17.159 2.0627 19.696L2.0627 19.696Z" transform="translate(60.89319 154.417)" id="Shape" fill="#9C006D" fill-rule="evenodd" stroke="none" />
          <path d="M9.05 0L0 6.811L10.909 20.514L18.693 12.844L9.05 0L9.05 0Z" transform="translate(144.104 214.179)" id="Shape" fill="#FFAD93" fill-rule="evenodd" stroke="none" />
          <path d="M62.0861 7.506C59.1581 3.334 55.2831 1.10399 50.4611 0.817993L13.2995 0L0 21.148L47.0491 20.739L84.2731 65.775L94.3451 56.49L62.0861 7.506L62.0861 7.506Z" transform="translate(61.566895 157.587)" id="Shape" fill="#FB5058" fill-rule="evenodd" stroke="none" />
          <path d="M9.929 10.697L18.877 8.713L28.152 0L8.049 2.84299L0 10.165L6.80299 17.447L12.809 13.826L9.929 10.697L9.929 10.697Z" transform="translate(154.645 224.139)" id="Shape" fill="#FFFFFF" fill-rule="evenodd" stroke="none" />
          <path d="M34.8623 17.7372C35.6795 11.5612 31.5457 6.43419 22.4613 2.35719C13.2817 -1.65181 6.59452 -0.546814 2.39912 5.67019C-1.80907 11.8742 -0.481277 19.8992 6.38302 29.7432L29.8978 60.5652L53.229 41.3192L34.8623 17.7372L34.8623 17.7372Z" transform="translate(33.97728 117.14681)" id="Shape" fill="#440063" fill-rule="evenodd" stroke="none" />
          <path d="M37.4892 0L0 0L4.6991 23.459L32.7902 23.459L37.4892 0L37.4892 0Z" transform="translate(84.59079 137.687)" id="Shape" fill="#FFFFFF" fill-rule="evenodd" stroke="none" />
          <path d="M30.3435 0.00149536C30.2625 -0.00050354 30.1819 -0.00050354 30.1012 0.00149536C29.7874 0.00749207 29.4894 0.0525055 29.2067 0.137497C29.0154 0.207504 28.828 0.293503 28.6458 0.395493L28.4035 0.547501C28.3177 0.615494 28.2316 0.686493 28.1458 0.759506L0 23.5345L3.8042 28.2535L27.2362 9.3025L27.5852 28.5875L33.6477 28.4815L33.2991 9.4845L56.0187 27.8745L59.8377 23.1555L32.0713 0.668503C32.0152 0.625504 31.9544 0.579498 31.8895 0.531494L31.4954 0.304504C31.4851 0.2995 31.4701 0.294495 31.45 0.289505C31.2084 0.169495 30.951 0.0834961 30.6768 0.0314941L30.5708 0.0164948C30.495 0.0124969 30.4191 0.00749207 30.3435 0.00149536L30.3435 0.00149536Z" transform="translate(52.055298 209.4355)" id="Shape" fill="#8C9B9B" fill-rule="evenodd" stroke="none" />
          <path d="M16.4592 20.6364C16.4365 20.6044 16.4108 20.5694 16.3833 20.5304L4.2129 1.07739C3.8797 0.545395 3.4049 0.205383 2.7879 0.0603943C2.1808 -0.0766144 1.61 0.0193939 1.0752 0.349396C0.542904 0.691391 0.204103 1.16739 0.0601044 1.77539C-0.0762959 2.39339 0.0194035 2.96939 0.347805 3.50539L12.4732 22.8814C19.1578 35.0684 28.4742 41.0064 40.4217 40.6954C40.4393 40.7004 40.4543 40.7004 40.4672 40.6954L52.7593 40.6954L52.7593 65.5644L61.3077 65.5644L61.3077 40.6954L72.7812 40.6954C73.4114 40.7004 73.9466 40.4784 74.3876 40.0274C74.8375 39.5864 75.0599 39.0504 75.0549 38.4194C75.0599 37.7884 74.8375 37.2474 74.3876 36.7954C73.9466 36.3554 73.4114 36.1334 72.7812 36.1284L61.3077 36.1284L61.3077 34.1554L52.7593 34.1554L52.7593 36.1284L40.4217 36.1284C40.4063 36.1334 40.3865 36.1334 40.3609 36.1284C30.1631 36.2954 22.1958 31.1314 16.4592 20.6364L16.4592 20.6364Z" transform="translate(25.138092 153.11261)" id="Shape" fill="#616B6A" fill-rule="evenodd" stroke="none" />
          <path d="M46.4851 1.593C45.4241 0.531006 44.1361 0 42.6211 0L5.4719 0C3.956 0 2.6626 0.531006 1.5918 1.593C0.530399 2.66501 0 3.96001 0 5.47701L0 5.492C0 7.01001 0.530399 8.29901 1.5918 9.362C2.6626 10.434 3.956 10.97 5.4719 10.97L42.6211 10.97C44.1361 10.97 45.4241 10.434 46.4851 9.362C47.5561 8.29901 48.0921 7.01001 48.0921 5.492L48.0921 5.47701C48.0921 3.96001 47.5561 2.66501 46.4851 1.593L46.4851 1.593Z" transform="translate(58.223907 178.301)" id="Shape" fill="#8C9C9C" fill-rule="evenodd" stroke="none" />
          <path d="M28.6548 41.3468C29.9383 40.5179 30.7364 39.3598 31.0494 37.8728C31.3629 36.4059 31.1052 35.0359 30.2766 33.7608L10.1033 2.51886C9.28467 1.26385 8.13286 0.469849 6.64776 0.135849C5.18236 -0.187149 3.81316 0.0658569 2.54036 0.894852L2.52496 0.909851C1.25176 1.73985 0.453264 2.88785 0.129963 4.35486C-0.183136 5.84186 0.0694637 7.21686 0.888063 8.48186L21.0614 39.7088C21.9002 40.9828 23.052 41.7829 24.5173 42.1059C26.0024 42.4199 27.3768 42.1669 28.6398 41.3468L28.6548 41.3468L28.6548 41.3468Z" transform="translate(20.354034 134.04015)" id="Shape" fill="#8C9C9C" fill-rule="evenodd" stroke="none" />
          <path d="M0 5.584C0 7.132 0.540802 8.452 1.6219 9.54401C2.7129 10.626 4.0315 11.168 5.5775 11.168C7.1238 11.168 8.4421 10.626 9.5335 9.54401C10.6146 8.452 11.1553 7.132 11.1553 5.584C11.1553 4.036 10.6146 2.72099 9.5335 1.63899C8.4421 0.546005 7.1238 0 5.5775 0C4.0315 0 2.7129 0.546005 1.6219 1.63899C0.540802 2.72099 0 4.036 0 5.584L0 5.584Z" transform="translate(48.1754 230.998)" id="Shape" fill="#00CCBE" fill-rule="evenodd" stroke="none" />
          <path d="M9.5335 9.54399C10.6249 8.451 11.1704 7.136 11.1704 5.599C11.1704 4.05099 10.6249 2.731 9.5335 1.638C8.4421 0.546005 7.1235 0 5.5775 0C4.0418 0 2.7283 0.546005 1.6369 1.638C0.545502 2.731 0 4.05099 0 5.599C0 7.136 0.545502 8.451 1.6369 9.54399C2.7283 10.637 4.0418 11.183 5.5775 11.183C7.1235 11.183 8.4421 10.637 9.5335 9.54399L9.5335 9.54399Z" transform="translate(77.06369 230.968)" id="Shape" fill="#00CCBE" fill-rule="evenodd" stroke="none" />
          <path d="M1.637 9.54399C2.728 10.637 4.047 11.183 5.593 11.183C7.139 11.183 8.452 10.637 9.534 9.54399C10.625 8.451 11.17 7.136 11.17 5.599C11.17 4.05099 10.625 2.731 9.534 1.638C8.452 0.546005 7.139 0 5.593 0C4.047 0 2.728 0.546005 1.637 1.638C0.545006 2.731 0 4.05099 0 5.599C0 7.136 0.545006 8.451 1.637 9.54399L1.637 9.54399Z" transform="translate(105.937 230.968)" id="Shape" fill="#00CCBE" fill-rule="evenodd" stroke="none" />
          <path d="M7.724 1.62685C7.55569 2.21925 7.61689 2.78515 7.90759 3.32465L9.25639 5.79935L5.00669 3.67215C4.4473 3.40395 3.87539 3.36975 3.29029 3.57015C2.7037 3.76945 2.26779 4.14415 1.98299 4.69465C1.71459 5.25625 1.68049 5.82875 1.88109 6.41305C2.0787 7.00055 2.453 7.42995 3.00469 7.70155L5.55849 8.96955L1.83999 9.64455C1.23509 9.75535 0.751194 10.0622 0.389395 10.565C0.0443935 11.0854 -0.0714054 11.6513 0.0421944 12.2623C0.152594 12.8705 0.458994 13.3477 0.961594 13.694C1.47969 14.0522 2.03759 14.1753 2.63659 14.0622L4.33249 13.7554C3.59969 15.6102 3.55199 17.512 4.18919 19.4617C4.2207 19.5357 4.2482 19.6036 4.27129 19.666C4.3014 19.731 4.3219 19.7922 4.33249 19.8503C4.53819 20.4367 4.9198 20.8665 5.4763 21.1389C6.0295 21.4244 6.5948 21.4654 7.1722 21.2614C7.7687 21.0695 8.20459 20.6943 8.47989 20.137C8.76469 19.5802 8.80539 19.0073 8.60229 18.4186C8.5598 18.2748 8.5056 18.1315 8.43879 17.9891C8.13129 16.9913 8.20599 16.0234 8.66359 15.0847L8.66359 15.1055C9.1629 14.1363 9.92579 13.4749 10.9519 13.1212C11.8306 12.8262 12.6888 12.8396 13.5258 13.1623C13.6644 13.2523 13.8275 13.3337 14.0163 13.4078C14.9134 13.8897 15.5333 14.6259 15.8753 15.6165L15.8552 15.6165C16.1983 16.6242 16.1305 17.6061 15.6506 18.5621L15.6711 18.5416C15.1803 19.52 14.4174 20.188 13.3832 20.5457C13.087 20.6411 12.7875 20.709 12.4839 20.7501C11.8812 20.8552 11.3977 21.1549 11.0333 21.65C10.6689 22.1624 10.5329 22.7218 10.6249 23.3273C10.729 23.9447 11.0289 24.4354 11.5238 24.8002C12.0356 25.1642 12.5935 25.2938 13.1992 25.1884C13.7403 25.1088 14.2784 24.9793 14.8129 24.8002C14.8261 24.802 14.8397 24.802 14.8536 24.8002C17.0338 24.0393 18.6406 22.6281 19.6755 20.566C20.7075 18.495 20.8571 16.3677 20.1246 14.1852L20.1246 14.1646C19.4372 12.1519 18.2113 10.6317 16.4476 9.60345L11.8508 1.17695C11.5582 0.63855 11.1154 0.27705 10.523 0.0931511C9.9305 -0.0760498 9.3583 -0.0147476 8.8065 0.27705C8.26759 0.582752 7.90689 1.03305 7.724 1.62685L7.724 1.62685Z" transform="translate(28.468994 55.864853)" id="Shape" fill="#FFAD93" fill-rule="evenodd" stroke="none" />
          <path d="M26.7222 4.00851L19.7964 0L14.9752 8.1604L19.0408 10.8194L0 42.7053L13.9744 47.5113L29.9505 16.3212C32.7154 10.8807 31.6391 6.77641 26.7222 4.00851L26.7222 4.00851Z" transform="translate(40.054 74.4267)" id="Shape" fill="#440063" fill-rule="evenodd" stroke="none" />
          <path d="M23.5149 21.1477C27.6963 17.9307 27.5123 14.4737 22.9632 10.7787L4.5356 0L0 26.2617L19.9603 35.9967L34.6698 30.4137L19.9805 23.5617L23.5149 21.1477L23.5149 21.1477Z" transform="translate(15.047607 89.1113)" id="Shape" fill="#FFAD93" fill-rule="evenodd" stroke="none" />
          <path d="M4.44577 25.6626C5.89706 25.9076 7.22496 25.6006 8.42956 24.7426L26.7552 11.5296L32.9867 14.6386C34.3112 15.2896 35.6662 15.3786 37.052 14.9046C38.4351 14.4346 39.4499 13.5416 40.0956 12.2256C40.7566 10.9106 40.8526 9.56061 40.3816 8.1756C39.9146 6.7876 39.0298 5.76561 37.7261 5.1076L28.6348 0.567612C27.7447 0.12561 26.8117 -0.0573883 25.8362 0.0156097C24.8603 0.103607 23.968 0.437607 23.1596 1.01761L2.21896 16.1116C1.03447 16.9676 0.319664 18.1126 0.0736656 19.5476C-0.157635 20.9976 0.155766 22.3206 1.01357 23.5146C1.86887 24.7116 3.01307 25.4276 4.44577 25.6626L4.44577 25.6626Z" transform="translate(60.14444 145.5454)" id="Shape" fill="#FFAD93" fill-rule="evenodd" stroke="none" />
          <path d="M8.9142 31.082L0 19.368L25.394 0L33.9989 12.12L8.9142 31.082L8.9142 31.082Z" transform="translate(55.9451 146.474)" id="Shape" fill="#440063" fill-rule="evenodd" stroke="none" />
          <path d="M30.2438 51.1948C27.7978 51.1948 25.4065 49.9738 24.009 47.7468L1.12762 11.2798C-1.03278 7.83677 0.00401688 3.29276 3.44342 1.12876C6.88292 -1.03423 11.4228 0.00476837 13.5836 3.44677L36.465 39.9138C38.6254 43.3578 37.5886 47.9028 34.1492 50.0658C32.9339 50.8298 31.5804 51.1948 30.2438 51.1948L30.2438 51.1948Z" transform="translate(30.165283 127.86823)" id="Shape" fill="#440063" fill-rule="evenodd" stroke="none" />
          <path d="M8.46941 22.67C7.9382 24.648 6.41938 27.688 3.91329 31.792C1.42078 35.896 0.127042 39.319 0.0317256 42.059C-0.0767882 44.8 0.0929479 47.036 0.542767 48.768C0.99222 50.513 2.06783 52.613 3.77069 55.067C5.47281 57.535 8.45584 59.41 12.719 60.692C16.9819 61.974 21.5105 62.131 26.3045 61.162C31.0989 60.18 34.5241 58.258 36.5811 55.395C38.6373 52.504 39.8156 49.456 40.1151 46.252C40.415 43.021 39.8834 39.919 38.5219 36.946C37.1464 33.961 34.3745 31.206 30.2066 28.684C29.9753 25.084 29.6483 19.759 29.226 12.71C27.9594 5.59258 25.1879 1.50188 20.9111 0.438286C19.6445 0.0701828 18.2349 -0.065918 16.682 0.02948C13.5905 0.220284 11.3703 1.45419 10.022 3.73109C8.41515 5.98088 7.58407 8.16938 7.52981 10.2965C7.50232 11.6464 7.78166 13.555 8.36749 16.023C8.95295 18.478 8.98705 20.693 8.46941 22.67L8.46941 22.67Z" transform="translate(0 88.03902)" id="Shape" fill="#FB5058" fill-rule="evenodd" stroke="none" />
          <path d="M1.63367 30.4126C1.26517 30.4126 0.894573 30.2896 0.589573 30.0356C-0.104427 29.4576 -0.199326 28.4256 0.377274 27.7308C1.13287 26.821 1.82057 25.5824 2.42107 24.0483C3.62247 21.0054 3.73977 18.1413 2.78217 15.2878C1.60947 11.7671 1.44667 8.27252 2.29677 4.89752C2.58717 3.81112 2.95997 2.79852 3.41167 1.86492C3.42667 1.83332 3.44277 1.80252 3.45967 1.77202L3.99127 0.831024C4.43517 0.0445251 5.43197 -0.232574 6.21837 0.212219C7.00397 0.657021 7.28077 1.65532 6.83647 2.44183L6.33167 3.33582C5.97967 4.07172 5.68677 4.87362 5.46017 5.72032C4.77137 8.45712 4.91067 11.3344 5.88177 14.2492C7.07767 17.8114 6.93727 21.5126 5.46277 25.2469C4.73617 27.1025 3.87067 28.644 2.89147 29.8226C2.56807 30.2116 2.10217 30.4126 1.63367 30.4126L1.63367 30.4126Z" transform="translate(34.39502 71.21538)" id="Shape" fill="#FABE00" fill-rule="evenodd" stroke="none" />
          <path d="M7.81099 101.764L0 99.359L30.522 0L38.333 2.40401L7.81099 101.764L7.81099 101.764ZM102.293 101.764L71.77 2.40401L79.581 0L110.103 99.359L102.293 101.764L102.293 101.764Z" transform="translate(213.337 138.877)" id="Shape" fill="#007E8A" fill-rule="evenodd" stroke="none" />
          <path d="M0 151.063L289.226 151.063L289.226 0L0 0L0 151.063L0 151.063Z" transform="translate(123.739 3.2894592)" id="Shape" fill="#FFFFFF" fill-rule="evenodd" stroke="none" />
          <path d="M6.53699 151.063L289.225 151.063L289.225 6.54486L6.53699 6.54486L6.53699 151.063L6.53699 151.063ZM0 157.608L295.763 157.608L295.763 0L0 0L0 157.608L0 157.608Z" transform="translate(120.49701 0)" id="Shape" fill="#007E8A" fill-rule="evenodd" stroke="none" />
          <path d="M50.687 0C36.863 0.2456 25.027 5.2974 15.18 15.1553C5.061 25.2726 0.00100708 37.5035 0 51.8473C0.00100708 66.1775 5.061 78.408 15.18 88.539C25.313 98.656 37.53 103.715 51.831 103.715C66.16 103.715 78.377 98.656 88.483 88.539C98.343 78.681 103.403 66.8388 103.662 53.0129L50.687 53.0129L50.687 0L50.687 0Z" transform="translate(216.547 24.419998)" id="Shape" fill="#FB5058" fill-rule="evenodd" stroke="none" />
          <path d="M53.874 107.805C39.08 107.805 26.263 102.498 15.78 92.032C5.30901 81.549 0.00100708 68.7179 0 53.8922C0.00100708 39.0526 5.31 26.2205 15.779 15.7531C25.967 5.5546 38.387 0.253901 52.694 0L52.767 4.0899C39.554 4.3244 28.082 9.2222 18.668 18.6462C8.992 28.3198 4.08701 40.1778 4.08701 53.8922C4.08701 67.5937 8.993 79.452 18.668 89.138C28.355 98.81 40.2 103.715 53.874 103.715C67.574 103.715 79.419 98.81 89.081 89.138C98.509 79.712 103.415 68.2334 103.662 55.0196L107.748 55.0964C107.48 69.4053 102.171 81.832 91.969 92.032C81.515 102.498 68.697 107.805 53.874 107.805L53.874 107.805Z" transform="translate(214.504 22.375)" id="Shape" fill="#C2826E" fill-rule="evenodd" stroke="none" />
          <path d="M13.525 2.3724C11.959 0.7906 10.093 0 7.927 0C5.76201 0 3.88901 0.7906 2.30901 2.3724C0.770004 3.9131 0 5.7676 0 7.9355C0 10.1034 0.770004 11.9715 2.30901 13.5397C3.88901 15.094 5.76201 15.8709 7.927 15.8709C10.093 15.8709 11.959 15.094 13.525 13.5397C15.064 11.9715 15.834 10.1034 15.834 7.9355C15.834 5.7676 15.064 3.9131 13.525 2.3724L13.525 2.3724Z" transform="translate(240.92 35.9553)" id="Shape" fill="#FB5058" fill-rule="evenodd" stroke="none" />
          <path d="M13.484 13.5194C15.064 11.9652 15.854 10.0971 15.854 7.9152C15.854 5.7473 15.064 3.8862 13.484 2.3319C11.945 0.777302 10.093 0 7.927 0C5.761 0 3.896 0.777302 2.32899 2.3319C0.776001 3.8862 0 5.7473 0 7.9152C0 10.0971 0.776001 11.9652 2.32899 13.5194C3.896 15.1012 5.761 15.8918 7.927 15.8918C10.093 15.8918 11.945 15.1012 13.484 13.5194L13.484 13.5194Z" transform="translate(243.515 61.214096)" id="Shape" fill="#FB5058" fill-rule="evenodd" stroke="none" />
          <path d="M0 7.9149C0 10.0964 0.776001 11.9645 2.32899 13.5191C3.868 15.0598 5.72699 15.8298 7.90599 15.8298C10.085 15.8298 11.951 15.0598 13.504 13.5191C15.056 11.9645 15.833 10.0964 15.833 7.9149C15.833 5.747 15.056 3.8855 13.504 2.3312C11.951 0.776901 10.085 0 7.90599 0C5.72699 0 3.868 0.776901 2.32899 2.3312C0.776001 3.8855 0 5.747 0 7.9149L0 7.9149Z" transform="translate(226.089 80.3788)" id="Shape" fill="#FB5058" fill-rule="evenodd" stroke="none" />
          <path d="M13.504 13.56C15.084 11.992 15.874 10.117 15.874 7.93601C15.874 5.76801 15.084 3.9 13.504 2.331C11.952 0.777 10.086 0 7.90599 0C5.741 0 3.88901 0.777 2.349 2.331C0.783005 3.9 0 5.76801 0 7.93601C0 10.117 0.783005 11.992 2.349 13.56C3.88901 15.101 5.741 15.871 7.90599 15.871C10.086 15.871 11.952 15.101 13.504 13.56L13.504 13.56Z" transform="translate(249.726 100.115)" id="Shape" fill="#FB5058" fill-rule="evenodd" stroke="none" />
          <path d="M13.525 13.56C15.077 11.992 15.854 10.117 15.854 7.93601C15.854 5.76801 15.077 3.9 13.525 2.331C11.958 0.777 10.092 0 7.927 0C5.74701 0 3.875 0.777 2.30801 2.331C0.769012 3.9 0 5.76801 0 7.93601C0 10.117 0.769012 11.992 2.30801 13.56C3.875 15.101 5.74701 15.871 7.927 15.871C10.092 15.871 11.958 15.101 13.525 13.56L13.525 13.56Z" transform="translate(277.347 100.115)" id="Shape" fill="#FB5058" fill-rule="evenodd" stroke="none" />
          <path d="M13.525 13.5191C15.077 11.9648 15.854 10.0967 15.854 7.9149C15.854 5.7334 15.077 3.8653 13.525 2.311C11.972 0.770302 10.113 0 7.94699 0C5.76797 0 3.89499 0.770302 2.32898 2.311C0.776977 3.8653 0 5.7334 0 7.9149C0 10.0967 0.776977 11.9648 2.32898 13.5191C3.89499 15.0734 5.76797 15.8507 7.94699 15.8507C10.113 15.8507 11.972 15.0734 13.525 13.5191L13.525 13.5191Z" transform="translate(296.265 78.8649)" id="Shape" fill="#FB5058" fill-rule="evenodd" stroke="none" />
          <path d="M0 7.93549C0 10.1034 0.769989 11.9648 2.30899 13.5191C3.875 15.087 5.741 15.8713 7.90698 15.8713C10.073 15.8713 11.932 15.087 13.484 13.5191C15.064 11.9648 15.854 10.1034 15.854 7.93549C15.854 5.74039 15.064 3.8723 13.484 2.3312C11.932 0.777 10.073 0 7.90698 0C5.741 0 3.875 0.777 2.30899 2.3312C0.769989 3.8723 0 5.74039 0 7.93549L0 7.93549Z" transform="translate(264.966 79.8261)" id="Shape" fill="#FB5058" fill-rule="evenodd" stroke="none" />
          <path d="M1.74503 14.2458C0.588013 12.7374 0 10.9511 0 8.93739C0 6.4986 0.883026 4.3707 2.62302 2.61269C4.328 0.937698 6.37201 0.0627975 8.71201 0L8.77802 2.4534C7.05301 2.49969 5.60602 3.12099 4.35202 4.35229C3.078 5.6402 2.45203 7.1438 2.45203 8.93739C2.45203 10.4182 2.85703 11.6657 3.69 12.7506L1.74503 14.2458L1.74503 14.2458Z" transform="translate(285.11 79.3559)" id="Shape" fill="#450064" fill-rule="evenodd" stroke="none" />
          <path d="M15.383 11.7296C16.487 9.94358 16.814 8.01458 16.364 5.94158C15.86 3.85558 14.703 2.25958 12.891 1.15558C11.12 0.0375824 9.19998 -0.269417 7.13001 0.23558L7.08899 0.23558C6.88498 0.289581 6.694 0.337578 6.517 0.378578L7.457 4.36658L0 6.08458L1.634 13.0796L9.091 11.3206L10.011 15.2686C10.215 15.2406 10.412 15.1996 10.603 15.1456L10.624 15.1456C12.707 14.6416 14.294 13.5026 15.383 11.7296L15.383 11.7296Z" transform="translate(278.001 100.86142)" id="Shape" fill="#FFFFFF" fill-rule="evenodd" stroke="none" />
          <path d="M15.384 11.7315C16.487 9.93167 16.794 8.00227 16.303 5.94338C15.826 3.85727 14.689 2.25537 12.891 1.13707C11.107 0.0327682 9.17301 -0.267128 7.089 0.237167L7.069 0.237167C6.86501 0.264275 6.67401 0.31237 6.49701 0.380272L7.436 4.34797L0 6.08647L1.63501 13.0813L9.05101 11.3021L10.011 15.2698C10.188 15.2287 10.379 15.181 10.583 15.1266L10.624 15.1266C12.707 14.6356 14.294 13.5041 15.384 11.7315L15.384 11.7315Z" transform="translate(226.926 82.55433)" id="Shape" fill="#FFFFFF" fill-rule="evenodd" stroke="none" />
          <path d="M7.10898 0L0.571991 2.9041L3.69699 9.9195L0 11.5354C0.0809937 11.7395 0.162994 11.9237 0.244995 12.0878L0.244995 12.1285C1.116 14.0645 2.53299 15.4213 4.49399 16.1986C6.483 16.9348 8.444 16.8736 10.378 16.0144C12.326 15.1416 13.667 13.6964 14.403 11.6782C15.138 9.7422 15.063 7.7923 14.178 5.8292L14.178 5.8086C14.083 5.6314 13.994 5.4471 13.913 5.2563L10.194 7.015L7.10898 0L7.10898 0Z" transform="translate(256.325 74.2425)" id="Shape" fill="#FFFFFF" fill-rule="evenodd" stroke="none" />
          <path d="M0 8.6515C0 11.0645 0.850998 13.1099 2.554 14.7871C4.229 16.5051 6.265 17.3642 8.662 17.3642C11.032 17.3642 13.082 16.5051 14.812 14.7871C16.487 13.1099 17.325 11.0645 17.325 8.6515C17.325 6.2788 16.487 4.2338 14.812 2.5155C13.082 0.8386 11.032 0 8.662 0C6.265 0 4.229 0.8386 2.554 2.5155C0.850998 4.2338 0 6.2788 0 8.6515L0 8.6515Z" transform="translate(241.513 38.593597)" id="Shape" fill="#FFFFFF" fill-rule="evenodd" stroke="none" />
          <path d="M11.931 5.9925C11.931 4.3428 11.346 2.9313 10.175 1.759C9.00301 0.586403 7.60101 0 5.966 0C4.31801 0 2.91501 0.586403 1.757 1.759C0.585998 2.9313 0 4.3428 0 5.9925C0 7.6422 0.585998 9.0467 1.757 10.2057C2.91501 11.3783 4.31801 11.9644 5.966 11.9644C7.60101 11.9644 9.00301 11.3783 10.175 10.2057C11.346 9.0467 11.931 7.6422 11.931 5.9925L11.931 5.9925Z" transform="translate(243.719 52.031)" id="Shape" fill="#FFFFFF" fill-rule="evenodd" stroke="none" />
          <path d="M2.20601 2.2497C0.735001 3.7361 0 5.5018 0 7.5471C0 9.6468 0.735001 11.447 2.20601 12.9466C3.664 14.3918 5.43401 15.1145 7.51801 15.1145C9.60202 15.1145 11.399 14.3918 12.911 12.9466C14.355 11.447 15.077 9.6468 15.077 7.5471C15.077 5.5018 14.355 3.7361 12.911 2.2497C11.399 0.750099 9.60202 0 7.51801 0C5.43401 0 3.664 0.750099 2.20601 2.2497L2.20601 2.2497Z" transform="translate(250.482 44.852097)" id="Shape" fill="#FFFFFF" fill-rule="evenodd" stroke="none" />
          <path d="M8.642 0C6.245 0 4.209 0.838196 2.53299 2.5155C0.843994 4.21989 0 6.27879 0 8.6923C0 11.0783 0.843994 13.1103 2.53299 14.7873C4.209 16.4913 6.245 17.3433 8.642 17.3433C11.039 17.3433 13.089 16.4913 14.791 14.7873C16.467 13.1103 17.304 11.0783 17.304 8.6923C17.304 6.27879 16.467 4.21989 14.791 2.5155C13.089 0.838196 11.039 0 8.642 0L8.642 0Z" transform="translate(244.598 92.9567)" id="Shape" fill="#FFFFFF" fill-rule="evenodd" stroke="none" />
          <path d="M10.215 10.186C11.386 9.027 11.972 7.623 11.972 5.973C11.972 4.323 11.386 2.912 10.215 1.739C9.03 0.580002 7.62 0 5.98599 0C4.32401 0 2.92801 0.580002 1.798 1.739C0.598999 2.912 0 4.323 0 5.973C0 7.623 0.598999 9.027 1.798 10.186C2.92801 11.359 4.32401 11.945 5.98599 11.945C7.62 11.945 9.03 11.359 10.215 10.186L10.215 10.186Z" transform="translate(252.525 102.221)" id="Shape" fill="#FFFFFF" fill-rule="evenodd" stroke="none" />
          <path d="M12.912 2.2501C11.4 0.750198 9.61598 0 7.55901 0C5.44798 0 3.66399 0.750198 2.20699 2.2501C0.735992 3.7633 0 5.5298 0 7.5478C0 9.6468 0.735992 11.4468 2.20699 12.9468C3.66399 14.4188 5.44798 15.1558 7.55901 15.1558C9.61598 15.1558 11.4 14.4188 12.912 12.9468C14.37 11.4468 15.098 9.6468 15.098 7.5478C15.098 5.5298 14.37 3.7633 12.912 2.2501L12.912 2.2501Z" transform="translate(255.119 95.0222)" id="Shape" fill="#FFFFFF" fill-rule="evenodd" stroke="none" />
          <path d="M17.019 0.102402L17.019 0L0.347015 0C0.117004 0.777397 0 1.5954 0 2.4542C0 4.8541 0.845001 6.8928 2.534 8.5697C2.87399 8.9106 3.20102 9.2105 3.51501 9.4696C2.65601 10.5332 2.22702 11.7876 2.22702 13.2329C2.22702 14.869 2.806 16.2735 3.96402 17.4461C5.12201 18.6052 6.52402 19.1847 8.172 19.1847C9.80701 19.1847 11.223 18.6052 12.422 17.4461C13.198 16.6417 13.716 15.7487 13.974 14.767C14.764 15.0393 15.609 15.1758 16.508 15.1758C18.578 15.1758 20.369 14.4396 21.881 12.9672C23.352 11.4944 24.087 9.7085 24.087 7.6085C24.087 5.5632 23.352 3.7909 21.881 2.2909C20.492 0.913498 18.871 0.184296 17.019 0.102402L17.019 0.102402Z" transform="translate(293.098 77.2079)" id="Shape" fill="#FFFFFF" fill-rule="evenodd" stroke="none" />
          <path d="M3.64478 15.6415C1.72577 14.2403 0.545776 12.3546 0.135773 10.0369C-0.274231 7.5442 0.245789 5.2812 1.67679 3.2965C2.83777 1.679 4.35678 0.569199 6.18979 0L6.91577 2.3441C5.58578 2.7573 4.52277 3.5379 3.66678 4.73071C2.61478 6.1888 2.25076 7.7886 2.55276 9.624C2.84976 11.3053 3.68079 12.6295 5.08878 13.6589L3.64478 15.6415L3.64478 15.6415Z" transform="translate(301.39822 83.5833)" id="Shape" fill="#450064" fill-rule="evenodd" stroke="none" />
          <path d="M3.65512 15.6593C1.73914 14.2598 0.552124 12.3689 0.128143 10.0403C-0.26886 7.55009 0.258118 5.29629 1.68814 3.3137C2.82913 1.7026 4.33914 0.584595 6.17114 0L6.91614 2.3382C5.58414 2.7632 4.52713 3.5497 3.68213 4.7421C2.62411 6.2083 2.25412 7.8033 2.54413 9.6274C2.85214 11.3127 3.68912 12.646 5.10013 13.6766L3.65512 15.6593L3.65512 15.6593Z" transform="translate(272.19287 84.6087)" id="Shape" fill="#450064" fill-rule="evenodd" stroke="none" />
          <path d="M1.78783 3.7225C0.438827 5.3722 -0.146164 7.2403 0.0308228 9.3268C0.221832 11.426 1.11983 13.151 2.72682 14.5008C4.34782 15.8918 6.22082 16.4919 8.34583 16.3006C10.4288 16.0962 12.1518 15.1688 13.5138 13.5191L13.5348 13.4989C13.6708 13.3627 13.8138 13.2057 13.9638 13.0284L10.7768 10.492L15.7208 4.6224L10.2248 0L5.28082 5.8497L2.21683 3.2315C2.07983 3.4091 1.95084 3.5519 1.82783 3.6613L1.78783 3.7225L1.78783 3.7225Z" transform="translate(225.73117 58.2687)" id="Shape" fill="#FFFFFF" fill-rule="evenodd" stroke="none" />
          <path d="M7.035 14.2505L5.099 12.7451C5.929 11.6752 6.33301 10.4362 6.33301 8.9576C6.33301 7.164 5.707 5.6604 4.42 4.3604C3.187 3.1375 1.73801 2.5111 0 2.4527L0.0810089 0C2.433 0.0784988 4.476 0.961601 6.153 2.6245C7.90201 4.3909 8.785 6.5188 8.785 8.9576C8.785 10.9739 8.196 12.7546 7.035 14.2505L7.035 14.2505Z" transform="translate(242.392 38.9011)" id="Shape" fill="#450064" fill-rule="evenodd" stroke="none" />
          <path d="M13.245 6.86908C12.871 5.56208 12.113 4.51208 10.93 3.66208C9.466 2.61208 7.88498 2.25307 6.09399 2.56508C4.336 2.82408 2.995 3.61708 1.961 4.99608L0 3.52408C1.42099 1.62708 3.341 0.489075 5.70599 0.142075C8.10999 -0.277924 10.36 0.234077 12.359 1.66708C13.986 2.83707 15.076 4.35908 15.602 6.19108L13.245 6.86908L13.245 6.86908Z" transform="translate(256.57 110.68292)" id="Shape" fill="#450064" fill-rule="evenodd" stroke="none" />
          <path d="M3.98401 0C-1.328 5.2357 -1.328 10.492 3.98401 15.7689C9.43201 10.6693 9.43201 5.413 3.98401 0L3.98401 0Z" transform="translate(240.614 63.505)" id="Shape" fill="#00CCBE" fill-rule="evenodd" stroke="none" />
          <path d="M15.527 2.72988C9.466 -1.64702 4.29001 -0.760719 0 5.38888C5.925 9.87478 11.1 8.98848 15.527 2.72988L15.527 2.72988Z" transform="translate(244.823 74.02822)" id="Shape" fill="#00CCBE" fill-rule="evenodd" stroke="none" />
          <path d="M7.01399 14.2521L5.08099 12.744C5.923 11.6602 6.334 10.415 6.334 8.937C6.334 7.1343 5.71001 5.6398 4.429 4.3681C3.17799 3.139 1.727 2.5111 0 2.4531L0.0820007 0C2.41901 0.0784988 4.46001 0.960098 6.14999 2.6208C7.89999 4.3571 8.785 6.4806 8.785 8.937C8.785 10.9537 8.189 12.7422 7.01399 14.2521L7.01399 14.2521Z" transform="translate(239.429 76.3295)" id="Shape" fill="#450064" fill-rule="evenodd" stroke="none" />
          <path d="M3.97351 0C-1.32449 5.2361 -1.32449 10.485 3.97351 15.7485C9.4205 10.6762 9.4205 5.4265 3.97351 0L3.97351 0Z" transform="translate(291.80148 85.4915)" id="Shape" fill="#00CCBE" fill-rule="evenodd" stroke="none" />
          <path d="M9.23048 0C1.8895 1.323 -1.07251 5.638 0.343491 12.947C7.72549 11.842 10.6875 7.527 9.23048 0L9.23048 0Z" transform="translate(245.76651 99.665)" id="Shape" fill="#00CCBE" fill-rule="evenodd" stroke="none" />
          <path d="M9.25388 0C1.9269 1.268 -1.0491 5.5836 0.325897 12.9465C7.70789 11.8422 10.6839 7.5266 9.25388 0L9.25388 0Z" transform="translate(251.99411 32.0692)" id="Shape" fill="#00CCBE" fill-rule="evenodd" stroke="none" />
          <path d="M10.1657 12.149C10.9557 4.7586 7.61868 0.709 0.154678 0C-0.784317 7.4315 2.55168 11.4811 10.1657 12.149L10.1657 12.149Z" transform="translate(230.95932 51.3966)" id="Shape" fill="#00CCBE" fill-rule="evenodd" stroke="none" />
          <path d="M10.2096 12.1903C10.9856 4.7587 7.63556 0.695496 0.158554 0C-0.795441 7.4448 2.55556 11.5083 10.2096 12.1903L10.2096 12.1903Z" transform="translate(230.58844 92.0567)" id="Shape" fill="#00CCBE" fill-rule="evenodd" stroke="none" />
          <path d="M1.103 6.5037C1.83801 7.2677 2.737 7.6497 3.79901 7.6497C4.84799 7.6497 5.74701 7.2677 6.496 6.5037C7.232 5.7677 7.60001 4.88171 7.60001 3.8447C7.60001 2.7677 7.232 1.85471 6.496 1.10471C5.74701 0.368103 4.84799 0 3.79901 0C2.737 0 1.83801 0.368103 1.103 1.10471C0.367004 1.85471 0 2.7677 0 3.8447C0 4.88171 0.367004 5.7677 1.103 6.5037L1.103 6.5037Z" transform="translate(262.638 98.6833)" id="Shape" fill="#007E8A" fill-rule="evenodd" stroke="none" />
          <path d="M1.103 6.4626C1.83902 7.2535 2.745 7.6488 3.82001 7.6488C4.896 7.6488 5.79501 7.2535 6.517 6.4626C7.25201 5.7536 7.62 4.8673 7.62 3.804C7.62 2.74039 7.25201 1.827 6.517 1.0632C5.79501 0.354198 4.896 0 3.82001 0C2.745 0 1.83902 0.354198 1.103 1.0632C0.368011 1.827 0 2.74039 0 3.804C0 4.8673 0.368011 5.7536 1.103 6.4626L1.103 6.4626Z" transform="translate(256.999 63.219)" id="Shape" fill="#007E8A" fill-rule="evenodd" stroke="none" />
          <path d="M6.517 1.084C5.76801 0.361 4.86899 0 3.82001 0C2.74399 0 1.83801 0.361 1.103 1.084C0.368011 1.861 0 2.775 0 3.825C0 4.902 0.368011 5.788 1.103 6.484C1.83801 7.274 2.74399 7.67 3.82001 7.67C4.86899 7.67 5.76801 7.274 6.517 6.484C7.25201 5.788 7.62 4.902 7.62 3.825C7.62 2.775 7.25201 1.861 6.517 1.084L6.517 1.084Z" transform="translate(277 110.873)" id="Shape" fill="#007E8A" fill-rule="evenodd" stroke="none" />
          <path d="M6.49699 1.0838C5.761 0.361206 4.855 0 3.77901 0C2.731 0 1.839 0.361206 1.103 1.0838C0.367004 1.83401 0 2.74741 0 3.8246C0 4.8878 0.367004 5.7741 1.103 6.4832C1.839 7.2469 2.731 7.6286 3.77901 7.6286C4.855 7.6286 5.761 7.2469 6.49699 6.4832C7.232 5.7741 7.60001 4.8878 7.60001 3.8246C7.60001 2.74741 7.232 1.83401 6.49699 1.0838L6.49699 1.0838Z" transform="translate(225.864 76.0424)" id="Shape" fill="#007E8A" fill-rule="evenodd" stroke="none" />
          <path d="M1.18399 0C0.790009 0 0.394989 0.00700092 0 0.0205002L0 53.0951L52.954 53.0951C52.995 52.6859 53.015 52.2836 53.015 51.8884C53.015 37.5714 47.955 25.3408 37.836 15.1963C27.716 5.0654 15.499 0 1.18399 0L1.18399 0Z" transform="translate(276.224 14.479996)" id="Shape" fill="#FB5058" fill-rule="evenodd" stroke="none" />
          <path d="M55.058 55.3437L50.992 54.9374C51.026 54.5972 51.043 54.2596 51.043 53.9337C51.043 40.245 46.137 28.3866 36.461 18.6869C26.787 9.0019 14.942 4.091 1.25497 4.091C0.883972 4.091 0.511993 4.0969 0.139984 4.1097L0 0.0220003C0.418976 0.00769997 0.836975 0 1.25497 0C16.065 0 28.882 5.3146 39.351 15.7956C49.821 26.291 55.129 39.1219 55.129 53.9337C55.129 54.3946 55.105 54.8692 55.058 55.3437L55.058 55.3437Z" transform="translate(276.153 12.434601)" id="Shape" fill="#C2826E" fill-rule="evenodd" stroke="none" />
          <path d="M13.504 13.5191C15.057 11.9784 15.833 10.1169 15.833 7.9354C15.833 5.7539 15.057 3.8859 13.504 2.3316C11.965 0.776899 10.099 0 7.90598 0C5.72699 0 3.86798 0.776899 2.32898 2.3316C0.776001 3.8859 0 5.7539 0 7.9354C0 10.1169 0.776001 11.9784 2.32898 13.5191C3.86798 15.0734 5.72699 15.8511 7.90598 15.8511C10.099 15.8511 11.965 15.0734 13.504 13.5191L13.504 13.5191Z" transform="translate(280.657 23.826904)" id="Shape" fill="#FB5058" fill-rule="evenodd" stroke="none" />
          <path d="M2.349 2.3111C0.78302 3.8654 0 5.7334 0 7.9153C0 10.0832 0.78302 11.9373 2.349 13.4784C3.888 15.0599 5.74802 15.8508 7.927 15.8508C10.12 15.8508 11.986 15.0599 13.525 13.4784C15.078 11.9373 15.854 10.0832 15.854 7.9153C15.854 5.7334 15.078 3.8654 13.525 2.3111C11.986 0.770397 10.12 0 7.927 0C5.74802 0 3.888 0.770397 2.349 2.3111L2.349 2.3111Z" transform="translate(303.15 47.5315)" id="Shape" fill="#FB5058" fill-rule="evenodd" stroke="none" />
          <path d="M2.37 2.3518C0.789978 3.9197 0 5.7947 0 7.9762C0 10.1306 0.789978 11.9781 2.37 13.5192C3.909 15.1006 5.76099 15.8915 7.926 15.8915C10.119 15.8915 11.985 15.1006 13.524 13.5192C15.077 11.9781 15.853 10.1306 15.853 7.9762C15.853 5.7947 15.077 3.9197 13.524 2.3518C11.985 0.783997 10.119 0 7.926 0C5.76099 0 3.909 0.783997 2.37 2.3518L2.37 2.3518Z" transform="translate(280.514 46.856598)" id="Shape" fill="#FB5058" fill-rule="evenodd" stroke="none" />
          <path d="M1.68698 14.2231C0.567993 12.6923 0 10.9072 0 8.9172C0 6.4763 0.876984 4.3605 2.60699 2.6293C4.285 0.9333 6.336 0.0474014 8.69901 0L8.74799 2.4539C7.01999 2.4884 5.57999 3.1123 4.34399 4.3608C3.06998 5.6366 2.452 7.1259 2.452 8.9172C2.452 10.3952 2.849 11.6566 3.66498 12.7738L1.68698 14.2231L1.68698 14.2231Z" transform="translate(305.152 34.810196)" id="Shape" fill="#450064" fill-rule="evenodd" stroke="none" />
          <path d="M14.178 5.8291C14.083 5.6379 13.995 5.4475 13.913 5.2562L10.195 6.9746L7.10999 0L0.571991 2.925L3.698 9.9198L0 11.5559C0.0820007 11.7604 0.162994 11.9446 0.244995 12.1079L0.244995 12.149C1.117 14.085 2.53299 15.4282 4.49499 16.178C6.483 16.9282 8.444 16.8801 10.378 16.0353C12.326 15.1489 13.668 13.7033 14.403 11.6991C15.139 9.7631 15.064 7.8128 14.178 5.8497L14.178 5.8291L14.178 5.8291Z" transform="translate(308.38 47.1427)" id="Shape" fill="#FFFFFF" fill-rule="evenodd" stroke="none" />
          <path d="M2.36401 7.28159L0 6.62869C0.628021 4.35249 1.96301 2.56959 3.97101 1.32909C6.082 0.0522919 8.35702 -0.30521 10.74 0.259293C12.677 0.716591 14.271 1.70529 15.476 3.19759L13.569 4.74079C12.702 3.66659 11.592 2.98209 10.176 2.64819C8.41302 2.22899 6.80103 2.48409 5.24802 3.42359C3.77402 4.33489 2.828 5.59849 2.36401 7.28159L2.36401 7.28159Z" transform="translate(283.05 56.36551)" id="Shape" fill="#450064" fill-rule="evenodd" stroke="none" />
          <path d="M17.303 8.6511C17.303 6.2516 16.466 4.2063 14.791 2.5155C13.102 0.838299 11.059 0 8.66199 0C6.25101 0 4.20801 0.838299 2.53299 2.5155C0.843994 4.2063 0 6.2516 0 8.6511C0 11.0646 0.843994 13.1096 2.53299 14.7872C4.20801 16.4776 6.25101 17.3232 8.66199 17.3232C11.059 17.3232 13.102 16.4776 14.791 14.7872C16.466 13.1096 17.303 11.0646 17.303 8.6511L17.303 8.6511Z" transform="translate(279.268 25.279099)" id="Shape" fill="#FFFFFF" fill-rule="evenodd" stroke="none" />
          <path d="M0 5.9723C0 7.622 0.585998 9.0196 1.75699 10.165C2.91501 11.3376 4.31799 11.9241 5.965 11.9241C7.61398 11.9241 9.02301 11.3376 10.195 10.165C11.339 9.0196 11.911 7.622 11.911 5.9723C11.911 4.3222 11.339 2.9111 10.195 1.7385C9.02301 0.579502 7.61398 0 5.965 0C4.31799 0 2.91501 0.579502 1.75699 1.7385C0.585998 2.9111 0 4.3222 0 5.9723L0 5.9723Z" transform="translate(281.535 38.6961)" id="Shape" fill="#FFFFFF" fill-rule="evenodd" stroke="none" />
          <path d="M12.891 2.2292C11.393 0.742899 9.60898 0 7.539 0C5.45499 0 3.68399 0.742899 2.22699 2.2292C0.742004 3.7288 0 5.5085 0 7.5674C0 9.6806 0.742004 11.4668 2.22699 12.9261C3.68399 14.3985 5.45499 15.1347 7.539 15.1347C9.60898 15.1347 11.393 14.3985 12.891 12.9261C14.362 11.4668 15.098 9.6806 15.098 7.5674C15.098 5.5085 14.362 3.7288 12.891 2.2292L12.891 2.2292Z" transform="translate(288.277 31.537598)" id="Shape" fill="#FFFFFF" fill-rule="evenodd" stroke="none" />
          <path d="M3.99374 0C-1.33124 5.2493 -1.33124 10.5056 3.99374 15.7688C9.42776 10.6693 9.42776 5.413 3.99374 0L3.99374 0Z" transform="translate(282.13824 38.4506)" id="Shape" fill="#00CCBE" fill-rule="evenodd" stroke="none" />
          <path d="M15.077 6.47552C11.632 -0.151077 6.60599 -1.69178 0 1.85342C3.26901 8.57562 8.29501 10.1163 15.077 6.47552L15.077 6.47552Z" transform="translate(301.168 51.015976)" id="Shape" fill="#00CCBE" fill-rule="evenodd" stroke="none" />
          <path d="M6.517 6.4832C7.26599 5.747 7.64099 4.854 7.64099 3.804C7.64099 2.7408 7.26599 1.8339 6.517 1.0837C5.78198 0.361099 4.87601 0 3.79999 0C2.76498 0 1.866 0.361099 1.103 1.0837C0.367981 1.8339 0 2.7408 0 3.804C0 4.854 0.367981 5.747 1.103 6.4832C1.866 7.2469 2.76498 7.6286 3.79999 7.6286C4.87601 7.6286 5.78198 7.2469 6.517 6.4832L6.517 6.4832Z" transform="translate(297.777 28.162903)" id="Shape" fill="#007E8A" fill-rule="evenodd" stroke="none" />
          <path d="M3.79999 7.629C4.849 7.629 5.754 7.2539 6.517 6.5041C7.23898 5.7815 7.59998 4.8816 7.59998 3.804C7.59998 2.7272 7.23898 1.8134 6.517 1.0636C5.754 0.3545 4.849 0 3.79999 0C2.724 0 1.81799 0.3545 1.08298 1.0636C0.360992 1.8134 0 2.7272 0 3.804C0 4.8816 0.360992 5.7815 1.08298 6.5041C1.81799 7.2539 2.724 7.629 3.79999 7.629L3.79999 7.629Z" transform="translate(299.105 59.291595)" id="Shape" fill="#007E8A" fill-rule="evenodd" stroke="none" />
          <path d="M0 4.0907L41.35 4.0907L41.35 0L0 0L0 4.0907L0 4.0907ZM220.255 4.0907L248.019 4.0907L248.019 0L220.255 0L220.255 4.0907L220.255 4.0907ZM0 13.376L34.179 13.376L34.179 9.2853L0 9.2853L0 13.376L0 13.376ZM232.472 13.376L248.019 13.376L248.019 9.2853L232.472 9.2853L232.472 13.376L232.472 13.376ZM0 22.7226L16.651 22.7226L16.651 18.6319L0 18.6319L0 22.7226L0 22.7226ZM21.431 22.7226L41.35 22.7226L41.35 18.6319L21.431 18.6319L21.431 22.7226L21.431 22.7226Z" transform="translate(144.859 22.722603)" id="Shape" fill="#00CCBE" fill-rule="evenodd" stroke="none" />
          <path d="M31.5283 0.444641C31.3533 0.26134 31.1655 0.114345 30.964 0C31.2921 0.203268 31.598 0.499086 31.8828 0.889283L31.964 1C31.8269 0.794932 31.6813 0.609803 31.5283 0.444641L31.5283 0.444641ZM26.883 3.198C26.797 2.364 27.016 1.61499 27.541 0.949005C27.668 0.802994 27.801 0.669998 27.938 0.550995L0 23.165L3.85098 27.924L26.746 9.38L26.41 28.536L32.523 28.643L32.859 9.196L27.999 5.248C27.351 4.722 26.979 4.039 26.883 3.198L26.883 3.198ZM32.126 0.75C32.188 0.819992 32.244 0.886002 32.294 0.949005C32.709 1.45799 32.933 2.024 32.966 2.647C32.978 2.743 32.984 2.834 32.982 2.923L32.859 9.196L56.487 28.306L60.324 23.548L31.912 0.550995C31.986 0.617996 32.058 0.68399 32.126 0.75L32.126 0.75Z" transform="translate(400.199 212.565)" id="Shape" fill="#8C9B9B" fill-rule="evenodd" stroke="none" />
          <path d="M0 31.672L8.62003 31.672L8.62003 0L0 0L0 31.672L0 31.672Z" transform="translate(425.86 190.028)" id="Shape" fill="#616B6A" fill-rule="evenodd" stroke="none" />
          <path d="M46.477 0.0153961C45.848 -0.0536041 45.282 0.109406 44.781 0.504394C44.282 0.895401 43.991 1.4064 43.91 2.03439L41.143 25.4444C39.932 33.4604 35.224 38.2294 27.022 39.7504L2.30798 39.7504C1.672 39.7554 1.12799 39.9794 0.673004 40.4234C0.229004 40.8784 0.00500488 41.4244 0 42.0604C0.00500488 42.6964 0.229004 43.2374 0.673004 43.6824C1.12799 44.1374 1.672 44.3614 2.30798 44.3554L27.22 44.3554C27.355 44.3594 27.488 44.3494 27.618 44.3254C38.183 42.4464 44.215 36.3564 45.713 26.0564C45.715 26.0344 45.715 26.0144 45.713 25.9954L48.48 2.5854C48.558 1.95641 48.4 1.3904 48.006 0.887405C47.614 0.386398 47.104 0.096405 46.477 0.0153961L46.477 0.0153961Z" transform="translate(412.777 152.2666)" id="Shape" fill="#616B6A" fill-rule="evenodd" stroke="none" />
          <path d="M46.89 1.60699C45.81 0.535995 44.506 0 42.977 0L5.51801 0C3.98999 0 2.69 0.535995 1.621 1.60699C0.540009 2.688 0 3.994 0 5.524L0 5.539C0 7.069 0.540009 8.37 1.621 9.44099C2.69 10.522 3.98999 11.063 5.51801 11.063L42.977 11.063C44.506 11.063 45.81 10.522 46.89 9.44099C47.96 8.37 48.495 7.069 48.495 5.539L48.495 5.524C48.495 3.994 47.96 2.688 46.89 1.60699L46.89 1.60699Z" transform="translate(405.823 180.985)" id="Shape" fill="#8C9C9C" fill-rule="evenodd" stroke="none" />
          <path d="M32.553 2.95325C31.626 1.74925 30.404 1.05125 28.886 0.857246L28.87 0.857246C21.687 0.275253 16.052 -0.00975037 11.967 0.00025177L0 45.9782C11.116 47.6103 18.645 48.6202 22.589 49.0073L22.604 49.0073C24.122 49.2013 25.482 48.8343 26.685 47.9053C27.887 46.9672 28.59 45.7432 28.794 44.2342L33.639 7.03825C33.842 5.52924 33.481 4.16724 32.553 2.95325L32.553 2.95325Z" transform="translate(446.829 125.10775)" id="Shape" fill="#8C9C9C" fill-rule="evenodd" stroke="none" />
          <path d="M0 5.63C0 7.19101 0.545013 8.522 1.63501 9.62401C2.73599 10.715 4.06601 11.261 5.62399 11.261C7.18301 11.261 8.513 10.715 9.61301 9.62401C10.703 8.522 11.249 7.19101 11.249 5.63C11.249 4.069 10.703 2.744 9.61301 1.65201C8.513 0.55101 7.18301 0 5.62399 0C4.06601 0 2.73599 0.55101 1.63501 1.65201C0.545013 2.744 0 4.069 0 5.63L0 5.63Z" transform="translate(453.202 234.124)" id="Shape" fill="#00CBBD" fill-rule="evenodd" stroke="none" />
          <path d="M0 5.646C0 7.19699 0.549988 8.52299 1.64999 9.62399C2.75101 10.726 4.07999 11.277 5.63901 11.277C7.18698 11.277 8.51199 10.726 9.61301 9.62399C10.713 8.52299 11.263 7.19699 11.263 5.646C11.263 4.08499 10.713 2.754 9.61301 1.653C8.51199 0.550995 7.18698 0 5.63901 0C4.07999 0 2.75101 0.550995 1.64999 1.653C0.549988 2.754 0 4.08499 0 5.646L0 5.646Z" transform="translate(424.057 234.093)" id="Shape" fill="#00CBBD" fill-rule="evenodd" stroke="none" />
          <path d="M0 5.646C0 7.19699 0.550018 8.52299 1.65002 9.62399C2.74103 10.726 4.065 11.277 5.62402 11.277C7.18301 11.277 8.51202 10.726 9.61301 9.62399C10.713 8.52299 11.264 7.19699 11.264 5.646C11.264 4.08499 10.713 2.754 9.61301 1.653C8.51202 0.550995 7.18301 0 5.62402 0C4.065 0 2.74103 0.550995 1.65002 1.653C0.550018 2.754 0 4.08499 0 5.646L0 5.646Z" transform="translate(394.942 234.093)" id="Shape" fill="#00CBBD" fill-rule="evenodd" stroke="none" />
          <path d="M8.62473 0.127151C9.71872 -0.135849 10.7497 0.00915527 11.7187 0.562149C12.6857 1.13215 13.3317 1.96015 13.6547 3.04415L21.7717 30.7071C22.0947 31.8222 21.9817 32.8901 21.4337 33.9101C20.8717 34.9262 20.0337 35.5962 18.9197 35.9192C17.7997 36.2571 16.7337 36.1442 15.7207 35.5812C14.6967 35.0322 14.0157 34.1982 13.6787 33.0761L6.6947 9.26415L5.2037 9.63015C4.0657 9.89816 3.00671 9.73015 2.0267 9.12515C1.02972 8.51615 0.395721 7.64515 0.123718 6.51315C-0.146271 5.37515 0.0257263 4.30715 0.638702 3.30815C1.24072 2.32915 2.10773 1.70115 3.23673 1.42715L8.62473 0.127151L8.62473 0.127151Z" transform="translate(394.67828 103.44285)" id="Shape" fill="#A76854" fill-rule="evenodd" stroke="none" />
          <path d="M2.10999 24.9026L0 23.3316L17.19 0L19.301 1.5711L2.10999 24.9026L2.10999 24.9026Z" transform="translate(391.35 91.9274)" id="Shape" fill="#BF836E" fill-rule="evenodd" stroke="none" />
          <path d="M4.353 10.36L0 6.277L4.591 0L9.04199 4.306L4.353 10.36L4.353 10.36Z" transform="translate(389.492 112.975)" id="Shape" fill="#FABE00" fill-rule="evenodd" stroke="none" />
          <path d="M1.63501 20.1778L0 18.1038L23.011 0L24.646 2.0738L1.63501 20.1778L1.63501 20.1778Z" transform="translate(395.186 99.8202)" id="Shape" fill="#BF836E" fill-rule="evenodd" stroke="none" />
          <path d="M11.0717 8.75004C10.3737 8.99804 9.69772 8.96504 9.04269 8.65204L1.4917 5.02003C0.838715 4.70404 0.398712 4.20004 0.171722 3.50804C-0.0832825 2.82503 -0.0542908 2.15604 0.258698 1.50104C0.574707 0.847038 1.0817 0.398041 1.7807 0.156036C2.45471 -0.0839615 3.11871 -0.0469589 3.77371 0.266037L11.3247 3.89804C11.9787 4.21404 12.4297 4.71504 12.6797 5.39804C12.9117 6.08904 12.8707 6.76204 12.5587 7.41704C12.2427 8.07104 11.7467 8.51504 11.0717 8.75004L11.0717 8.75004Z" transform="translate(396.3733 107.93096)" id="Shape" fill="#A76854" fill-rule="evenodd" stroke="none" />
          <path d="M6.12585 45.2842C5.18484 45.2842 4.22986 45.0663 3.33585 44.6073C0.322845 43.0622 -0.868134 39.3653 0.675842 36.3493L17.5709 3.33826C19.1149 0.323257 22.8079 -0.868744 25.8209 0.676254C28.8329 2.22125 30.0239 5.91825 28.4799 8.93426L11.5848 41.9453C10.4998 44.0653 8.35187 45.2842 6.12585 45.2842L6.12585 45.2842Z" transform="translate(409.95615 109.031746)" id="Shape" fill="#FB5058" fill-rule="evenodd" stroke="none" />
          <path d="M5.31198 22.411L0 3.28801L11.81 0L17.122 19.123L5.31198 22.411L5.31198 22.411Z" transform="translate(405.156 128.23)" id="Shape" fill="#FB5058" fill-rule="evenodd" stroke="none" />
          <path d="M16.365 9.02499L0 4.75L1.23801 0L17.603 4.27499L16.365 9.02499L16.365 9.02499Z" transform="translate(411.34 143.349)" id="Shape" fill="#A76854" fill-rule="evenodd" stroke="none" />
          <path d="M16.384 0.388992L0 0L2.901 20.269L16.384 20.269L16.384 0.388992L16.384 0.388992Z" transform="translate(386.443 136.623)" id="Shape" fill="#00CBBD" fill-rule="evenodd" stroke="none" />
          <path d="M12.156 19.879L14.608 0.20401L0 0L0 19.879L12.156 19.879L12.156 19.879Z" transform="translate(402.827 137.012)" id="Shape" fill="#FFFFFF" fill-rule="evenodd" stroke="none" />
          <path d="M6.34299 17.5593L0 9.02826L10.706 1.05226C11.994 0.0912628 13.647 -0.232742 15.204 0.168259L26.052 2.97026L23.398 13.2693L15.01 11.1023L6.34299 17.5593L6.34299 17.5593Z" transform="translate(408.134 145.86774)" id="Shape" fill="#A76854" fill-rule="evenodd" stroke="none" />
          <path d="M84.15 0.919998L84.15 0L72.178 0L73.139 15.503L84.15 0.919998L84.15 0.919998ZM34.73 43.196L31.237 42.501C26.633 42.214 23.398 44.962 21.532 50.743L7.45599 102.038L0 106.231L0 110.403L12.482 109.36L27.253 75.777L26.947 74.427C26.878 74.1 26.824 73.779 26.783 73.466C25.857 67.466 28.07 63.56 33.423 61.746L51.708 69.478L34.73 43.196L34.73 43.196Z" transform="translate(366.667 110.28)" id="Shape" fill="#A76854" fill-rule="evenodd" stroke="none" />
          <path d="M16.847 15.72L20.982 16.628L17.263 0L7.51801 13.642L2.595 13.887L0 17.446L10.031 17.221L15.404 10.574L16.847 15.72L16.847 15.72Z" transform="translate(397.107 227.964)" id="Shape" fill="#FABE00" fill-rule="evenodd" stroke="none" />
          <path d="M15.5269 16.444L30.7679 16.444L25.1289 7.732L6.84387 0C1.49188 1.814 -0.72113 5.72 0.204895 11.72C0.24588 12.033 0.300873 12.354 0.367889 12.681L0.674896 14.031L11.7679 61.89L6.45688 69.825L11.3799 69.58L21.1249 55.938L15.5269 16.444L15.5269 16.444Z" transform="translate(393.24512 172.026)" id="Shape" fill="#C2826E" fill-rule="evenodd" stroke="none" />
          <path d="M63.373 0L49.419 0L32.557 0L30.603 14.03L0 7.87399L16.977 34.155L22.615 42.868L28.873 42.868L41.186 42.868C44.537 42.868 47.933 43.021 51.279 42.82C55.984 42.537 60.936 41.148 64.142 37.482C67.015 34.196 67.953 29.736 68.043 25.478C68.083 23.594 67.963 21.709 67.745 19.839L63.373 0L63.373 0Z" transform="translate(401.398 145.602)" id="Shape" fill="#440063" fill-rule="evenodd" stroke="none" />
          <path d="M16.405 5.338C16.433 1.875 14.785 0.0950012 11.461 0L0 0L0 0.919998L0 35.322L13.954 35.322L16.405 5.338L16.405 5.338Z" transform="translate(450.817 110.28)" id="Shape" fill="#FB5058" fill-rule="evenodd" stroke="none" />
          <path d="M2.1225 11.842C-0.410522 17.255 -0.676514 21.686 1.3255 25.136L6.7395 35.322L22.1845 35.322L22.1845 0.919998L11.1725 15.503L10.2125 0L8.05548 0L2.1225 11.842L2.1225 11.842Z" transform="translate(428.6325 110.28)" id="Shape" fill="#00CBBD" fill-rule="evenodd" stroke="none" />
          <path d="M26.396 20.805L0 14.116L3.57001 0L29.965 6.688L26.396 20.805L26.396 20.805Z" transform="translate(419.47 142.757)" id="Shape" fill="#FB5058" fill-rule="evenodd" stroke="none" />
          <path d="M7.27426 53.4323C6.42227 53.4323 5.55627 53.2813 4.71228 52.9633C0.953278 51.5463 -0.946747 47.3473 0.468262 43.5833L15.1903 4.71828C16.6043 0.955284 20.7993 -0.948715 24.5583 0.469284C28.3183 1.88628 30.2183 6.08529 28.8033 9.84929L14.0813 48.7143C12.9843 51.6333 10.2153 53.4323 7.27426 53.4323L7.27426 53.4323Z" transform="translate(440.37573 110.353714)" id="Shape" fill="#FB5058" fill-rule="evenodd" stroke="none" />
          <path d="M12.728 12.7422C14.186 11.2829 14.914 9.5242 14.914 7.4653C14.914 5.4064 14.186 3.6477 12.728 2.1885C11.271 0.730003 9.51401 0 7.457 0C5.401 0 3.64398 0.730003 2.186 2.1885C0.729004 3.6477 0 5.4064 0 7.4653C0 9.5242 0.729004 11.2829 2.186 12.7422C3.64398 14.2014 5.401 14.9306 7.457 14.9306C9.51401 14.9306 11.271 14.2014 12.728 12.7422L12.728 12.7422Z" transform="translate(430.673 75.8582)" id="Shape" fill="#440063" fill-rule="evenodd" stroke="none" />
          <path d="M12.728 12.7421C14.185 11.2829 14.914 9.5242 14.914 7.4653C14.914 5.4063 14.185 3.64761 12.728 2.1884C11.27 0.729904 9.513 0 7.457 0C5.38699 0 3.62299 0.729904 2.16599 2.1884C0.721985 3.64761 0 5.4063 0 7.4653C0 9.5242 0.721985 11.2829 2.16599 12.7421C3.62299 14.2013 5.38699 14.9306 7.457 14.9306C9.513 14.9306 11.27 14.2013 12.728 12.7421L12.728 12.7421Z" transform="translate(427.997 83.6916)" id="Shape" fill="#440063" fill-rule="evenodd" stroke="none" />
          <path d="M12.728 12.7418C14.186 11.283 14.914 9.5239 14.914 7.4654C14.914 5.4064 14.186 3.6474 12.728 2.1885C11.271 0.729706 9.51401 0 7.457 0C5.401 0 3.64401 0.729706 2.186 2.1885C0.729004 3.6474 0 5.4064 0 7.4654C0 9.5239 0.729004 11.283 2.186 12.7418C3.64401 14.2011 5.401 14.9303 7.457 14.9303C9.51401 14.9303 11.271 14.2011 12.728 12.7418L12.728 12.7418Z" transform="translate(438.089 84.7961)" id="Shape" fill="#FABE00" fill-rule="evenodd" stroke="none" />
          <path d="M22.289 22.3137C24.835 19.7505 26.109 16.6687 26.109 13.0695C26.109 9.4559 24.835 6.3742 22.289 3.8245C19.742 1.2749 16.663 0 13.055 0C9.45898 0 6.38001 1.2749 3.82001 3.8245C1.27301 6.3742 0 9.4559 0 13.0695C0 16.6687 1.27301 19.7505 3.82001 22.3137C6.38001 24.8637 9.45898 26.1387 13.055 26.1387C16.663 26.1387 19.742 24.8637 22.289 22.3137L22.289 22.3137Z" transform="translate(433.677 76.0833)" id="Shape" fill="#440063" fill-rule="evenodd" stroke="none" />
          <path d="M0.28952 12.7007C-0.691467 16.6957 0.820526 19.1777 4.82452 20.1457L12.2405 21.9657C12.6625 22.0747 13.0375 22.1907 13.3645 22.3137L16.6945 16.6277L16.6945 4.0903L4.00754 0L0.28952 12.7007L0.28952 12.7007Z" transform="translate(429.26047 87.4143)" id="Shape" fill="#A76854" fill-rule="evenodd" stroke="none" />
          <path d="M0.48999 15.4621L11.379 15.9531L11.4 0L0 0.8797L0 13.7901L0.48999 15.4621L0.48999 15.4621Z" transform="translate(438.355 94.8179)" id="Shape" fill="#A76854" fill-rule="evenodd" stroke="none" />
          <path d="M3.534 0C2.56699 0 1.74399 0.340996 1.06299 1.0225C0.354004 1.718 0 2.5566 0 3.5383C0 4.5061 0.354004 5.3312 1.06299 6.0129C1.74399 6.7219 2.56699 7.0759 3.534 7.0759C4.51498 7.0759 5.353 6.7219 6.047 6.0129C6.728 5.3312 7.069 4.5061 7.069 3.5383C7.069 2.5566 6.728 1.718 6.047 1.0225C5.353 0.340996 4.51498 0 3.534 0L3.534 0Z" transform="translate(444.402 94.5111)" id="Shape" fill="#A76854" fill-rule="evenodd" stroke="none" />
          <path d="M4.41299 1.63651C3.638 1.63651 2.991 1.9059 2.43698 2.4604C1.89899 3.0098 1.63498 3.6587 1.63498 4.43861C1.63498 5.21851 1.89899 5.867 2.44299 6.4223C2.991 6.9709 3.638 7.2407 4.41299 7.2407C5.19897 7.2407 5.84399 6.9728 6.38397 6.42191C6.94299 5.86221 7.21198 5.2152 7.21198 4.43861C7.21198 3.662 6.94299 3.015 6.38898 2.4604C5.84399 1.904 5.19897 1.63651 4.41299 1.63651L4.41299 1.63651ZM4.41299 8.8772C3.19897 8.8772 2.146 8.4382 1.28198 7.5736C0.429993 6.7041 0 5.6508 0 4.43861C0 3.22601 0.429993 2.173 1.276 1.30911C2.146 0.438606 3.19897 0 4.41299 0C5.64297 0 6.69898 0.440399 7.55099 1.3087C8.40799 2.1679 8.84698 3.2227 8.84698 4.43861C8.84698 5.65411 8.40799 6.7089 7.54498 7.5736C6.69898 8.4364 5.64297 8.8772 4.41299 8.8772L4.41299 8.8772Z" transform="translate(427.588 88.2727)" id="Shape" fill="#FFFFFF" fill-rule="evenodd" stroke="none" />
          <path d="M4.41299 1.63651C3.63699 1.63651 2.991 1.9055 2.43698 2.46011C1.89899 3.00951 1.63498 3.6584 1.63498 4.4383C1.63498 5.2182 1.89899 5.86671 2.44299 6.42191C2.991 6.9706 3.63699 7.2404 4.41299 7.2404C5.19998 7.2404 5.84399 6.9728 6.383 6.42191C6.94299 5.8619 7.21201 5.2149 7.21201 4.4383C7.21201 3.66171 6.94299 3.0146 6.38901 2.46011C5.84399 1.90411 5.19998 1.63651 4.41299 1.63651L4.41299 1.63651ZM4.41299 8.87691C3.198 8.87691 2.14499 8.4379 1.28198 7.5733C0.429993 6.7038 0 5.6509 0 4.4383C0 3.2257 0.429993 2.17271 1.276 1.3088C2.14499 0.438606 3.198 0 4.41299 0C5.64398 0 6.69901 0.440407 7.54999 1.3088C8.40799 2.1676 8.84698 3.2224 8.84698 4.4383C8.84698 5.6538 8.40799 6.7086 7.54498 7.5733C6.69998 8.4361 5.64398 8.87691 4.41299 8.87691L4.41299 8.87691Z" transform="translate(436.557 90.5023)" id="Shape" fill="#FFFFFF" fill-rule="evenodd" stroke="none" />
          <path d="M8.867 4.17299L8.867 0L0.184021 4.888L0 7.48599L14.301 7.302L11.808 12.66L16.528 14.092L21.349 3.129L8.867 4.17299L8.867 4.17299Z" transform="translate(357.8 216.49)" id="Shape" fill="#FABE00" fill-rule="evenodd" stroke="none" />
          <path d="M5.53329 48.2257C5.3353 48.2257 5.13528 48.2147 4.9343 48.1927C1.89929 47.8657 -0.294708 45.1367 0.0322876 42.0987L4.0383 4.94032C4.3653 1.90222 7.08929 -0.298378 10.1253 0.03302C13.1593 0.361122 15.3543 3.08952 15.0273 6.12722L11.0213 43.2857C10.7153 46.1227 8.32028 48.2257 5.53329 48.2257L5.53329 48.2257Z" transform="translate(472.2857 90.33528)" id="Shape" fill="#FFAD93" fill-rule="evenodd" stroke="none" />
          <path d="M0 5.742L15.671 5.742L15.671 0L0 0L0 5.742L0 5.742Z" transform="translate(484.579 101.455)" id="Shape" fill="#FB5058" fill-rule="evenodd" stroke="none" />
          <path d="M20.591 1.0903C19.878 0.363701 19.003 0 17.966 0L3.75198 0C2.71597 0 1.82797 0.363701 1.08899 1.0903C0.362976 1.8302 0 2.7125 0 3.7372C0 4.7762 0.362976 5.6582 1.08899 6.3852C1.82797 7.1242 2.71597 7.4942 3.75198 7.4942L17.966 7.4942C19.003 7.4942 19.878 7.1242 20.591 6.3852C21.33 5.6582 21.699 4.7762 21.699 3.7372C21.699 2.7125 21.33 1.8302 20.591 1.0903L20.591 1.0903Z" transform="translate(481.157 96.3358)" id="Shape" fill="#A76854" fill-rule="evenodd" stroke="none" />
          <path d="M16.099 6.6762C16.709 6.0795 17.013 5.3528 17.013 4.4962C17.013 3.64 16.709 2.9067 16.099 2.2963C15.503 1.7128 14.777 1.4206 13.922 1.4206C13.286 1.4206 12.729 1.5829 12.249 1.9073C12.094 1.6867 11.912 1.4852 11.705 1.3036C10.85 0.434502 9.793 0 8.53598 0C7.27798 0 6.203 0.434502 5.30798 1.3036C5.29498 1.2907 5.276 1.265 5.25 1.2258C4.65298 0.642197 3.92798 0.350098 3.07199 0.350098C2.21698 0.350098 1.48398 0.642197 0.875 1.2258C0.291992 1.8361 0 2.5694 0 3.4256C0 4.2822 0.291992 5.0085 0.875 5.6057C1.48398 6.2028 2.21698 6.5008 3.07199 6.5008C3.526 6.5008 3.94699 6.4167 4.336 6.2479C4.55698 6.7929 4.87997 7.2862 5.30798 7.7273C6.203 8.61 7.27798 9.0511 8.53598 9.0511C9.793 9.0511 10.85 8.61 11.705 7.7273C11.912 7.52 12.1 7.3185 12.269 7.124C12.748 7.4352 13.299 7.5912 13.922 7.5912C14.777 7.5912 15.503 7.2862 16.099 6.6762L16.099 6.6762Z" transform="translate(483.743 91.1389)" id="Shape" fill="#007E8A" fill-rule="evenodd" stroke="none" />
          <path d="M19.657 5.27532C19.501 1.88822 18.089 0.175316 15.418 0.136421L4.91901 0.000320435C2.26199 -0.0257797 0.622009 1.55132 0 4.73032L19.657 5.27532L19.657 5.27532Z" transform="translate(481.974 89.52278)" id="Shape" fill="#FABE00" fill-rule="evenodd" stroke="none" />
          <path d="M0 0C0.143005 2.219 1.55499 3.348 4.23898 3.387L14.738 3.52299C17.435 3.549 18.873 2.453 19.055 0.234001L0 0L0 0Z" transform="translate(482.518 106.205)" id="Shape" fill="#FABE00" fill-rule="evenodd" stroke="none" />
          <path d="M2.44931 12.0327C1.96634 12.0327 1.47733 11.8897 1.05032 11.5927C-0.0606689 10.8167 -0.333679 9.28782 0.440338 8.17502L5.39832 1.05071C5.86932 0.373917 6.64233 -0.0125809 7.47232 0.000312805L12.8383 0.136818C14.1923 0.171318 15.2613 1.29771 15.2273 2.65272C15.1933 3.98641 14.1023 5.04482 12.7773 5.04482C12.7563 5.04482 12.7353 5.04442 12.7143 5.04411L8.66632 4.94092L4.46332 10.9817C3.98633 11.6657 3.22433 12.0327 2.44931 12.0327L2.44931 12.0327Z" transform="translate(475.34167 89.677284)" id="Shape" fill="#FFAD93" fill-rule="evenodd" stroke="none" />
          <path d="M8.09064 10.144C7.47165 10.144 6.87665 9.91002 6.42264 9.48901L0.784637 4.25301C-0.208374 3.33202 -0.266357 1.77901 0.653656 0.785019C1.57565 -0.207985 3.12665 -0.266983 4.11865 0.654015L9.03964 5.22401L12.7456 5.17702C12.7567 5.17702 12.7666 5.17702 12.7766 5.17702C14.1166 5.17702 15.2106 6.25602 15.2276 7.60102C15.2446 8.95602 14.1606 10.069 12.8066 10.085L8.12064 10.144C8.11063 10.144 8.09964 10.144 8.09064 10.144L8.09064 10.144Z" transform="translate(475.55536 103.61498)" id="Shape" fill="#FFAD93" fill-rule="evenodd" stroke="none" />
          <path d="M2.62518 19.6433C1.28519 19.6433 0.190186 18.5643 0.174164 17.2183L0.000183105 2.4832C-0.0168152 1.1282 1.06818 0.0165024 2.42218 0.000404358C2.43216 0 2.44217 0 2.45117 0C3.79218 0 4.88617 1.0797 4.90216 2.4252L5.07718 17.1603C5.09317 18.5153 4.00919 19.6273 2.65518 19.6433C2.64517 19.6433 2.63516 19.6433 2.62518 19.6433L2.62518 19.6433Z" transform="translate(475.10883 89.5217)" id="Shape" fill="#FFAD93" fill-rule="evenodd" stroke="none" />
          <path d="M2.4516 9.32707C1.79861 9.32707 1.14661 9.06718 0.663605 8.55228C-0.26239 7.56397 -0.213409 6.01077 0.77359 5.08337L5.20761 0.917778C5.64362 0.507477 6.21561 0.271172 6.8136 0.253876L15.5436 0.000976563C16.8916 -0.0368271 18.0256 1.02867 18.0656 2.38328C18.1046 3.73788 17.0396 4.86868 15.6856 4.90758L7.88461 5.13367L4.1286 8.66207C3.65662 9.10648 3.05359 9.32707 2.4516 9.32707L2.4516 9.32707Z" transform="translate(475.1084 85.103226)" id="Shape" fill="#FFAD93" fill-rule="evenodd" stroke="none" />
          <path d="M0.221008 20.43L0 20.968L8.16296 0L20.217 1.552L16.832 25.371L0.221008 20.43L0.221008 20.43Z" transform="translate(511.919 108.622)" id="Shape" fill="#FFAD93" fill-rule="evenodd" stroke="none" />
          <path d="M0.341644 24.3435L4.99261 7.77802C5.70966 5.01182 7.29163 2.90041 9.73865 1.44341C10.9196 0.746513 12.1536 0.303116 13.4396 0.113014C14.8107 -0.0979843 16.2236 -0.013588 17.6796 0.366615C19.4937 0.831215 21.0226 1.67571 22.2676 2.90041C22.9207 3.55482 23.5007 4.30462 24.0076 5.14912C25.4417 7.59852 25.8317 10.1536 25.1777 12.8145C25.1356 12.8985 25.1146 12.9835 25.1146 13.0675L21.5076 26.8135C20.4957 30.4035 19.7576 33.2125 19.2936 35.2395L2.49365 30.2665C0.215637 29.2315 -0.501343 27.2575 0.341644 24.3435L0.341644 24.3435Z" transform="translate(509.61536 87.826485)" id="Shape" fill="#FFAD93" fill-rule="evenodd" stroke="none" />
          <path d="M2.77069 7.31668C1.77869 7.04218 1.01971 6.47178 0.492676 5.60638C0.00671387 4.71968 -0.119324 3.77978 0.112671 2.78738C0.386719 1.77378 0.966675 1.01368 1.85272 0.506882C2.71771 -2.28882e-05 3.65668 -0.126617 4.6687 0.126579L14.6657 3.80108C17.1977 4.56118 19.1167 6.10228 20.4247 8.42538C21.8587 10.8745 22.2487 13.4296 21.5947 16.0904C21.5527 16.1744 21.5317 16.2594 21.5317 16.3434L19.7597 22.9954L7.4527 20.1444L9.9527 9.18548L2.77069 7.31668L2.77069 7.31668Z" transform="translate(513.1983 84.55062)" id="Shape" fill="#440063" fill-rule="evenodd" stroke="none" />
          <path d="M7.18207 4.57513C6.92908 5.54613 6.38007 6.28513 5.53705 6.79213C4.67206 7.34113 3.73303 7.47813 2.72107 7.20413C1.77203 6.95113 1.03406 6.37013 0.506042 5.46214C6.10352e-05 4.59613 -0.126953 3.68813 0.127075 2.73814C0.380066 1.74613 0.939026 1.00713 1.80304 0.521133C2.71106 -0.00686646 3.63806 -0.133865 4.58807 0.141136C5.57904 0.394135 6.32806 0.954132 6.83405 1.81913C7.34003 2.68513 7.45605 3.60413 7.18207 4.57513L7.18207 4.57513Z" transform="translate(526.15594 102.24187)" id="Shape" fill="#FFAD93" fill-rule="evenodd" stroke="none" />
          <path d="M5.22003 9.5652C4.60803 10.1352 3.88098 10.4102 3.03702 10.3882C2.172 10.3882 1.466 10.0822 0.916992 9.4702C0.326019 8.8582 0.0209961 8.11919 0 7.2532C0.0419922 6.4082 0.369019 5.7012 0.981018 5.1312L5.41003 0.855095C6.00098 0.284798 6.71802 0 7.56104 0C8.44702 0.0208969 9.17499 0.337296 9.74402 0.949799C10.335 1.5624 10.62 2.29089 10.599 3.1352C10.577 3.98019 10.261 4.7092 9.64899 5.3212L5.22003 9.5652L5.22003 9.5652Z" transform="translate(508.344 97.4418)" id="Shape" fill="#FFAD93" fill-rule="evenodd" stroke="none" />
          <path d="M2.27814 2.1861C3.76514 0.719101 5.55817 -0.00989533 7.65613 9.91821e-05L42.4901 0.190102C44.5701 0.205101 46.3531 0.955101 47.8372 2.4391C49.3041 3.9471 50.0322 5.7421 50.0201 7.82411C50.0062 9.9251 49.2581 11.7091 47.7742 13.1761C46.2651 14.6641 44.4722 15.4031 42.3951 15.3931L7.56116 15.2041C5.46014 15.1881 3.67816 14.4281 2.21411 12.9231C0.727112 11.4361 -0.0118408 9.64111 0.00012207 7.5391C0.0131226 5.45811 0.773132 3.6741 2.27814 2.1861L2.27814 2.1861Z" transform="translate(521.97986 122.9069)" id="Shape" fill="#9C006D" fill-rule="evenodd" stroke="none" />
          <path d="M44.6439 18.149C44.1538 20.198 43.0258 21.782 41.2589 22.9L11.6139 41.334C9.81686 42.438 7.90787 42.745 5.88687 42.253C3.84387 41.786 2.27185 40.657 1.17285 38.863C0.164856 37.271 -0.193146 35.571 0.0978699 33.764L5.06485 0L20.0929 2.217L17.4989 19.764L33.2549 9.977C35.0309 8.873 36.9389 8.556 38.9809 9.027C41.0039 9.514 42.5749 10.644 43.6949 12.416C44.7949 14.212 45.1109 16.123 44.6439 18.149L44.6439 18.149Z" transform="translate(468.09714 113.69)" id="Shape" fill="#9C006D" fill-rule="evenodd" stroke="none" />
          <path d="M28.667 0.000762939C28.745 -0.000244141 28.824 -0.000244141 28.902 0.000762939C29.207 0.00775147 29.497 0.0517578 29.772 0.133759C29.957 0.201752 30.139 0.284759 30.316 0.38475L30.552 0.531754C30.636 0.598755 30.719 0.667755 30.802 0.738754L58.158 22.8748L54.46 27.4608L31.686 9.04175L31.347 27.7848L25.455 27.6818L25.794 9.21776L3.71201 27.0918L0 22.5058L26.987 0.650757C27.042 0.607758 27.101 0.563751 27.164 0.516754L27.547 0.295761C27.557 0.290756 27.572 0.286758 27.591 0.281754C27.826 0.164749 28.076 0.0807495 28.342 0.0307617L28.445 0.0157623C28.52 0.0117493 28.593 0.00775147 28.667 0.000762939L28.667 0.000762939Z" transform="translate(478.681 213.63824)" id="Shape" fill="#8C9B9B" fill-rule="evenodd" stroke="none" />
          <path d="M46.2561 0.854965C46.6361 1.33496 46.7931 1.87596 46.7271 2.47797L44.0611 25.041C44.0531 25.067 44.0481 25.092 44.0461 25.115C42.6021 35.043 36.7931 40.913 26.6191 42.723C26.4841 42.747 26.3521 42.757 26.2211 42.753L20.9041 42.753L20.9041 66.924L12.5951 66.924L12.5951 42.753L2.21008 42.753C1.59708 42.758 1.07709 42.542 0.648102 42.104C0.21109 41.675 -0.00491333 41.154 9.15527e-05 40.54C-0.00491333 39.927 0.21109 39.401 0.648102 38.963C1.07709 38.534 1.59708 38.318 2.21008 38.313L12.5951 38.313L12.5951 36.397L20.9041 36.397L20.9041 38.313L26.0301 38.313C33.9561 36.844 38.4981 32.227 39.6561 24.466L42.3221 1.96196C42.3901 1.35997 42.6661 0.868958 43.1471 0.486969C43.6271 0.105957 44.1721 -0.0520325 44.7831 0.0149689C45.3841 0.0919647 45.8751 0.372971 46.2561 0.854965L46.2561 0.854965Z" transform="translate(490.8189 155.69704)" id="Shape" fill="#616B6A" fill-rule="evenodd" stroke="none" />
          <path d="M1.561 1.54799C2.59302 0.515991 3.845 0 5.31802 0L41.423 0C42.897 0 44.154 0.515991 45.195 1.54799C46.226 2.59 46.741 3.849 46.741 5.323L46.741 5.338C46.741 6.81299 46.226 8.067 45.195 9.099C44.154 10.141 42.897 10.662 41.423 10.662L5.31802 10.662C3.845 10.662 2.59302 10.141 1.561 9.099C0.52002 8.067 0 6.81299 0 5.338L0 5.323C0 3.849 0.52002 2.59 1.561 1.54799L1.561 1.54799Z" transform="translate(484.102 183.378)" id="Shape" fill="#8C9C9C" fill-rule="evenodd" stroke="none" />
          <path d="M21.788 47.2361L21.773 47.2361C17.975 46.8591 10.717 45.8851 0 44.3161L11.534 9.15527e-05C15.47 -0.00590515 20.901 0.269089 27.827 0.82608L27.842 0.82608C29.305 1.01309 30.484 1.68608 31.377 2.84709C32.271 4.01709 33.934 5.73509 33.737 7.19009L27.753 42.6351C27.557 44.0901 26.88 45.2701 25.721 46.1741C24.562 47.0691 23.251 47.4231 21.788 47.2361L21.788 47.2361Z" transform="translate(523.625 129.51991)" id="Shape" fill="#8C9C9C" fill-rule="evenodd" stroke="none" />
          <path d="M10.842 5.427C10.842 6.93199 10.316 8.215 9.26599 9.27699C8.20502 10.328 6.92401 10.854 5.42102 10.854C3.91901 10.854 2.63702 10.328 1.57599 9.27699C0.525024 8.215 0 6.93199 0 5.427C0 3.923 0.525024 2.645 1.57599 1.593C2.63702 0.531006 3.91901 0 5.42102 0C6.92401 0 8.20502 0.531006 9.26599 1.593C10.316 2.645 10.842 3.923 10.842 5.427L10.842 5.427Z" transform="translate(529.768 234.595)" id="Shape" fill="#00CBBD" fill-rule="evenodd" stroke="none" />
          <path d="M1.591 9.276C0.529999 8.214 0 6.936 0 5.442C0 3.93701 0.529999 2.65401 1.591 1.59201C2.65201 0.531006 3.93301 0 5.436 0C6.92902 0 8.20502 0.531006 9.26599 1.59201C10.326 2.65401 10.856 3.93701 10.856 5.442C10.856 6.936 10.326 8.214 9.26599 9.276C8.20502 10.338 6.92902 10.869 5.436 10.869C3.93301 10.869 2.65201 10.338 1.591 9.276L1.591 9.276Z" transform="translate(501.676 234.566)" id="Shape" fill="#00CBBD" fill-rule="evenodd" stroke="none" />
          <path d="M9.26498 9.276C8.20499 10.338 6.92297 10.869 5.42099 10.869C3.918 10.869 2.64099 10.338 1.59 9.276C0.529999 8.214 0 6.936 0 5.442C0 3.93701 0.529999 2.65401 1.59 1.59201C2.64099 0.531006 3.918 0 5.42099 0C6.92297 0 8.20499 0.531006 9.26498 1.59201C10.326 2.65401 10.856 3.93701 10.856 5.442C10.856 6.936 10.326 8.214 9.26498 9.276L9.26498 9.276Z" transform="translate(473.614 234.566)" id="Shape" fill="#00CBBD" fill-rule="evenodd" stroke="none" />
          <path d="M3.35568 2.2823C5.35468 0.577301 7.65466 -0.172699 10.2527 0.0332947L72.4227 5.0383C75.0257 5.2543 77.1767 6.36231 78.8766 8.3633C80.5817 10.3633 81.3307 12.6653 81.1237 15.2683C80.9097 17.8733 79.8017 20.0263 77.8007 21.7293C75.8017 23.4353 73.5027 24.1843 70.9037 23.9783L8.73468 18.9743C6.13168 18.7583 3.98068 17.6493 2.28067 15.6483C0.574677 13.6483 -0.17334 11.3463 0.0336609 8.7433C0.247681 6.1393 1.35468 3.98529 3.35568 2.2823L3.35568 2.2823Z" transform="translate(444.21033 167.0267)" id="Shape" fill="#007E8A" fill-rule="evenodd" stroke="none" />
          <path d="M0.758606 23.4257C0.0226135 22.2457 -0.177368 20.9787 0.156616 19.6247C0.473633 18.2667 1.2326 17.2107 2.43463 16.4577L28.0306 0.747711C29.2096 0.028717 30.4756 -0.17128 31.8266 0.145721C33.1806 0.482712 34.2256 1.24272 34.9596 2.42572C35.6946 3.62772 35.9056 4.90472 35.5926 6.25871C35.2546 7.61671 34.4956 8.66171 33.3146 9.39471L7.71863 25.1047C6.51761 25.8437 5.24161 26.0447 3.89063 25.7067C2.53662 25.3907 1.49261 24.6297 0.758606 23.4257L0.758606 23.4257Z" transform="translate(412.76538 218.54228)" id="Shape" fill="#FFFFFF" fill-rule="evenodd" stroke="none" />
          <path d="M13.541 5.89635L14.902 7.57535C14.965 7.61736 17.418 11.1953 22.564 18.7554L14.649 23.8553L0 1.90535C4.87299 -1.59966 9.38599 -0.268646 13.541 5.89635L13.541 5.89635Z" transform="translate(401.121 222.92665)" id="Shape" fill="#9C006D" fill-rule="evenodd" stroke="none" />
          <path d="M40.213 21.1263C40.296 21.0633 40.381 21.0103 40.465 20.9683C40.803 20.7573 41.151 20.5773 41.51 20.4303L87.638 0.792328C90.064 -0.242676 92.489 -0.263672 94.915 0.729324C97.341 1.70033 99.06 3.39932 100.072 5.82832C101.106 8.23532 101.137 10.6533 100.167 13.0813C99.197 15.5093 97.499 17.2413 95.073 18.2753L49.482 37.6923L9.52298 64.0443L0 47.6053L40.213 21.1263L40.213 21.1263Z" transform="translate(424.502 172.00067)" id="Shape" fill="#007E8A" fill-rule="evenodd" stroke="none" />
          <path d="M17.844 8.931C17.844 11.402 16.979 13.513 15.25 15.266C13.752 16.744 11.991 17.599 9.966 17.832C9.629 17.853 9.28101 17.863 8.922 17.863C6.43301 17.863 4.32401 16.997 2.59399 15.266C0.86499 13.513 0 11.402 0 8.931C0 6.461 0.86499 4.349 2.59399 2.59601C4.32401 0.865005 6.43301 0 8.922 0C11.39 0 13.499 0.865005 15.25 2.59601C15.503 2.85001 15.724 3.114 15.914 3.388C17.201 4.972 17.844 6.82001 17.844 8.931L17.844 8.931Z" transform="translate(479.616 185.463)" id="Shape" fill="#333333" fill-rule="evenodd" stroke="none" />
          <path d="M27.1488 21.0738C25.8128 21.4798 24.5268 21.3538 23.2888 20.6938L2.66083 9.54475C1.43582 8.87476 0.62381 7.87076 0.224823 6.53575C-0.177185 5.19576 -0.0401917 3.90776 0.63681 2.67076C1.28781 1.44276 2.27982 0.629761 3.6098 0.232758C4.94681 -0.17424 6.23282 -0.0472412 7.46982 0.611755L28.0988 11.7618C29.3228 12.4318 30.1348 13.4348 30.5338 14.7708C30.9368 16.1098 30.8098 17.3978 30.1548 18.6348C29.4818 19.8628 28.4798 20.6758 27.1488 21.0738L27.1488 21.0738Z" transform="translate(473.00018 182.37924)" id="Shape" fill="#FFFFFF" fill-rule="evenodd" stroke="none" />
          <path d="M1.08206 5.22121C2.28409 2.8772 4.13007 1.3042 6.61908 0.502197C9.10806 -0.321808 11.5221 -0.131805 13.8641 1.0722L47.7171 18.5242C49.2781 19.3262 50.4901 20.4352 51.3551 21.8502C51.1651 21.5752 50.9441 21.3112 50.6911 21.0582C48.9401 19.3262 46.8311 18.4612 44.3631 18.4612C41.8741 18.4612 39.7651 19.3262 38.0361 21.0582C36.3061 22.8102 35.4411 24.9222 35.4411 27.3922C35.4411 29.8632 36.3061 31.9752 38.0361 33.7272C39.7651 35.4592 41.8741 36.3242 44.3631 36.3242C44.7221 36.3242 45.0691 36.3142 45.4071 36.2932C43.2351 36.7782 41.1151 36.4932 39.0481 35.4382L5.19507 17.9852C2.87506 16.7822 1.30307 14.9342 0.481079 12.4432C-0.320923 9.9512 -0.119934 7.5442 1.08206 5.22121L1.08206 5.22121Z" transform="translate(444.17493 167.0018)" id="Shape" fill="#00CCBE" fill-rule="evenodd" stroke="none" />
          <path d="M0 47.796L14.111 0L47.964 0.57L33.775 61.239L0 47.796L0 47.796Z" transform="translate(491.322 122.527)" id="Shape" fill="#9C006D" fill-rule="evenodd" stroke="none" />
          <path d="M1.198 13.683L1.32401 13.334C1.388 13.208 1.44 13.081 1.48199 12.954L6.45001 0L14.77 3.959L5.50101 29.551C0.122009 26.173 -1.31198 20.883 1.198 13.683L1.198 13.683Z" transform="translate(492.624 192.209)" id="Shape" fill="#9C006D" fill-rule="evenodd" stroke="none" />
          <path d="M13.7631 2.21933C14.5551 3.37132 14.829 4.62833 14.585 5.98833L12.4661 17.3283L14.744 21.9523C15.126 22.7533 15.295 23.5873 15.2501 24.4543C15.2031 25.3403 14.95 26.1533 14.491 26.8933L11.548 31.5493C10.7891 32.7363 9.73407 33.4863 8.38403 33.7983C7.01703 34.1113 5.74005 33.8893 4.55603 33.1323C3.37103 32.3943 2.62207 31.3383 2.31006 29.9653C2.23004 29.6273 2.18805 29.2893 2.18304 28.9523C1.66803 28.8693 1.21405 28.6373 0.823059 28.2543C0.324036 27.7633 0.0710449 27.1613 0.0640259 26.4503L6.10352e-05 19.5763C-0.00396729 18.9363 0.218018 18.3663 0.664063 17.8663L2.40503 15.9343L4.62006 4.15233C4.87402 2.77232 5.58105 1.68532 6.73901 0.889328C7.89203 0.100327 9.15802 -0.163681 10.5361 0.0973205C11.895 0.356323 12.9711 1.06332 13.7631 2.21933L13.7631 2.21933Z" transform="translate(548.61896 157.36568)" id="Shape" fill="#FFAD93" fill-rule="evenodd" stroke="none" />
          <path d="M14.933 40.099L0 37.312L6.992 0L21.925 2.78799L14.933 40.099L14.933 40.099Z" transform="translate(549.727 130.35)" id="Shape" fill="#9C006D" fill-rule="evenodd" stroke="none" />
          <path d="M0.0205688 2.14812C-0.0614319 2.82603 0.101593 3.43272 0.51059 3.96853L12.2986 19.0419C12.7256 19.5741 13.2706 19.8809 13.9326 19.9623C14.6106 20.0457 15.2166 19.8754 15.7506 19.4511C16.2836 19.0382 16.5896 18.4925 16.6706 17.815C16.7526 17.1507 16.5826 16.5506 16.1596 16.0148L4.37158 0.941429C3.95758 0.409225 3.41357 0.102425 2.73758 0.0209274C2.07358 -0.0619736 1.47458 0.101326 0.939575 0.512024C0.407593 0.93853 0.100586 1.48383 0.0205688 2.14812L0.0205688 2.14812Z" transform="translate(314.61142 68.92407)" id="Shape" fill="#C2826E" fill-rule="evenodd" stroke="none" />
          <path d="M3.63702 0L0 6.7085L12.994 19.7979L16.283 13.5397L3.63702 0L3.63702 0Z" transform="translate(314.386 71.7677)" id="Shape" fill="#C2826E" fill-rule="evenodd" stroke="none" />
          <path d="M0.817017 0L0 0L0 3.1706L4.35202 4.4181C4.78601 4.5421 5.202 4.4944 5.59802 4.2746C5.992 4.0536 6.25101 3.7263 6.37402 3.2932C6.49902 2.8583 6.45102 2.4425 6.23203 2.0454C6.01001 1.6512 5.68301 1.3921 5.25101 1.2684L0.817017 0L0.817017 0Z" transform="translate(318.227 80.9712)" id="Shape" fill="#C2826E" fill-rule="evenodd" stroke="none" />
          <path d="M30.584 46.8368L0 1.3704L2.034 0L32.617 45.4664L30.584 46.8368L30.584 46.8368Z" transform="translate(289.875 35.474396)" id="Shape" fill="#440063" fill-rule="evenodd" stroke="none" />
          <path d="M2.62149 0.0876999C2.08749 -0.0698013 1.5705 -0.0150986 1.06851 0.251297C0.577515 0.529495 0.249512 0.9384 0.0874939 1.4786C-0.0694885 2.0148 -0.0155029 2.5264 0.251495 3.0127C0.526489 3.5181 0.928497 3.8521 1.45651 4.0146L1.76251 4.0965C1.67551 4.1358 1.58749 4.1769 1.4975 4.2194C1.0025 4.4976 0.675507 4.9065 0.51651 5.4463C0.359497 5.9862 0.413513 6.5044 0.680511 7.00059C0.957489 7.4957 1.36551 7.8227 1.90649 7.9827L3.27451 8.37099C3.01151 8.3798 2.7525 8.4547 2.4985 8.5964C2.10449 8.8169 1.84549 9.14429 1.7225 9.5777C1.5975 10.0127 1.64551 10.4285 1.86551 10.8256C2.08649 11.2197 2.41351 11.4785 2.84549 11.6025L7.7905 13.014L7.7905 9.8435L8.60651 9.8435L6.40051 9.2093C6.73749 9.21329 7.06351 9.1249 7.38049 8.9439C7.87649 8.6789 8.20349 8.2767 8.36151 7.7372C8.5195 7.197 8.45749 6.67879 8.17749 6.1826C7.91449 5.6878 7.51251 5.3605 6.9725 5.20119L6.31851 4.9964C6.41351 4.9711 6.5015 4.93 6.5845 4.8738C7.08951 4.6088 7.42349 4.207 7.58551 3.6671C7.7435 3.1305 7.68149 2.6123 7.40149 2.1128C7.1405 1.62099 6.73849 1.2936 6.1965 1.1311L2.62149 0.0876999L2.62149 0.0876999Z" transform="translate(310.4375 71.1276)" id="Shape" fill="#C2826E" fill-rule="evenodd" stroke="none" />
          <path d="M15.976 10.5742L15.955 10.5948L6.72101 0L0 7.4036L13.831 21.7206C14.497 22.2216 15.212 22.5346 15.976 22.6616L15.976 10.5742L15.976 10.5742Z" transform="translate(323.805 82.6074)" id="Shape" fill="#FB5058" fill-rule="evenodd" stroke="none" />
          <path d="M29.501 6.4626L21.574 0L0 26.5064L0 38.5935C0.108002 38.6165 0.21698 38.6305 0.326996 38.6345C0.709991 38.6845 1.10498 38.6845 1.51099 38.6345C1.621 38.6075 1.73599 38.5865 1.85901 38.5735C3.05701 38.3275 4.04498 37.7275 4.82098 36.7735L29.501 6.4626L29.501 6.4626Z" transform="translate(339.781 66.6755)" id="Shape" fill="#C84046" fill-rule="evenodd" stroke="none" />
          <path d="M13.9285 17.385L16.1355 17.282L15.7055 0L6.10355 12.926L3.10052 13.376C0.812531 13.867 -0.209473 15.298 0.035553 17.671L6.92053 17.467L13.0096 9.776L13.9285 17.385L13.9285 17.385Z" transform="translate(363.72946 225.469)" id="Shape" fill="#440063" fill-rule="evenodd" stroke="none" />
          <path d="M12.912 2.311L0 0L6.108 47.797L0.530975 58.535L3.534 58.085L13.136 45.159L12.912 2.311L12.912 2.311Z" transform="translate(366.299 180.31)" id="Shape" fill="#C2826E" fill-rule="evenodd" stroke="none" />
          <path d="M14.9141 17.487L17.0391 17.18L17.6921 0L5.98611 12.926L2.90112 13.376C0.954132 13.608 -0.0128784 15.005 0.00012207 17.569L6.31311 17.466L14.0151 9.653L14.9141 17.487L14.9141 17.487Z" transform="translate(329.19788 225.469)" id="Shape" fill="#440063" fill-rule="evenodd" stroke="none" />
          <path d="M23.515 0L9.13199 1.146L7.35501 48.943L0 59.681L3.08499 59.231L14.791 46.305L23.515 0L23.515 0Z" transform="translate(332.099 179.164)" id="Shape" fill="#C2826E" fill-rule="evenodd" stroke="none" />
          <path d="M0 12.3128C0 15.7216 1.20499 18.6327 3.616 21.0461C5.79498 23.2276 8.383 24.4274 11.379 24.6457L11.379 0C8.383 0.2048 5.79498 1.391 3.616 3.5589C1.20499 5.9863 0 8.904 0 12.3128L0 12.3128Z" transform="translate(346.584 57.4712)" id="Shape" fill="#FABE00" fill-rule="evenodd" stroke="none" />
          <path d="M11.012 0L0 3.6609L5.29099 15.5847C5.83701 19.4027 4.754 22.8111 2.043 25.811L19.613 17.63L11.012 0L11.012 0Z" transform="translate(347.401 49.0859)" id="Shape" fill="#C2826E" fill-rule="evenodd" stroke="none" />
          <path d="M32.443 7.711C30.373 4.67 28.841 2.1 27.846 0L4.29001 0C4.27701 0.245003 4.263 0.484001 4.25 0.716003C3.47299 13.656 2.05701 39.705 0 78.865L41.636 79.99C40.969 75.722 40.145 63.88 39.164 44.464C38.183 25.034 35.943 12.783 32.443 7.711L32.443 7.711Z" transform="translate(339.086 111.18)" id="Shape" fill="#9C006D" fill-rule="evenodd" stroke="none" />
          <path d="M26.3156 3.4565C25.9885 3.102 24.9125 1.9503 23.0875 0L9.44055 11.8625C10.9935 10.8264 8.41953 12.5169 9.44055 11.8625C9.11353 12.0944 8.80753 12.3264 8.52155 12.558C7.17255 13.5944 5.90652 14.6782 4.72153 15.81C3.78152 16.7099 2.98453 17.6238 2.33054 18.5508C1.36353 19.8188 0.689545 21.1074 0.308533 22.4162C-0.23645 24.2299 -0.0594482 26.3637 0.839539 28.8179C1.72455 31.2449 2.09253 34.5447 1.94254 38.7172C1.95654 41.0892 1.92255 43.5232 1.84055 46.0182C1.81354 47.2182 1.75855 48.4322 1.67654 49.6592L25.2325 49.6592C24.5375 48.2272 24.1025 47.0142 23.9245 46.0182C23.0266 42.4592 23.4625 38.4372 25.2325 33.9516C28.1615 26.534 29.9385 21.5298 30.5645 18.9395C30.5786 18.8026 30.5925 18.6734 30.6055 18.5508C31.2735 13.8194 30.5445 9.688 28.4195 6.1562C27.9025 5.3246 27.2005 4.4247 26.3156 3.4565L26.3156 3.4565Z" transform="translate(341.69946 61.520798)" id="Shape" fill="#FB5058" fill-rule="evenodd" stroke="none" />
          <path d="M10.3007 5.46526L8.05374 6.95726L8.11475 4.58526C8.12872 4.07226 8.02673 3.58126 7.80875 3.11326C7.58774 2.64926 7.27472 2.25326 6.86874 1.92626L5.29575 0.699257C4.58774 0.146255 3.78473 -0.078743 2.88574 0.0242615C1.99774 0.131256 1.26874 0.54026 0.699738 1.25126C0.144745 1.96026 -0.0792542 2.75825 0.0247192 3.64426C0.131744 4.54526 0.540741 5.27426 1.25073 5.83326L1.53674 6.05826L1.37372 13.1143C1.35672 13.9453 1.61475 14.6753 2.14972 15.3023C2.69772 15.9453 3.37872 16.3203 4.19272 16.4273C5.02072 16.5493 5.77673 16.3783 6.46072 15.9163L13.9587 10.9053C14.7107 10.3983 15.1737 9.70325 15.3477 8.81926C15.5197 7.93426 15.3497 7.11726 14.8367 6.36526C14.3407 5.61326 13.6537 5.14926 12.7727 4.97426C11.8887 4.79826 11.0647 4.96226 10.3007 5.46526L10.3007 5.46526Z" transform="translate(360.59427 102.48374)" id="Shape" fill="#C2826E" fill-rule="evenodd" stroke="none" />
          <path d="M8.60098 0L0 6.25861L19.589 32.8082L7.37198 42.1132L13.787 50.5812L30.151 38.1252C31.301 37.2472 31.982 36.0952 32.194 34.6692C32.408 33.2392 32.088 31.9374 31.234 30.7622L8.60098 0L8.60098 0Z" transform="translate(361.256 67.3278)" id="Shape" fill="#FB5058" fill-rule="evenodd" stroke="none" />
          <path d="M10.113 1.6361L2.125 0L0 11.3101L0.735992 21.2296C1.28101 24.093 2.97598 25.2586 5.823 24.7271L20.206 20.9844L10.113 1.6361L10.113 1.6361Z" transform="translate(341.803 36.896194)" id="Shape" fill="#C2826E" fill-rule="evenodd" stroke="none" />
          <path d="M1.83194 4.10775C0.701935 5.43045 0.115936 6.69845 0.0759583 7.91185C-0.197052 9.32995 0.265961 10.714 1.46494 12.0638L3.62994 14.3753C5.48294 16.8702 6.79694 19.4745 7.57294 22.1881C8.32196 24.9011 9.46594 26.6737 11.0049 27.5057C12.558 28.3509 14.2469 28.835 16.072 28.9576C17.857 29.0941 19.6129 30.5119 21.343 33.212L22.0989 32.1282C23.1339 30.6282 24.033 29.0941 24.796 27.5263C27.261 22.4403 28.085 17.8519 27.2679 13.7616C26.2599 8.68915 23.917 4.93285 20.24 2.49225C16.412 -0.0577469 12.2039 -0.650846 7.61395 0.712553C4.91696 1.62605 2.98996 2.75795 1.83194 4.10775L1.83194 4.10775Z" transform="translate(343.15805 28.820549)" id="Shape" fill="#FABE00" fill-rule="evenodd" stroke="none" />
          <path d="M4.79767 0C4.36169 1.5136 4.22568 1.7114 4.38968 0.593102L0.854675 5.543C-0.507324 7.4382 -0.241303 8.7264 1.65167 9.4083L4.73669 10.0627L4.79767 0L4.79767 0Z" transform="translate(339.74332 42.4181)" id="Shape" fill="#C2826E" fill-rule="evenodd" stroke="none" />
          <path d="M42.004 14.215L41.392 6.483L0 0L0.163986 14.358L42.004 14.215L42.004 14.215Z" transform="translate(187.169 129.587)" id="Shape" fill="#A76854" fill-rule="evenodd" stroke="none" />
          <path d="M41.392 34.155L49.155 0L7.784 2.106L0 27.672L41.392 34.155L41.392 34.155Z" transform="translate(187.169 101.915)" id="Shape" fill="#FFAD93" fill-rule="evenodd" stroke="none" />
          <path d="M13.356 0L0.440002 0L0 38.185L14.63 38.185C14.215 38.114 13.791 38.049 13.356 37.988L13.356 0L13.356 0Z" transform="translate(194.78 201.26)" id="Shape" fill="#FABE00" fill-rule="evenodd" stroke="none" />
          <path d="M76.8977 12.1558C76.8967 9.79279 76.2547 7.61179 74.9727 5.61478C73.7027 3.62479 71.9897 2.12778 69.8327 1.12178C67.6727 0.128784 65.4237 -0.205215 63.0867 0.120773L10.4517 7.46678C7.15866 7.93977 4.50166 9.51279 2.47766 12.1858C0.450668 14.8678 -0.332336 17.8628 0.12767 21.1708C0.590668 24.4768 2.15666 27.1428 4.82767 29.1688C7.50566 31.1978 10.4977 31.9818 13.8017 31.5218L52.6417 26.1028L52.6417 67.7028L76.8977 67.7028L76.8977 12.1558L76.8977 12.1558Z" transform="translate(139.74333 151.55722)" id="Shape" fill="#440063" fill-rule="evenodd" stroke="none" />
          <path d="M30.323 7.72707L29.808 5.14707C29.484 3.42687 28.6 2.08137 27.155 1.11027C25.709 0.13887 24.128 -0.195129 22.41 0.108368L12.146 2.11147C10.448 2.44547 9.10901 3.34617 8.129 4.81347C7.158 6.26017 6.845 7.83867 7.18901 9.54857L7.59801 19.6865L0 29.6186L13.48 39.5986L21.409 27.9426L27.564 26.7286C29.282 26.4046 30.626 25.5246 31.597 24.0877C32.567 22.6306 32.885 21.0422 32.551 19.3224L32.006 16.4084C32.026 16.4084 32.041 16.4135 32.051 16.4234C32.83 16.4234 33.502 16.1555 34.068 15.6193C34.623 15.0526 34.901 14.3847 34.901 13.6158C34.911 12.8165 34.643 12.1437 34.098 11.5972L30.323 7.72707L30.323 7.72707Z" transform="translate(134.092 74.60843)" id="Shape" fill="#BF836E" fill-rule="evenodd" stroke="none" />
          <path d="M23.543 0.0269928C22.664 -0.0739136 21.511 0.108093 20.086 0.57309C19.459 0.785591 18.019 1.35739 15.766 2.28809C13.633 3.14839 11.824 3.81119 10.338 4.27659C6.073 5.58169 3.213 6.87169 1.75801 8.14669C0.100006 9.62349 -0.384995 11.6017 0.302002 14.0805C0.919006 16.2561 1.49501 18.5378 2.03101 20.9252C2.30301 22.1293 2.51601 23.1107 2.66701 23.8697L3.774 24.3857C4.68401 24.7398 5.563 25.0129 6.412 25.2052C9.12001 25.8221 11.015 25.4225 12.097 24.0062C12.663 23.2575 12.84 22.377 12.628 21.3656C12.486 20.8088 12.132 19.9541 11.566 18.8005C10.99 17.7384 10.667 16.9593 10.596 16.4634C10.505 15.6744 10.833 15.0317 11.581 14.5359C12.329 14.0199 13.062 13.8529 13.779 14.035C14.285 14.1869 14.891 14.5561 15.599 15.1433C16.569 15.9625 17.125 16.4231 17.266 16.524C17.893 16.9185 18.474 17.04 19.01 16.8881C19.576 16.706 19.98 16.2711 20.222 15.5834C20.334 15.2292 20.475 14.4904 20.647 13.3674C20.779 12.2847 20.96 11.4703 21.193 10.9238C21.536 10.0944 22.067 9.49209 22.785 9.11819C24.745 8.06559 26.009 7.09449 26.575 6.20369C27.363 4.92879 27.252 3.37599 26.241 1.54459C25.493 0.65419 24.594 0.148491 23.543 0.0269928L23.543 0.0269928Z" transform="translate(139.023 70.42511)" id="Shape" fill="#440063" fill-rule="evenodd" stroke="none" />
          <path d="M15.9192 0.0874939C15.6022 -0.00250244 15.2792 -0.0235062 14.9492 0.0264969L7.79318 1.1355C7.20219 1.2275 6.71619 1.5105 6.33818 1.9845L0.486191 9.4515C0.10318 9.9505 -0.0538178 10.5125 0.0161896 11.1355C0.0991821 11.7585 0.387192 12.2645 0.88118 12.6535C1.38118 13.0465 1.94119 13.2025 2.56319 13.1245C3.18718 13.0535 3.69218 12.7695 4.07919 12.2745L9.38519 5.5205L14.6002 4.7015L19.3002 8.7985C19.7852 9.2175 20.3412 9.4055 20.9682 9.3605C21.5922 9.3165 22.1072 9.0535 22.5142 8.5715C22.9332 8.0965 23.1202 7.54549 23.0752 6.9165C23.0292 6.2925 22.7662 5.7715 22.2862 5.3545L16.7832 0.558495C16.5352 0.344498 16.2472 0.1875 15.9192 0.0874939L15.9192 0.0874939Z" transform="translate(174.96481 101.2795)" id="Shape" fill="#BF836E" fill-rule="evenodd" stroke="none" />
          <path d="M3.14259 0.278236C2.7196 0.541237 2.44659 0.91523 2.32359 1.40123L0.0496063 10.9172C-0.0614014 11.4042 0.0135956 11.8602 0.277603 12.2832C0.539597 12.7172 0.913605 12.9902 1.3996 13.1022C1.8856 13.2242 2.34061 13.1532 2.7636 12.8892C3.19659 12.6262 3.4706 12.2522 3.5816 11.7672L5.85561 2.25124C5.9776 1.76324 5.90759 1.30223 5.6436 0.869232C5.38159 0.445236 5.0076 0.172234 4.5226 0.0502319C4.0356 -0.0617676 3.57559 0.013237 3.14259 0.278236L3.14259 0.278236Z" transform="translate(183.4514 105.70277)" id="Shape" fill="#BF836E" fill-rule="evenodd" stroke="none" />
          <path d="M3.07196 8.28193C1.60696 8.28193 0.309967 7.22993 0.0469666 5.73593C-0.24704 4.06193 0.869965 2.46593 2.54297 2.17193L14.61 0.0469284C16.281 -0.24707 17.876 0.870934 18.17 2.54493C18.465 4.21893 17.347 5.81493 15.675 6.10893L3.60797 8.23393C3.42796 8.26593 3.24797 8.28193 3.07196 8.28193L3.07196 8.28193Z" transform="translate(176.71204 107.63807)" id="Shape" fill="#000000" fill-opacity="0.010196079" fill-rule="evenodd" stroke="none" />
          <path d="M7.534 0C2.53101 6.2229 0.0200043 12.3489 0 18.3789L23.876 20.0339L7.534 0L7.534 0Z" transform="translate(192.446 97.8611)" id="Shape" fill="#FABE00" fill-rule="evenodd" stroke="none" />
          <path d="M12.244 2.9897L9.63702 0C2.02702 6.8197 -1.07597 13.8407 0.328018 21.0647L4.71002 21.3687C4.73003 15.3387 7.24103 9.2127 12.244 2.9897L12.244 2.9897Z" transform="translate(187.73598 94.8713)" id="Shape" fill="#EEA892" fill-rule="evenodd" stroke="none" />
          <path d="M5.64 5.661C6.28699 5.014 6.60998 4.23 6.60998 3.309C6.60998 2.409 6.28699 1.629 5.64 0.972C4.99199 0.324005 4.215 0 3.30499 0C2.38499 0 1.60199 0.324005 0.954987 0.972C0.317993 1.629 0 2.409 0 3.309C0 4.23 0.317993 5.014 0.954987 5.661C1.60199 6.309 2.38499 6.632 3.30499 6.632C4.215 6.632 4.99199 6.309 5.64 5.661L5.64 5.661Z" transform="translate(196.751 101.989)" id="Shape" fill="#FB5058" fill-rule="evenodd" stroke="none" />
          <path d="M0.955002 5.661C1.60201 6.309 2.384 6.632 3.304 6.632C4.214 6.632 4.992 6.309 5.63901 5.661C6.286 5.013 6.60901 4.229 6.60901 3.308C6.60901 2.408 6.286 1.629 5.63901 0.971001C4.992 0.323997 4.214 0 3.304 0C2.384 0 1.60201 0.323997 0.955002 0.971001C0.318008 1.629 0 2.408 0 3.308C0 4.229 0.318008 5.013 0.955002 5.661L0.955002 5.661Z" transform="translate(202.573 109.608)" id="Shape" fill="#FB5058" fill-rule="evenodd" stroke="none" />
          <path d="M3.30501 6.632C4.214 6.632 4.993 6.308 5.63901 5.661C6.286 5.014 6.61 4.229 6.61 3.308C6.61 2.408 6.286 1.629 5.63901 0.971001C4.993 0.324005 4.214 0 3.30501 0C2.38499 0 1.60201 0.324005 0.955002 0.971001C0.319 1.629 0 2.408 0 3.308C0 4.229 0.319 5.014 0.955002 5.661C1.60201 6.308 2.38499 6.632 3.30501 6.632L3.30501 6.632Z" transform="translate(192.112 109.183)" id="Shape" fill="#FB5058" fill-rule="evenodd" stroke="none" />
          <path d="M9.30568 0.027977C8.06468 0.156975 7.04369 0.70298 6.24268 1.66698L1.01268 8.10197C0.225677 9.08797 -0.102325 10.202 0.0276794 11.441C0.154678 12.693 0.705673 13.715 1.67969 14.507C2.65468 15.305 3.76167 15.639 4.99968 15.508C6.25069 15.38 7.27068 14.828 8.06168 13.854L13.2927 7.41898C14.0897 6.44298 14.4227 5.32898 14.2927 4.07998C14.1657 2.83797 13.6147 1.81598 12.6407 1.01498C11.6657 0.225975 10.5537 -0.10302 9.30568 0.027977L9.30568 0.027977Z" transform="translate(170.72432 107.01502)" id="Shape" fill="#BF836E" fill-rule="evenodd" stroke="none" />
          <path d="M0.96344 6.16944C1.48444 6.53144 2.05544 6.65845 2.67644 6.54845L14.2134 4.53044C14.8294 4.42245 15.3194 4.10844 15.6834 3.58945C16.0454 3.07645 16.1714 2.50945 16.0624 1.88944C15.9554 1.27045 15.6424 0.780441 15.1224 0.417442C14.6114 0.0544434 14.0454 -0.0715561 13.4244 0.0384445L1.88744 2.05644C1.27144 2.16344 0.781433 2.47244 0.417435 2.98145C0.0544434 3.50545 -0.0715637 4.07745 0.0384369 4.69644C0.145432 5.31544 0.45343 5.80644 0.96344 6.16944L0.96344 6.16944Z" transform="translate(176.97456 105.669556)" id="Shape" fill="#BF836E" fill-rule="evenodd" stroke="none" />
          <path d="M47.951 14.479L39.643 0L0 22.841L8.30701 37.319L47.951 14.479L47.951 14.479Z" transform="translate(132.943 111.156)" id="Shape" fill="#00A198" fill-rule="evenodd" stroke="none" />
          <path d="M84.6982 4.61346C82.8812 2.32645 80.5562 0.878456 77.7242 0.272453C74.8892 -0.324547 72.1702 0.0594559 69.5682 1.42545L6.50317 34.6935C3.54218 36.2765 1.56618 38.6645 0.57518 41.8565C-0.414825 45.0474 -0.126831 48.1235 1.43918 51.0845C3.01317 54.0575 5.39317 56.0405 8.57918 57.0335C11.7672 58.0265 14.8452 57.7435 17.8122 56.1835L62.6852 32.5085L62.6092 36.5755C62.5492 39.9155 63.6812 42.7945 66.0052 45.2114C68.3322 47.6375 71.1632 48.8825 74.4952 48.9445C77.8342 49.0155 80.7092 47.8875 83.1212 45.5605C85.5452 43.2325 86.7932 40.3995 86.8652 37.0605L87.3502 12.4145C87.4112 9.51345 86.5272 6.91245 84.6982 4.61346L84.6982 4.61346Z" transform="translate(136.26382 120.854546)" id="Shape" fill="#440063" fill-rule="evenodd" stroke="none" />
          <path d="M24.044 9.485C24.044 6.86501 22.871 4.634 20.526 2.79201C18.172 0.930008 15.337 0 12.022 0C8.707 0 5.87199 0.930008 3.517 2.79201C1.172 4.634 0 6.86501 0 9.485C0 12.126 1.172 14.362 3.517 16.193C5.87199 18.045 8.707 18.971 12.022 18.971C15.337 18.971 18.172 18.045 20.526 16.193C22.871 14.362 24.044 12.126 24.044 9.485L24.044 9.485Z" transform="translate(198.843 150.54)" id="Shape" fill="#006D68" fill-rule="evenodd" stroke="none" />
          <path d="M0 17.681C4.416 26.099 9.85599 32.103 17.557 33.995L38.779 26.575L33.518 0L0 17.681L0 17.681Z" transform="translate(131.488 147.337)" id="Shape" fill="#440063" fill-rule="evenodd" stroke="none" />
          <path d="M24.1494 6.87577C17.4744 -0.283234 12.1185 -1.85223 8.07945 2.17077C-1.23855 14.2408 -2.49655 35.8578 4.30444 67.0198C5.53246 72.6438 12.2285 70.5108 15.7865 68.8418C20.0994 66.8188 24.4225 64.8188 28.7404 62.8068C29.7215 62.3498 44.3994 55.6338 44.3575 55.5318C44.3535 55.5228 24.1494 6.87577 24.1494 6.87577L24.1494 6.87577Z" transform="translate(126.12155 101.91323)" id="Shape" fill="#00CBBD" fill-rule="evenodd" stroke="none" />
          <path d="M12.446 14.6144L14.098 2.33641C9.806 -0.39859 5.71301 -0.73259 1.819 1.3354L0 14.4474L12.446 14.6144L12.446 14.6144Z" transform="translate(204.18 150.32759)" id="Shape" fill="#FABE00" fill-rule="evenodd" stroke="none" />
          <path d="M24.149 8.226C28.344 5.483 28.248 2.742 23.862 0L0 0.5L0.878998 8.226L24.149 8.226L24.149 8.226Z" transform="translate(203.558 170.983)" id="Shape" fill="#666666" fill-rule="evenodd" stroke="none" />
          <path d="M23.862 6.20801L13.068 0.167007L0.621002 0L0 6.70801L23.862 6.20801L23.862 6.20801Z" transform="translate(203.558 164.775)" id="Shape" fill="#8C9C9C" fill-rule="evenodd" stroke="none" />
          <path d="M17.294 50.969L0 5.864L15.258 0L33.692 48.08L17.294 50.969L17.294 50.969Z" transform="translate(133.273 115.752)" id="Shape" fill="#000000" fill-opacity="0.010196079" fill-rule="evenodd" stroke="none" />
          <path d="M10.291 0.507286C9.99101 0.612289 9.696 0.747292 9.40001 0.921288C6.272 2.77029 3.13501 4.60129 0 6.43629L6.246 13.0993C6.246 13.0993 23.078 3.87228 23.075 3.86829C22.957 3.71629 21.412 2.20529 21.218 2.06129C20.466 1.49929 19.632 1.05329 18.753 0.728287C16.752 -0.0107117 14.571 -0.114708 12.465 0.0962906C11.689 0.173286 10.98 0.26429 10.291 0.507286L10.291 0.507286Z" transform="translate(170.191 125.04071)" id="Shape" fill="#BF836E" fill-rule="evenodd" stroke="none" />
          <path d="M14.265 0L0 8.65L24.726 49.507C25.796 51.251 27.297 52.445 29.228 53.088C31.172 53.743 33.092 53.683 34.989 52.906C36.894 52.13 38.319 50.829 39.264 49.006L51.711 24.95L36.899 17.287L31.29 28.122L14.265 0L14.265 0Z" transform="translate(132.473 112.097)" id="Shape" fill="#00CBBD" fill-rule="evenodd" stroke="none" />
          <path d="M14.736 0L0.106003 0L0 9.395L29.425 9.683C28.516 4.726 23.619 1.498 14.736 0L14.736 0Z" transform="translate(194.674 232.099)" id="Shape" fill="#8C9C9C" fill-rule="evenodd" stroke="none" />
          <path d="M56.031 27.8808L59.852 23.1608L32.079 0.668747C32.022 0.624756 31.962 0.579758 31.897 0.531754C31.775 0.448746 31.644 0.372757 31.502 0.304749C31.418 0.260757 31.327 0.220749 31.23 0.182755L31.2 0.167755C31.034 0.112747 30.862 0.0667572 30.684 0.0317535L30.35 0.000747681C30.27 -0.000244141 30.189 -0.000244141 30.108 0.000747681C29.794 0.00775147 29.496 0.0527496 29.213 0.137756L28.653 0.395752L28.41 0.547745C28.324 0.615753 28.238 0.686752 28.152 0.75975L0 23.5397L3.805 28.2598L27.243 9.30475L27.591 28.5938L33.655 28.4877L33.307 9.48676L56.031 27.8808L56.031 27.8808Z" transform="translate(124.90799 209.22725)" id="Shape" fill="#8C9B9B" fill-rule="evenodd" stroke="none" />
          <path d="M4.54709 2.01846C4.47709 1.40045 4.19408 0.894455 3.69808 0.500458C3.20409 0.108459 2.64409 -0.0535431 2.01608 0.0154572C1.39709 0.095459 0.892082 0.383453 0.500084 0.880463C0.109085 1.37447 -0.0529175 1.93047 0.0150833 2.54945L2.75809 25.7705C2.76708 25.7975 2.77109 25.8225 2.77309 25.8465C4.26009 36.0635 10.2381 42.1035 20.7081 43.9674C20.8471 43.9915 20.9831 44.0015 21.1171 43.9975L38.6421 43.9975L38.6421 68.8715L47.1921 68.8715L47.1921 43.9975L51.1341 43.9975C51.7641 44.0025 52.3001 43.7805 52.7411 43.3295C53.1911 42.8885 53.4131 42.3515 53.4081 41.7215C53.4131 41.0895 53.1911 40.5485 52.7411 40.0975C52.3001 39.6565 51.7641 39.4335 51.1341 39.4295L47.1921 39.4295L47.1921 37.4565L38.6421 37.4565L38.6421 39.4295L21.3141 39.4295C13.1571 37.9165 8.48309 33.1655 7.29108 25.1785L4.54709 2.01846L4.54709 2.01846Z" transform="translate(112.11392 149.59854)" id="Shape" fill="#616B6A" fill-rule="evenodd" stroke="none" />
          <path d="M1.592 9.36499C2.664 10.437 3.957 10.973 5.47299 10.974L42.63 10.974C44.146 10.973 45.435 10.437 46.496 9.36499C47.567 8.30199 48.103 7.01199 48.103 5.495L48.103 5.47899C48.103 3.96199 47.567 2.66699 46.496 1.59399C45.435 0.531998 44.146 0 42.63 0L5.47299 0C3.957 0 2.664 0.531998 1.592 1.59399C0.530991 2.66699 0 3.96199 0 5.47899L0 5.495C0 7.01199 0.530991 8.30199 1.592 9.36499L1.592 9.36499Z" transform="translate(131.078 178.085)" id="Shape" fill="#8C9C9C" fill-rule="evenodd" stroke="none" />
          <path d="M1.13119 2.1344C0.211189 3.3384 -0.146812 4.6894 0.054184 6.18641L4.86018 43.0814C5.06219 44.5784 5.76019 45.7924 6.95219 46.7234C8.14519 47.6444 9.49419 48.0084 11.0002 47.8164L11.0152 47.8164C12.5212 47.6144 13.7342 46.9114 14.6542 45.7074C15.5742 44.5134 15.9322 43.1674 15.7302 41.6694L10.9242 4.7754C10.7222 3.2774 10.0252 2.0584 8.83218 1.1174C7.64019 0.207405 6.29018 -0.147598 4.78519 0.0554047L4.77019 0.0554047C3.26318 0.247406 2.05119 0.940399 1.13119 2.1344L1.13119 2.1344Z" transform="translate(113.60481 123.4546)" id="Shape" fill="#8C9C9C" fill-rule="evenodd" stroke="none" />
          <path d="M9.536 1.64C8.44399 0.546997 7.12499 0 5.579 0C4.033 0 2.714 0.546997 1.622 1.64C0.541 2.722 0 4.03699 0 5.58499C0 7.13399 0.541 8.45399 1.622 9.54599C2.714 10.629 4.033 11.17 5.579 11.17C7.12499 11.17 8.44399 10.629 9.536 9.54599C10.617 8.45399 11.158 7.13399 11.158 5.58499C11.158 4.03699 10.617 2.722 9.536 1.64L9.536 1.64Z" transform="translate(121.02701 230.794)" id="Shape" fill="#00CBBD" fill-rule="evenodd" stroke="none" />
          <path d="M5.57901 0C4.043 0 2.729 0.54599 1.63701 1.63899C0.546005 2.73199 0 4.05199 0 5.59999C0 7.13799 0.546005 8.45299 1.63701 9.54599C2.729 10.639 4.043 11.185 5.57901 11.185C7.125 11.185 8.444 10.639 9.536 9.54599C10.627 8.45299 11.173 7.13799 11.173 5.59999C11.173 4.05199 10.627 2.73199 9.536 1.63899C8.444 0.54599 7.125 0 5.57901 0L5.57901 0Z" transform="translate(149.922 230.764)" id="Shape" fill="#00CBBD" fill-rule="evenodd" stroke="none" />
          <path d="M1.63699 1.63899C0.546005 2.73199 0 4.05199 0 5.59999C0 7.13799 0.546005 8.45299 1.63699 9.54599C2.729 10.639 4.047 11.185 5.59399 11.185C7.14 11.185 8.45399 10.639 9.535 9.54599C10.627 8.45299 11.172 7.13799 11.172 5.59999C11.172 4.05199 10.627 2.73199 9.535 1.63899C8.45399 0.54599 7.14 0 5.59399 0C4.047 0 2.729 0.54599 1.63699 1.63899L1.63699 1.63899Z" transform="translate(178.802 230.764)" id="Shape" fill="#00CBBD" fill-rule="evenodd" stroke="none" />
          <path d="M1.83905 0.0399933L0 3.701L15.69 3.701L13.545 0L1.83905 0.0399933L1.83905 0.0399933ZM14.137 29.492L15.69 26.015L0 26.015L1.59302 29.492L14.137 29.492L14.137 29.492Z" transform="translate(528.165 215.591)" id="Shape" fill="#FFFFFF" fill-rule="evenodd" stroke="none" />
          <path d="M0 22.314L15.69 22.314L15.69 0L0 0L0 22.314L0 22.314Z" transform="translate(528.165 219.292)" id="Shape" fill="#FB5058" fill-rule="evenodd" stroke="none" />
          <path d="M13.5448 0L1.8385 0.0410004L0 3.70201L15.6902 3.70201L13.5448 0L13.5448 0ZM1.5933 29.493L14.1373 29.493L15.6902 26.016L0 26.016L1.5933 29.493L1.5933 29.493Z" transform="translate(24.711395 212.236)" id="Shape" fill="#FFFFFF" fill-rule="evenodd" stroke="none" />
          <path d="M0 22.314L15.6902 22.314L15.6902 0L0 0L0 22.314L0 22.314Z" transform="translate(24.711395 215.938)" id="Shape" fill="#FB5058" fill-rule="evenodd" stroke="none" />
          <path d="M0 1.10501L0 8.91701L23.106 6.23801L22.615 0L0 1.10501L0 1.10501Z" transform="translate(270.994 163.15)" id="Shape" fill="#CCCCCC" fill-rule="evenodd" stroke="none" />
          <path d="M19.306 1.26801L13.483 7.44501L13.81 15.83L0 15.237L0.428986 78.62L61.146 78.599L60.922 17.364L46.376 16.812L46.784 4.991L41.493 0L40.39 16.669L20.328 16.035L19.306 1.26801L19.306 1.26801Z" transform="translate(251.667 162.741)" id="Shape" fill="#FFFFFF" fill-rule="evenodd" stroke="none" />
          <path d="M18.366 19.737C18.08 19.737 17.794 19.641 17.508 19.451C17.277 19.287 17.14 19.021 17.099 18.653C17.004 18.38 17.059 18.094 17.263 17.794C17.481 17.576 17.767 17.446 18.121 17.405C18.489 17.391 18.768 17.467 18.959 17.63C19.19 17.889 19.353 18.162 19.449 18.448C19.463 18.789 19.381 19.062 19.204 19.267C19 19.594 18.72 19.75 18.366 19.737L18.366 19.737ZM13.994 19.267C13.817 19.525 13.552 19.669 13.197 19.696C12.857 19.778 12.544 19.696 12.258 19.451C11.985 19.287 11.849 19.021 11.849 18.653C11.794 18.326 11.883 18.039 12.114 17.794C12.264 17.576 12.503 17.426 12.83 17.344C13.13 17.316 13.429 17.391 13.729 17.569C13.906 17.814 14.035 18.101 14.117 18.428C14.226 18.728 14.185 19.008 13.994 19.267L13.994 19.267ZM13.586 2.39299L7.02701 4.929L10.644 15.38L0.796021 18.612L3.90201 27.161L22.023 28.736L25.067 19.205L24.536 0.347992L17.508 0L17.426 13.417L13.586 2.39299L13.586 2.39299ZM29.766 37.346L31.155 32.172L0 32.581L1.34802 38.655L29.766 37.346L29.766 37.346Z" transform="translate(269.727 190.352)" id="Shape" fill="#00CBBD" fill-rule="evenodd" stroke="none" />
        </g>
      </g>
    </g>
  </g>
</svg>