<svg width="572" height="254" viewBox="0 0 572 254" fill="none" xmlns="http://www.w3.org/2000/svg">
<g clip-path="url(#clip0)">
<path fill-rule="evenodd" clip-rule="evenodd" d="M559.341 244.449V234.836L16.2532 227.678L16.2737 254L559.341 244.449Z" fill="#007E8A"/>
<path fill-rule="evenodd" clip-rule="evenodd" d="M96.7719 137.983L80.3258 113.501L82.3597 112.131L97.1048 134.08L89.3563 106.605L91.7157 105.938L100.194 136.003L98.6834 136.43L98.8062 136.613L96.7719 137.983Z" fill="#BF836E"/>
<path fill-rule="evenodd" clip-rule="evenodd" d="M102.856 126.151C98.6059 126.151 94.9765 127.658 91.9664 130.671C88.9562 133.684 87.4513 137.318 87.4513 141.573C87.4513 145.827 88.9562 149.46 91.9664 152.474C94.9765 155.487 98.6059 156.993 102.856 156.993C107.105 156.993 110.734 155.487 113.745 152.474C116.754 149.46 118.26 145.827 118.26 141.573C118.26 137.318 116.754 133.684 113.745 130.671C110.734 127.658 107.105 126.151 102.856 126.151Z" fill="#FABE00"/>
<path fill-rule="evenodd" clip-rule="evenodd" d="M45.039 65.8364L46.7551 77.1876L59.0948 85.246L40.054 117.132L54.0284 121.938L70.0045 90.7479C72.7694 85.3073 71.6931 81.2031 66.7762 78.4351L45.039 65.8364Z" fill="#FFAD93"/>
<path fill-rule="evenodd" clip-rule="evenodd" d="M32.8831 89.9093C28.6335 89.4593 24.8472 90.5706 21.5243 93.2432C18.2007 95.8882 16.3146 99.3311 15.8651 103.572C15.3882 107.812 16.485 111.602 19.1543 114.943C21.8239 118.257 25.2765 120.138 29.5122 120.588C33.7343 121.066 37.507 119.975 40.8303 117.316C44.1535 114.643 46.0466 111.187 46.51 106.947C46.973 102.706 45.8699 98.9289 43.2003 95.6155C40.5443 92.2886 37.1056 90.3867 32.8831 89.9093Z" fill="#FB5058"/>
<path fill-rule="evenodd" clip-rule="evenodd" d="M105.389 213.504L95.3986 210.845L90.1969 229.887L99.8114 231.114L105.389 213.504Z" fill="#FFAD93"/>
<path fill-rule="evenodd" clip-rule="evenodd" d="M110.966 242.015V239.867L99.8726 230.091L90.1969 229.887L89.1675 241.34H94.459L94.7655 237.434L97.6052 241.34L110.966 242.015Z" fill="white"/>
<path fill-rule="evenodd" clip-rule="evenodd" d="M62.9559 174.113C64.5766 176.649 65.8297 178.162 66.715 178.653L100.445 177.958L92.7019 212.277L107.411 214.425L123.939 172.129C124.606 170.111 124.79 167.847 124.491 165.338C124.259 163.552 123.749 162.005 122.959 160.695L122.999 160.634C121.324 156.789 117.402 154.716 111.232 154.417L80.3826 154.621C73.2185 154.54 68.2745 155.671 65.5507 158.017C62.8265 160.361 61.301 163 60.9744 165.932C60.6474 168.849 61.308 171.576 62.9559 174.113Z" fill="#9C006D"/>
<path fill-rule="evenodd" clip-rule="evenodd" d="M153.154 214.179L144.104 220.99L155.013 234.693L162.797 227.023L153.154 214.179Z" fill="#FFAD93"/>
<path fill-rule="evenodd" clip-rule="evenodd" d="M123.653 165.093C120.725 160.921 116.85 158.691 112.028 158.405L74.8664 157.587L61.5669 178.735L108.616 178.326L145.84 223.362L155.912 214.077L123.653 165.093Z" fill="#FB5058"/>
<path fill-rule="evenodd" clip-rule="evenodd" d="M164.574 234.836L173.522 232.852L182.797 224.139L162.694 226.982L154.645 234.304L161.448 241.586L167.454 237.965L164.574 234.836Z" fill="white"/>
<path fill-rule="evenodd" clip-rule="evenodd" d="M68.8396 134.884C69.6568 128.708 65.523 123.581 56.4386 119.504C47.259 115.495 40.5718 116.6 36.3764 122.817C32.1682 129.021 33.496 137.046 40.3603 146.89L63.8751 177.712L87.2063 158.466L68.8396 134.884Z" fill="#440063"/>
<path fill-rule="evenodd" clip-rule="evenodd" d="M122.08 137.687H84.5908L89.2899 161.146H117.381L122.08 137.687Z" fill="white"/>
<path fill-rule="evenodd" clip-rule="evenodd" d="M82.3988 209.437C82.3178 209.435 82.2372 209.435 82.1565 209.437C81.8427 209.443 81.5447 209.488 81.262 209.573C81.0707 209.643 80.8833 209.729 80.7011 209.831L80.4588 209.983C80.373 210.051 80.2869 210.122 80.2011 210.195L52.0553 232.97L55.8595 237.689L79.2915 218.738L79.6405 238.023L85.703 237.917L85.3544 218.92L108.074 237.31L111.893 232.591L84.1266 210.104C84.0705 210.061 84.0097 210.015 83.9448 209.967L83.5507 209.74C83.5404 209.735 83.5254 209.73 83.5053 209.725C83.2637 209.605 83.0063 209.519 82.7321 209.467L82.6261 209.452C82.5503 209.448 82.4744 209.443 82.3988 209.437Z" fill="#8C9B9B"/>
<path fill-rule="evenodd" clip-rule="evenodd" d="M41.5973 173.749C41.5746 173.717 41.5489 173.682 41.5214 173.643L29.351 154.19C29.0178 153.658 28.543 153.318 27.926 153.173C27.3189 153.036 26.7481 153.132 26.2133 153.462C25.681 153.804 25.3422 154.28 25.1982 154.888C25.0618 155.506 25.1575 156.082 25.4859 156.618L37.6113 175.994C44.2959 188.181 53.6123 194.119 65.5598 193.808C65.5774 193.813 65.5924 193.813 65.6053 193.808H77.8974V218.677H86.4458V193.808H97.9193C98.5495 193.813 99.0847 193.591 99.5257 193.14C99.9756 192.699 100.198 192.163 100.193 191.532C100.198 190.901 99.9756 190.36 99.5257 189.908C99.0847 189.468 98.5495 189.246 97.9193 189.241H86.4458V187.268H77.8974V189.241H65.5598C65.5444 189.246 65.5246 189.246 65.499 189.241C55.3012 189.408 47.3339 184.244 41.5973 173.749Z" fill="#616B6A"/>
<path fill-rule="evenodd" clip-rule="evenodd" d="M104.709 179.894C103.648 178.832 102.36 178.301 100.845 178.301H63.6958C62.1799 178.301 60.8865 178.832 59.8157 179.894C58.7543 180.966 58.2239 182.261 58.2239 183.778V183.793C58.2239 185.311 58.7543 186.6 59.8157 187.663C60.8865 188.735 62.1799 189.271 63.6958 189.271H100.845C102.36 189.271 103.648 188.735 104.709 187.663C105.78 186.6 106.316 185.311 106.316 183.793V183.778C106.316 182.261 105.78 180.966 104.709 179.894Z" fill="#8C9C9C"/>
<path fill-rule="evenodd" clip-rule="evenodd" d="M49.0088 175.387C50.2923 174.558 51.0904 173.4 51.4034 171.913C51.7169 170.446 51.4592 169.076 50.6306 167.801L30.4573 136.559C29.6387 135.304 28.4869 134.51 27.0018 134.176C25.5364 133.853 24.1672 134.106 22.8944 134.935L22.879 134.95C21.6058 135.78 20.8073 136.928 20.484 138.395C20.1709 139.882 20.4235 141.257 21.2421 142.522L41.4154 173.749C42.2542 175.023 43.406 175.823 44.8713 176.146C46.3564 176.46 47.7308 176.207 48.9938 175.387H49.0088Z" fill="#8C9C9C"/>
<path fill-rule="evenodd" clip-rule="evenodd" d="M48.1754 236.582C48.1754 238.13 48.7162 239.45 49.7973 240.542C50.8883 241.624 52.2069 242.166 53.7529 242.166C55.2992 242.166 56.6175 241.624 57.7089 240.542C58.79 239.45 59.3307 238.13 59.3307 236.582C59.3307 235.034 58.79 233.719 57.7089 232.637C56.6175 231.544 55.2992 230.998 53.7529 230.998C52.2069 230.998 50.8883 231.544 49.7973 232.637C48.7162 233.719 48.1754 235.034 48.1754 236.582Z" fill="#00CCBE"/>
<path fill-rule="evenodd" clip-rule="evenodd" d="M86.5972 240.512C87.6886 239.419 88.2341 238.104 88.2341 236.567C88.2341 235.019 87.6886 233.699 86.5972 232.606C85.5058 231.514 84.1872 230.968 82.6412 230.968C81.1055 230.968 79.792 231.514 78.7006 232.606C77.6092 233.699 77.0637 235.019 77.0637 236.567C77.0637 238.104 77.6092 239.419 78.7006 240.512C79.792 241.605 81.1055 242.151 82.6412 242.151C84.1872 242.151 85.5058 241.605 86.5972 240.512Z" fill="#00CCBE"/>
<path fill-rule="evenodd" clip-rule="evenodd" d="M107.574 240.512C108.665 241.605 109.984 242.151 111.53 242.151C113.076 242.151 114.389 241.605 115.471 240.512C116.562 239.419 117.107 238.104 117.107 236.567C117.107 235.019 116.562 233.699 115.471 232.606C114.389 231.514 113.076 230.968 111.53 230.968C109.984 230.968 108.665 231.514 107.574 232.606C106.482 233.699 105.937 235.019 105.937 236.567C105.937 238.104 106.482 239.419 107.574 240.512Z" fill="#00CCBE"/>
<path fill-rule="evenodd" clip-rule="evenodd" d="M36.193 57.4917C36.0247 58.0841 36.0859 58.65 36.3766 59.1895L37.7254 61.6642L33.4757 59.537C32.9163 59.2688 32.3444 59.2346 31.7593 59.435C31.1727 59.6343 30.7368 60.009 30.452 60.5595C30.1836 61.1211 30.1495 61.6936 30.3501 62.2779C30.5477 62.8654 30.922 63.2948 31.4737 63.5664L34.0275 64.8344L30.309 65.5094C29.7041 65.6202 29.2202 65.927 28.8584 66.4298C28.5134 66.9502 28.3976 67.5162 28.5112 68.1272C28.6216 68.7354 28.928 69.2125 29.4306 69.5589C29.9487 69.9171 30.5066 70.0401 31.1056 69.927L32.8015 69.6202C32.0687 71.4751 32.021 73.3769 32.6582 75.3265C32.6897 75.4006 32.7172 75.4685 32.7403 75.5309C32.7704 75.5958 32.7909 75.6571 32.8015 75.7151C33.0072 76.3016 33.3888 76.7314 33.9453 77.0037C34.4985 77.2892 35.0638 77.3303 35.6412 77.1263C36.2377 76.9343 36.6736 76.5592 36.9489 76.0018C37.2337 75.445 37.2744 74.8721 37.0713 74.2834C37.0288 74.1396 36.9746 73.9964 36.9078 73.854C36.6003 72.8561 36.675 71.8883 37.1326 70.9495V70.9704C37.6319 70.0012 38.3948 69.3398 39.4209 68.986C40.2996 68.691 41.1578 68.7045 41.9948 69.0271C42.1334 69.1171 42.2965 69.1985 42.4853 69.2727C43.3824 69.7545 44.0023 70.4908 44.3443 71.4813H44.3242C44.6673 72.4891 44.5995 73.4709 44.1196 74.4269L44.1401 74.4064C43.6493 75.3848 42.8864 76.0528 41.8522 76.4106C41.556 76.506 41.2565 76.5739 40.9529 76.615C40.3502 76.72 39.8667 77.0198 39.5023 77.5149C39.1379 78.0273 39.0019 78.5866 39.0939 79.1922C39.198 79.8095 39.4979 80.3002 39.9928 80.665C40.5046 81.029 41.0625 81.1586 41.6682 81.0533C42.2093 80.9736 42.7474 80.8441 43.2819 80.665C43.2951 80.6668 43.3087 80.6668 43.3226 80.665C45.5028 79.9042 47.1096 78.493 48.1445 76.4308C49.1765 74.3598 49.3261 72.2326 48.5936 70.05V70.0294C47.9062 68.0168 46.6803 66.4966 44.9166 65.4683L40.3198 57.0418C40.0272 56.5034 39.5844 56.1419 38.992 55.958C38.3995 55.7888 37.8273 55.8501 37.2755 56.1419C36.7366 56.4476 36.3759 56.8979 36.193 57.4917Z" fill="#FFAD93"/>
<path fill-rule="evenodd" clip-rule="evenodd" d="M66.7762 78.4352L59.8504 74.4267L55.0292 82.5871L59.0948 85.2461L40.054 117.132L54.0284 121.938L70.0045 90.7479C72.7694 85.3074 71.6931 81.2031 66.7762 78.4352Z" fill="#440063"/>
<path fill-rule="evenodd" clip-rule="evenodd" d="M38.5625 110.259C42.7439 107.042 42.5599 103.585 38.0108 99.89L19.5832 89.1113L15.0476 115.373L35.0079 125.108L49.7174 119.525L35.0281 112.673L38.5625 110.259Z" fill="#FFAD93"/>
<path fill-rule="evenodd" clip-rule="evenodd" d="M64.5902 171.208C66.0415 171.453 67.3694 171.146 68.574 170.288L86.8996 157.075L93.1311 160.184C94.4556 160.835 95.8106 160.924 97.1964 160.45C98.5795 159.98 99.5943 159.087 100.24 157.771C100.901 156.456 100.997 155.106 100.526 153.721C100.059 152.333 99.1742 151.311 97.8705 150.653L88.7792 146.113C87.8891 145.671 86.9561 145.488 85.9806 145.561C85.0047 145.649 84.1124 145.983 83.304 146.563L62.3634 161.657C61.1789 162.513 60.4641 163.658 60.2181 165.093C59.9868 166.543 60.3002 167.866 61.158 169.06C62.0133 170.257 63.1575 170.973 64.5902 171.208Z" fill="#FFAD93"/>
<path fill-rule="evenodd" clip-rule="evenodd" d="M64.8593 177.556L55.9451 165.842L81.3391 146.474L89.944 158.594L64.8593 177.556Z" fill="#440063"/>
<path fill-rule="evenodd" clip-rule="evenodd" d="M60.4091 179.063C57.9631 179.063 55.5718 177.842 54.1743 175.615L31.2929 139.148C29.1325 135.705 30.1693 131.161 33.6087 128.997C37.0482 126.834 41.5881 127.873 43.7489 131.315L66.6303 167.782C68.7907 171.226 67.7539 175.771 64.3145 177.934C63.0992 178.698 61.7457 179.063 60.4091 179.063Z" fill="#440063"/>
<path fill-rule="evenodd" clip-rule="evenodd" d="M8.46941 110.709C7.9382 112.687 6.41938 115.727 3.91329 119.831C1.42078 123.935 0.127042 127.358 0.0317256 130.098C-0.0767882 132.839 0.0929479 135.075 0.542767 136.807C0.99222 138.552 2.06783 140.652 3.77069 143.106C5.47281 145.574 8.45584 147.449 12.719 148.731C16.9819 150.013 21.5105 150.17 26.3045 149.201C31.0989 148.219 34.5241 146.297 36.5811 143.434C38.6373 140.543 39.8156 137.495 40.1151 134.291C40.415 131.06 39.8834 127.958 38.5219 124.985C37.1464 122 34.3745 119.245 30.2066 116.723C29.9753 113.123 29.6483 107.798 29.226 100.749C27.9594 93.6316 25.1879 89.5409 20.9111 88.4773C19.6445 88.1092 18.2349 87.9731 16.682 88.0685C13.5905 88.2593 11.3703 89.4932 10.022 91.7701C8.41515 94.0199 7.58407 96.2084 7.52981 98.3355C7.50232 99.6854 7.78166 101.594 8.36749 104.062C8.95295 106.517 8.98705 108.732 8.46941 110.709Z" fill="#FB5058"/>
<path fill-rule="evenodd" clip-rule="evenodd" d="M36.0287 101.628C35.6602 101.628 35.2896 101.505 34.9846 101.251C34.2906 100.673 34.1957 99.641 34.7723 98.9462C35.5279 98.0364 36.2156 96.7978 36.8161 95.2637C38.0175 92.2208 38.1348 89.3567 37.1772 86.5032C36.0045 82.9825 35.8417 79.4879 36.6918 76.1129C36.9822 75.0265 37.355 74.0139 37.8067 73.0803C37.8217 73.0487 37.8378 73.0179 37.8547 72.9874L38.3863 72.0464C38.8302 71.2599 39.827 70.9828 40.6134 71.4276C41.399 71.8724 41.6758 72.8707 41.2315 73.6572L40.7267 74.5512C40.3747 75.2871 40.0818 76.089 39.8552 76.9357C39.1664 79.6725 39.3057 82.5498 40.2768 85.4646C41.4727 89.0268 41.3323 92.728 39.8578 96.4623C39.1312 98.3179 38.2657 99.8594 37.2865 101.038C36.9631 101.427 36.4972 101.628 36.0287 101.628Z" fill="#FABE00"/>
<path fill-rule="evenodd" clip-rule="evenodd" d="M221.148 240.641L213.337 238.236L243.859 138.877L251.67 141.281L221.148 240.641ZM315.63 240.641L285.107 141.281L292.918 138.877L323.44 238.236L315.63 240.641Z" fill="#007E8A"/>
<path fill-rule="evenodd" clip-rule="evenodd" d="M123.739 154.352H412.965V3.28946H123.739V154.352Z" fill="white"/>
<path fill-rule="evenodd" clip-rule="evenodd" d="M127.034 151.063H409.722V6.54486H127.034V151.063ZM120.497 157.608H416.26V0H120.497V157.608Z" fill="#007E8A"/>
<path fill-rule="evenodd" clip-rule="evenodd" d="M267.234 24.42C253.41 24.6656 241.574 29.7174 231.727 39.5753C221.608 49.6926 216.548 61.9235 216.547 76.2673C216.548 90.5975 221.608 102.828 231.727 112.959C241.86 123.076 254.077 128.135 268.378 128.135C282.707 128.135 294.924 123.076 305.03 112.959C314.89 103.101 319.95 91.2588 320.209 77.4329H267.234V24.42Z" fill="#FB5058"/>
<path fill-rule="evenodd" clip-rule="evenodd" d="M268.378 130.18C253.584 130.18 240.767 124.873 230.284 114.407C219.813 103.924 214.505 91.0929 214.504 76.2672C214.505 61.4276 219.814 48.5955 230.283 38.1281C240.471 27.9296 252.891 22.6289 267.198 22.375L267.271 26.4649C254.058 26.6994 242.586 31.5972 233.172 41.0212C223.496 50.6948 218.591 62.5528 218.591 76.2672C218.591 89.9687 223.497 101.827 233.172 111.513C242.859 121.185 254.704 126.09 268.378 126.09C282.078 126.09 293.923 121.185 303.585 111.513C313.013 102.087 317.919 90.6084 318.166 77.3946L322.252 77.4714C321.984 91.7803 316.675 104.207 306.473 114.407C296.019 124.873 283.201 130.18 268.378 130.18Z" fill="#C2826E"/>
<path fill-rule="evenodd" clip-rule="evenodd" d="M254.445 38.3277C252.879 36.7459 251.013 35.9553 248.847 35.9553C246.682 35.9553 244.809 36.7459 243.229 38.3277C241.69 39.8684 240.92 41.7229 240.92 43.8908C240.92 46.0587 241.69 47.9268 243.229 49.495C244.809 51.0493 246.682 51.8262 248.847 51.8262C251.013 51.8262 252.879 51.0493 254.445 49.495C255.984 47.9268 256.754 46.0587 256.754 43.8908C256.754 41.7229 255.984 39.8684 254.445 38.3277Z" fill="#FB5058"/>
<path fill-rule="evenodd" clip-rule="evenodd" d="M256.999 74.7335C258.579 73.1793 259.369 71.3112 259.369 69.1293C259.369 66.9614 258.579 65.1003 256.999 63.546C255.46 61.9914 253.608 61.2141 251.442 61.2141C249.276 61.2141 247.411 61.9914 245.844 63.546C244.291 65.1003 243.515 66.9614 243.515 69.1293C243.515 71.3112 244.291 73.1793 245.844 74.7335C247.411 76.3153 249.276 77.1059 251.442 77.1059C253.608 77.1059 255.46 76.3153 256.999 74.7335Z" fill="#FB5058"/>
<path fill-rule="evenodd" clip-rule="evenodd" d="M226.089 88.2937C226.089 90.4752 226.865 92.3433 228.418 93.8979C229.957 95.4386 231.816 96.2086 233.995 96.2086C236.174 96.2086 238.04 95.4386 239.593 93.8979C241.145 92.3433 241.922 90.4752 241.922 88.2937C241.922 86.1258 241.145 84.2643 239.593 82.71C238.04 81.1557 236.174 80.3788 233.995 80.3788C231.816 80.3788 229.957 81.1557 228.418 82.71C226.865 84.2643 226.089 86.1258 226.089 88.2937Z" fill="#FB5058"/>
<path fill-rule="evenodd" clip-rule="evenodd" d="M263.23 113.675C264.81 112.107 265.6 110.232 265.6 108.051C265.6 105.883 264.81 104.015 263.23 102.446C261.678 100.892 259.812 100.115 257.632 100.115C255.467 100.115 253.615 100.892 252.075 102.446C250.509 104.015 249.726 105.883 249.726 108.051C249.726 110.232 250.509 112.107 252.075 113.675C253.615 115.216 255.467 115.986 257.632 115.986C259.812 115.986 261.678 115.216 263.23 113.675Z" fill="#FB5058"/>
<path fill-rule="evenodd" clip-rule="evenodd" d="M290.872 113.675C292.424 112.107 293.201 110.232 293.201 108.051C293.201 105.883 292.424 104.015 290.872 102.446C289.305 100.892 287.439 100.115 285.274 100.115C283.094 100.115 281.222 100.892 279.655 102.446C278.116 104.015 277.347 105.883 277.347 108.051C277.347 110.232 278.116 112.107 279.655 113.675C281.222 115.216 283.094 115.986 285.274 115.986C287.439 115.986 289.305 115.216 290.872 113.675Z" fill="#FB5058"/>
<path fill-rule="evenodd" clip-rule="evenodd" d="M309.79 92.384C311.342 90.8297 312.119 88.9616 312.119 86.7798C312.119 84.5983 311.342 82.7302 309.79 81.1759C308.237 79.6352 306.378 78.8649 304.212 78.8649C302.033 78.8649 300.16 79.6352 298.594 81.1759C297.042 82.7302 296.265 84.5983 296.265 86.7798C296.265 88.9616 297.042 90.8297 298.594 92.384C300.16 93.9383 302.033 94.7156 304.212 94.7156C306.378 94.7156 308.237 93.9383 309.79 92.384Z" fill="#FB5058"/>
<path fill-rule="evenodd" clip-rule="evenodd" d="M264.966 87.7616C264.966 89.9295 265.736 91.7909 267.275 93.3452C268.841 94.9131 270.707 95.6974 272.873 95.6974C275.039 95.6974 276.898 94.9131 278.45 93.3452C280.03 91.7909 280.82 89.9295 280.82 87.7616C280.82 85.5665 280.03 83.6984 278.45 82.1573C276.898 80.6031 275.039 79.8261 272.873 79.8261C270.707 79.8261 268.841 80.6031 267.275 82.1573C265.736 83.6984 264.966 85.5665 264.966 87.7616Z" fill="#FB5058"/>
<path fill-rule="evenodd" clip-rule="evenodd" d="M286.855 93.6017C285.698 92.0933 285.11 90.307 285.11 88.2933C285.11 85.8545 285.993 83.7266 287.733 81.9686C289.438 80.2936 291.482 79.4187 293.822 79.3559L293.888 81.8093C292.163 81.8556 290.716 82.4769 289.462 83.7082C288.188 84.9961 287.562 86.4997 287.562 88.2933C287.562 89.7741 287.967 91.0216 288.8 92.1065L286.855 93.6017Z" fill="#450064"/>
<path fill-rule="evenodd" clip-rule="evenodd" d="M293.384 112.591C294.488 110.805 294.815 108.876 294.365 106.803C293.861 104.717 292.704 103.121 290.892 102.017C289.121 100.899 287.201 100.592 285.131 101.097H285.09C284.886 101.151 284.695 101.199 284.518 101.24L285.458 105.228L278.001 106.946L279.635 113.941L287.092 112.182L288.012 116.13C288.216 116.102 288.413 116.061 288.604 116.007H288.625C290.708 115.503 292.295 114.364 293.384 112.591Z" fill="white"/>
<path fill-rule="evenodd" clip-rule="evenodd" d="M242.31 94.2858C243.413 92.486 243.72 90.5566 243.229 88.4977C242.752 86.4116 241.615 84.8097 239.817 83.6914C238.033 82.5871 236.099 82.2872 234.015 82.7915H233.995C233.791 82.8186 233.6 82.8667 233.423 82.9346L234.362 86.9023L226.926 88.6408L228.561 95.6356L235.977 93.8564L236.937 97.8241C237.114 97.783 237.305 97.7353 237.509 97.6809H237.55C239.633 97.1899 241.22 96.0584 242.31 94.2858Z" fill="white"/>
<path fill-rule="evenodd" clip-rule="evenodd" d="M263.434 74.2425L256.897 77.1466L260.022 84.162L256.325 85.7779C256.406 85.982 256.488 86.1662 256.57 86.3303V86.371C257.441 88.307 258.858 89.6638 260.819 90.4411C262.808 91.1773 264.769 91.1161 266.703 90.2569C268.651 89.3841 269.992 87.9389 270.728 85.9207C271.463 83.9847 271.388 82.0348 270.503 80.0717V80.0511C270.408 79.8739 270.319 79.6896 270.238 79.4988L266.519 81.2575L263.434 74.2425Z" fill="white"/>
<path fill-rule="evenodd" clip-rule="evenodd" d="M241.513 47.2451C241.513 49.6581 242.364 51.7035 244.067 53.3807C245.742 55.0987 247.778 55.9578 250.175 55.9578C252.545 55.9578 254.595 55.0987 256.325 53.3807C258 51.7035 258.838 49.6581 258.838 47.2451C258.838 44.8724 258 42.8274 256.325 41.1091C254.595 39.4322 252.545 38.5936 250.175 38.5936C247.778 38.5936 245.742 39.4322 244.067 41.1091C242.364 42.8274 241.513 44.8724 241.513 47.2451Z" fill="white"/>
<path fill-rule="evenodd" clip-rule="evenodd" d="M255.65 58.0235C255.65 56.3738 255.065 54.9623 253.894 53.79C252.722 52.6174 251.32 52.031 249.685 52.031C248.037 52.031 246.634 52.6174 245.476 53.79C244.305 54.9623 243.719 56.3738 243.719 58.0235C243.719 59.6732 244.305 61.0777 245.476 62.2367C246.634 63.4093 248.037 63.9954 249.685 63.9954C251.32 63.9954 252.722 63.4093 253.894 62.2367C255.065 61.0777 255.65 59.6732 255.65 58.0235Z" fill="white"/>
<path fill-rule="evenodd" clip-rule="evenodd" d="M252.688 47.1018C251.217 48.5882 250.482 50.3539 250.482 52.3992C250.482 54.4989 251.217 56.2991 252.688 57.7987C254.146 59.2439 255.916 59.9666 258 59.9666C260.084 59.9666 261.881 59.2439 263.393 57.7987C264.837 56.2991 265.559 54.4989 265.559 52.3992C265.559 50.3539 264.837 48.5882 263.393 47.1018C261.881 45.6022 260.084 44.8521 258 44.8521C255.916 44.8521 254.146 45.6022 252.688 47.1018Z" fill="white"/>
<path fill-rule="evenodd" clip-rule="evenodd" d="M253.24 92.9567C250.843 92.9567 248.807 93.7949 247.131 95.4722C245.442 97.1766 244.598 99.2355 244.598 101.649C244.598 104.035 245.442 106.067 247.131 107.744C248.807 109.448 250.843 110.3 253.24 110.3C255.637 110.3 257.687 109.448 259.389 107.744C261.065 106.067 261.902 104.035 261.902 101.649C261.902 99.2355 261.065 97.1766 259.389 95.4722C257.687 93.7949 255.637 92.9567 253.24 92.9567Z" fill="white"/>
<path fill-rule="evenodd" clip-rule="evenodd" d="M262.74 112.407C263.911 111.248 264.497 109.844 264.497 108.194C264.497 106.544 263.911 105.133 262.74 103.96C261.555 102.801 260.145 102.221 258.511 102.221C256.849 102.221 255.453 102.801 254.323 103.96C253.124 105.133 252.525 106.544 252.525 108.194C252.525 109.844 253.124 111.248 254.323 112.407C255.453 113.58 256.849 114.166 258.511 114.166C260.145 114.166 261.555 113.58 262.74 112.407Z" fill="white"/>
<path fill-rule="evenodd" clip-rule="evenodd" d="M268.031 97.2723C266.519 95.7724 264.735 95.0222 262.678 95.0222C260.567 95.0222 258.783 95.7724 257.326 97.2723C255.855 98.7855 255.119 100.552 255.119 102.57C255.119 104.669 255.855 106.469 257.326 107.969C258.783 109.441 260.567 110.178 262.678 110.178C264.735 110.178 266.519 109.441 268.031 107.969C269.489 106.469 270.217 104.669 270.217 102.57C270.217 100.552 269.489 98.7855 268.031 97.2723Z" fill="white"/>
<path fill-rule="evenodd" clip-rule="evenodd" d="M310.117 77.3103V77.2079H293.445C293.215 77.9853 293.098 78.8033 293.098 79.6621C293.098 82.062 293.943 84.1007 295.632 85.7776C295.972 86.1185 296.299 86.4184 296.613 86.6775C295.754 87.7411 295.325 88.9955 295.325 90.4408C295.325 92.0769 295.904 93.4814 297.062 94.654C298.22 95.8131 299.622 96.3926 301.27 96.3926C302.905 96.3926 304.321 95.8131 305.52 94.654C306.296 93.8496 306.814 92.9566 307.072 91.9749C307.862 92.2472 308.707 92.3837 309.606 92.3837C311.676 92.3837 313.467 91.6475 314.979 90.1751C316.45 88.7023 317.185 86.9164 317.185 84.8164C317.185 82.7711 316.45 80.9988 314.979 79.4988C313.59 78.1214 311.969 77.3922 310.117 77.3103Z" fill="white"/>
<path fill-rule="evenodd" clip-rule="evenodd" d="M305.043 99.2248C303.124 97.8236 301.944 95.9379 301.534 93.6202C301.124 91.1275 301.644 88.8645 303.075 86.8798C304.236 85.2623 305.755 84.1525 307.588 83.5833L308.314 85.9274C306.984 86.3406 305.921 87.1212 305.065 88.314C304.013 89.7721 303.649 91.3719 303.951 93.2073C304.248 94.8886 305.079 96.2128 306.487 97.2422L305.043 99.2248Z" fill="#450064"/>
<path fill-rule="evenodd" clip-rule="evenodd" d="M275.848 100.268C273.932 98.8685 272.745 96.9776 272.321 94.649C271.924 92.1588 272.451 89.905 273.881 87.9224C275.022 86.3113 276.532 85.1933 278.364 84.6087L279.109 86.9469C277.777 87.3719 276.72 88.1584 275.875 89.3508C274.817 90.817 274.447 92.412 274.737 94.2361C275.045 95.9214 275.882 97.2547 277.293 98.2853L275.848 100.268Z" fill="#450064"/>
<path fill-rule="evenodd" clip-rule="evenodd" d="M227.519 61.9912C226.17 63.6409 225.585 65.509 225.762 67.5955C225.953 69.6947 226.851 71.4197 228.458 72.7695C230.079 74.1605 231.952 74.7606 234.077 74.5693C236.16 74.3649 237.883 73.4375 239.245 71.7878L239.266 71.7676C239.402 71.6314 239.545 71.4744 239.695 71.2971L236.508 68.7607L241.452 62.8911L235.956 58.2687L231.012 64.1184L227.948 61.5002C227.811 61.6778 227.682 61.8206 227.559 61.93L227.519 61.9912Z" fill="white"/>
<path fill-rule="evenodd" clip-rule="evenodd" d="M249.427 53.1516L247.491 51.6462C248.321 50.5763 248.725 49.3373 248.725 47.8587C248.725 46.0651 248.099 44.5615 246.812 43.2615C245.579 42.0386 244.13 41.4122 242.392 41.3538L242.473 38.9011C244.825 38.9796 246.868 39.8627 248.545 41.5256C250.294 43.292 251.177 45.4199 251.177 47.8587C251.177 49.875 250.588 51.6557 249.427 53.1516Z" fill="#450064"/>
<path fill-rule="evenodd" clip-rule="evenodd" d="M269.815 117.552C269.441 116.245 268.683 115.195 267.5 114.345C266.036 113.295 264.455 112.936 262.664 113.248C260.906 113.507 259.565 114.3 258.531 115.679L256.57 114.207C257.991 112.31 259.911 111.172 262.276 110.825C264.68 110.405 266.93 110.917 268.929 112.35C270.556 113.52 271.646 115.042 272.172 116.874L269.815 117.552Z" fill="#450064"/>
<path fill-rule="evenodd" clip-rule="evenodd" d="M244.598 63.505C239.286 68.7407 239.286 73.997 244.598 79.2739C250.046 74.1743 250.046 68.918 244.598 63.505Z" fill="#00CCBE"/>
<path fill-rule="evenodd" clip-rule="evenodd" d="M260.35 76.7581C254.289 72.3812 249.113 73.2675 244.823 79.4171C250.748 83.903 255.923 83.0167 260.35 76.7581Z" fill="#00CCBE"/>
<path fill-rule="evenodd" clip-rule="evenodd" d="M246.443 90.5816L244.51 89.0735C245.352 87.9897 245.763 86.7445 245.763 85.2665C245.763 83.4638 245.139 81.9693 243.858 80.6976C242.607 79.4685 241.156 78.8406 239.429 78.7826L239.511 76.3295C241.848 76.408 243.889 77.2896 245.579 78.9503C247.329 80.6866 248.214 82.8101 248.214 85.2665C248.214 87.2832 247.618 89.0717 246.443 90.5816Z" fill="#450064"/>
<path fill-rule="evenodd" clip-rule="evenodd" d="M295.775 85.4915C290.477 90.7276 290.477 95.9765 295.775 101.24C301.222 96.1677 301.222 90.918 295.775 85.4915Z" fill="#00CCBE"/>
<path fill-rule="evenodd" clip-rule="evenodd" d="M254.997 99.665C247.656 100.988 244.694 105.303 246.11 112.612C253.492 111.507 256.454 107.192 254.997 99.665Z" fill="#00CCBE"/>
<path fill-rule="evenodd" clip-rule="evenodd" d="M261.248 32.0692C253.921 33.3372 250.945 37.6528 252.32 45.0157C259.702 43.9114 262.678 39.5958 261.248 32.0692Z" fill="#00CCBE"/>
<path fill-rule="evenodd" clip-rule="evenodd" d="M241.125 63.5456C241.915 56.1552 238.578 52.1056 231.114 51.3966C230.175 58.8281 233.511 62.8777 241.125 63.5456Z" fill="#00CCBE"/>
<path fill-rule="evenodd" clip-rule="evenodd" d="M240.798 104.247C241.574 96.8154 238.224 92.7522 230.747 92.0567C229.793 99.5015 233.144 103.565 240.798 104.247Z" fill="#00CCBE"/>
<path fill-rule="evenodd" clip-rule="evenodd" d="M263.741 105.187C264.476 105.951 265.375 106.333 266.437 106.333C267.486 106.333 268.385 105.951 269.134 105.187C269.87 104.451 270.238 103.565 270.238 102.528C270.238 101.451 269.87 100.538 269.134 99.788C268.385 99.0514 267.486 98.6833 266.437 98.6833C265.375 98.6833 264.476 99.0514 263.741 99.788C263.005 100.538 262.638 101.451 262.638 102.528C262.638 103.565 263.005 104.451 263.741 105.187Z" fill="#007E8A"/>
<path fill-rule="evenodd" clip-rule="evenodd" d="M258.102 69.6816C258.838 70.4725 259.744 70.8678 260.819 70.8678C261.895 70.8678 262.794 70.4725 263.516 69.6816C264.251 68.9726 264.619 68.0863 264.619 67.023C264.619 65.9594 264.251 65.046 263.516 64.2822C262.794 63.5732 261.895 63.219 260.819 63.219C259.744 63.219 258.838 63.5732 258.102 64.2822C257.367 65.046 256.999 65.9594 256.999 67.023C256.999 68.0863 257.367 68.9726 258.102 69.6816Z" fill="#007E8A"/>
<path fill-rule="evenodd" clip-rule="evenodd" d="M283.517 111.957C282.768 111.234 281.869 110.873 280.82 110.873C279.744 110.873 278.838 111.234 278.103 111.957C277.368 112.734 277 113.648 277 114.698C277 115.775 277.368 116.661 278.103 117.357C278.838 118.147 279.744 118.543 280.82 118.543C281.869 118.543 282.768 118.147 283.517 117.357C284.252 116.661 284.62 115.775 284.62 114.698C284.62 113.648 284.252 112.734 283.517 111.957Z" fill="#007E8A"/>
<path fill-rule="evenodd" clip-rule="evenodd" d="M232.361 77.1262C231.625 76.4036 230.719 76.0424 229.643 76.0424C228.595 76.0424 227.703 76.4036 226.967 77.1262C226.231 77.8764 225.864 78.7898 225.864 79.867C225.864 80.9302 226.231 81.8165 226.967 82.5256C227.703 83.2893 228.595 83.671 229.643 83.671C230.719 83.671 231.625 83.2893 232.361 82.5256C233.096 81.8165 233.464 80.9302 233.464 79.867C233.464 78.7898 233.096 77.8764 232.361 77.1262Z" fill="#007E8A"/>
<path fill-rule="evenodd" clip-rule="evenodd" d="M277.408 14.48C277.014 14.48 276.619 14.487 276.224 14.5005V67.5751H329.178C329.219 67.1659 329.239 66.7636 329.239 66.3684C329.239 52.0514 324.179 39.8208 314.06 29.6763C303.94 19.5454 291.723 14.48 277.408 14.48Z" fill="#FB5058"/>
<path fill-rule="evenodd" clip-rule="evenodd" d="M331.211 67.7783L327.145 67.372C327.179 67.0318 327.196 66.6942 327.196 66.3683C327.196 52.6796 322.29 40.8212 312.614 31.1215C302.94 21.4365 291.095 16.5256 277.408 16.5256C277.037 16.5256 276.665 16.5315 276.293 16.5443L276.153 12.4566C276.572 12.4423 276.99 12.4346 277.408 12.4346C292.218 12.4346 305.035 17.7492 315.504 28.2302C325.974 38.7256 331.282 51.5565 331.282 66.3683C331.282 66.8292 331.258 67.3038 331.211 67.7783Z" fill="#C2826E"/>
<path fill-rule="evenodd" clip-rule="evenodd" d="M294.161 37.346C295.714 35.8053 296.49 33.9438 296.49 31.7623C296.49 29.5808 295.714 27.7128 294.161 26.1585C292.622 24.6038 290.756 23.8269 288.563 23.8269C286.384 23.8269 284.525 24.6038 282.986 26.1585C281.433 27.7128 280.657 29.5808 280.657 31.7623C280.657 33.9438 281.433 35.8053 282.986 37.346C284.525 38.9003 286.384 39.678 288.563 39.678C290.756 39.678 292.622 38.9003 294.161 37.346Z" fill="#FB5058"/>
<path fill-rule="evenodd" clip-rule="evenodd" d="M305.499 49.8426C303.933 51.3969 303.15 53.2649 303.15 55.4468C303.15 57.6147 303.933 59.4688 305.499 61.0099C307.038 62.5914 308.898 63.3823 311.077 63.3823C313.27 63.3823 315.136 62.5914 316.675 61.0099C318.228 59.4688 319.004 57.6147 319.004 55.4468C319.004 53.2649 318.228 51.3969 316.675 49.8426C315.136 48.3019 313.27 47.5315 311.077 47.5315C308.898 47.5315 307.038 48.3019 305.499 49.8426Z" fill="#FB5058"/>
<path fill-rule="evenodd" clip-rule="evenodd" d="M282.884 49.2084C281.304 50.7763 280.514 52.6513 280.514 54.8328C280.514 56.9872 281.304 58.8347 282.884 60.3758C284.423 61.9572 286.275 62.7481 288.44 62.7481C290.633 62.7481 292.499 61.9572 294.038 60.3758C295.591 58.8347 296.367 56.9872 296.367 54.8328C296.367 52.6513 295.591 50.7763 294.038 49.2084C292.499 47.6406 290.633 46.8566 288.44 46.8566C286.275 46.8566 284.423 47.6406 282.884 49.2084Z" fill="#FB5058"/>
<path fill-rule="evenodd" clip-rule="evenodd" d="M306.839 49.0333C305.72 47.5025 305.152 45.7174 305.152 43.7274C305.152 41.2865 306.029 39.1707 307.759 37.4395C309.437 35.7435 311.488 34.8576 313.851 34.8102L313.9 37.2641C312.172 37.2986 310.732 37.9225 309.496 39.171C308.222 40.4468 307.604 41.9361 307.604 43.7274C307.604 45.2054 308.001 46.4668 308.817 47.584L306.839 49.0333Z" fill="#450064"/>
<path fill-rule="evenodd" clip-rule="evenodd" d="M322.558 52.9718C322.463 52.7806 322.375 52.5902 322.293 52.3989L318.575 54.1173L315.49 47.1427L308.952 50.0677L312.078 57.0625L308.38 58.6986C308.462 58.9031 308.543 59.0873 308.625 59.2506V59.2917C309.497 61.2277 310.913 62.5709 312.875 63.3207C314.863 64.0709 316.824 64.0228 318.758 63.178C320.706 62.2916 322.048 60.846 322.783 58.8418C323.519 56.9058 323.444 54.9555 322.558 52.9924V52.9718Z" fill="white"/>
<path fill-rule="evenodd" clip-rule="evenodd" d="M285.414 63.6471L283.05 62.9942C283.678 60.718 285.013 58.9351 287.021 57.6946C289.132 56.4178 291.407 56.0603 293.79 56.6248C295.727 57.0821 297.321 58.0708 298.526 59.5631L296.619 61.1063C295.752 60.0321 294.642 59.3476 293.226 59.0137C291.463 58.5945 289.851 58.8496 288.298 59.7891C286.824 60.7004 285.878 61.964 285.414 63.6471Z" fill="#450064"/>
<path fill-rule="evenodd" clip-rule="evenodd" d="M296.571 33.9302C296.571 31.5307 295.734 29.4854 294.059 27.7946C292.37 26.1174 290.327 25.2791 287.93 25.2791C285.519 25.2791 283.476 26.1174 281.801 27.7946C280.112 29.4854 279.268 31.5307 279.268 33.9302C279.268 36.3437 280.112 38.3887 281.801 40.0663C283.476 41.7567 285.519 42.6023 287.93 42.6023C290.327 42.6023 292.37 41.7567 294.059 40.0663C295.734 38.3887 296.571 36.3437 296.571 33.9302Z" fill="white"/>
<path fill-rule="evenodd" clip-rule="evenodd" d="M281.535 44.6684C281.535 46.3181 282.121 47.7157 283.292 48.8611C284.45 50.0337 285.853 50.6202 287.5 50.6202C289.149 50.6202 290.558 50.0337 291.73 48.8611C292.874 47.7157 293.446 46.3181 293.446 44.6684C293.446 43.0183 292.874 41.6072 291.73 40.4346C290.558 39.2756 289.149 38.6961 287.5 38.6961C285.853 38.6961 284.45 39.2756 283.292 40.4346C282.121 41.6072 281.535 43.0183 281.535 44.6684Z" fill="white"/>
<path fill-rule="evenodd" clip-rule="evenodd" d="M301.168 33.7668C299.67 32.2805 297.886 31.5376 295.816 31.5376C293.732 31.5376 291.961 32.2805 290.504 33.7668C289.019 35.2664 288.277 37.0461 288.277 39.105C288.277 41.2182 289.019 43.0044 290.504 44.4637C291.961 45.9361 293.732 46.6723 295.816 46.6723C297.886 46.6723 299.67 45.9361 301.168 44.4637C302.639 43.0044 303.375 41.2182 303.375 39.105C303.375 37.0461 302.639 35.2664 301.168 33.7668Z" fill="white"/>
<path fill-rule="evenodd" clip-rule="evenodd" d="M286.132 38.4506C280.807 43.6999 280.807 48.9562 286.132 54.2194C291.566 49.1199 291.566 43.8636 286.132 38.4506Z" fill="#00CCBE"/>
<path fill-rule="evenodd" clip-rule="evenodd" d="M316.245 57.4915C312.8 50.8649 307.774 49.3242 301.168 52.8694C304.437 59.5916 309.463 61.1323 316.245 57.4915Z" fill="#00CCBE"/>
<path fill-rule="evenodd" clip-rule="evenodd" d="M304.294 34.6461C305.043 33.9099 305.418 33.0169 305.418 31.9669C305.418 30.9037 305.043 29.9968 304.294 29.2466C303.559 28.524 302.653 28.1629 301.577 28.1629C300.542 28.1629 299.643 28.524 298.88 29.2466C298.145 29.9968 297.777 30.9037 297.777 31.9669C297.777 33.0169 298.145 33.9099 298.88 34.6461C299.643 35.4098 300.542 35.7915 301.577 35.7915C302.653 35.7915 303.559 35.4098 304.294 34.6461Z" fill="#007E8A"/>
<path fill-rule="evenodd" clip-rule="evenodd" d="M302.905 66.9206C303.954 66.9206 304.859 66.5455 305.622 65.7957C306.344 65.0731 306.705 64.1732 306.705 63.0956C306.705 62.0188 306.344 61.105 305.622 60.3552C304.859 59.6461 303.954 59.2916 302.905 59.2916C301.829 59.2916 300.923 59.6461 300.188 60.3552C299.466 61.105 299.105 62.0188 299.105 63.0956C299.105 64.1732 299.466 65.0731 300.188 65.7957C300.923 66.5455 301.829 66.9206 302.905 66.9206Z" fill="#007E8A"/>
<path fill-rule="evenodd" clip-rule="evenodd" d="M144.859 26.8133H186.209V22.7226H144.859V26.8133ZM365.114 26.8133H392.878V22.7226H365.114V26.8133ZM144.859 36.0986H179.038V32.0079H144.859V36.0986ZM377.331 36.0986H392.878V32.0079H377.331V36.0986ZM144.859 45.4452H161.51V41.3545H144.859V45.4452ZM166.29 45.4452H186.209V41.3545H166.29V45.4452Z" fill="#00CCBE"/>
<path fill-rule="evenodd" clip-rule="evenodd" d="M431.698 212.81C431.532 212.709 431.354 212.628 431.163 212.565C431.474 212.677 431.764 212.84 432.034 213.055L432.111 213.116C431.981 213.003 431.843 212.901 431.698 212.81ZM427.082 215.763C426.996 214.929 427.215 214.18 427.74 213.514C427.867 213.368 428 213.235 428.137 213.116L400.199 235.73L404.05 240.489L426.945 221.945L426.609 241.101L432.722 241.208L433.058 221.761L428.198 217.813C427.55 217.287 427.178 216.604 427.082 215.763ZM432.325 213.315C432.387 213.385 432.443 213.451 432.493 213.514C432.908 214.023 433.132 214.589 433.165 215.212C433.177 215.308 433.183 215.399 433.181 215.488L433.058 221.761L456.686 240.871L460.523 236.113L432.111 213.116C432.185 213.183 432.257 213.249 432.325 213.315Z" fill="#8C9B9B"/>
<path fill-rule="evenodd" clip-rule="evenodd" d="M425.86 221.7H434.48V190.028H425.86V221.7Z" fill="#616B6A"/>
<path fill-rule="evenodd" clip-rule="evenodd" d="M459.254 152.282C458.625 152.213 458.059 152.376 457.558 152.771C457.059 153.162 456.768 153.673 456.687 154.301L453.92 177.711C452.709 185.727 448.001 190.496 439.799 192.017H415.085C414.449 192.022 413.905 192.246 413.45 192.69C413.006 193.145 412.782 193.691 412.777 194.327C412.782 194.963 413.006 195.504 413.45 195.949C413.905 196.404 414.449 196.628 415.085 196.622H439.997C440.132 196.626 440.265 196.616 440.395 196.592C450.96 194.713 456.992 188.623 458.49 178.323C458.492 178.301 458.492 178.281 458.49 178.262L461.257 154.852C461.335 154.223 461.177 153.657 460.783 153.154C460.391 152.653 459.881 152.363 459.254 152.282Z" fill="#616B6A"/>
<path fill-rule="evenodd" clip-rule="evenodd" d="M452.713 182.592C451.633 181.521 450.329 180.985 448.8 180.985H411.341C409.813 180.985 408.513 181.521 407.444 182.592C406.363 183.673 405.823 184.979 405.823 186.509V186.524C405.823 188.054 406.363 189.355 407.444 190.426C408.513 191.507 409.813 192.048 411.341 192.048H448.8C450.329 192.048 451.633 191.507 452.713 190.426C453.783 189.355 454.318 188.054 454.318 186.524V186.509C454.318 184.979 453.783 183.673 452.713 182.592Z" fill="#8C9C9C"/>
<path fill-rule="evenodd" clip-rule="evenodd" d="M479.382 128.061C478.455 126.857 477.233 126.159 475.715 125.965H475.699C468.516 125.383 462.881 125.098 458.796 125.108L446.829 171.086C457.945 172.718 465.474 173.728 469.418 174.115H469.433C470.951 174.309 472.311 173.942 473.514 173.013C474.716 172.075 475.419 170.851 475.623 169.342L480.468 132.146C480.671 130.637 480.31 129.275 479.382 128.061Z" fill="#8C9C9C"/>
<path fill-rule="evenodd" clip-rule="evenodd" d="M453.202 239.754C453.202 241.315 453.747 242.646 454.837 243.748C455.938 244.839 457.268 245.385 458.826 245.385C460.385 245.385 461.715 244.839 462.815 243.748C463.905 242.646 464.451 241.315 464.451 239.754C464.451 238.193 463.905 236.868 462.815 235.776C461.715 234.675 460.385 234.124 458.826 234.124C457.268 234.124 455.938 234.675 454.837 235.776C453.747 236.868 453.202 238.193 453.202 239.754Z" fill="#00CBBD"/>
<path fill-rule="evenodd" clip-rule="evenodd" d="M424.057 239.739C424.057 241.29 424.607 242.616 425.707 243.717C426.808 244.819 428.137 245.37 429.696 245.37C431.244 245.37 432.569 244.819 433.67 243.717C434.77 242.616 435.32 241.29 435.32 239.739C435.32 238.178 434.77 236.847 433.67 235.746C432.569 234.644 431.244 234.093 429.696 234.093C428.137 234.093 426.808 234.644 425.707 235.746C424.607 236.847 424.057 238.178 424.057 239.739Z" fill="#00CBBD"/>
<path fill-rule="evenodd" clip-rule="evenodd" d="M394.942 239.739C394.942 241.29 395.492 242.616 396.592 243.717C397.683 244.819 399.007 245.37 400.566 245.37C402.125 245.37 403.454 244.819 404.555 243.717C405.655 242.616 406.206 241.29 406.206 239.739C406.206 238.178 405.655 236.847 404.555 235.746C403.454 234.644 402.125 234.093 400.566 234.093C399.007 234.093 397.683 234.644 396.592 235.746C395.492 236.847 394.942 238.178 394.942 239.739Z" fill="#00CBBD"/>
<path fill-rule="evenodd" clip-rule="evenodd" d="M403.303 103.57C404.397 103.307 405.428 103.452 406.397 104.005C407.364 104.575 408.01 105.403 408.333 106.487L416.45 134.15C416.773 135.265 416.66 136.333 416.112 137.353C415.55 138.369 414.712 139.039 413.598 139.362C412.478 139.7 411.412 139.587 410.399 139.024C409.375 138.475 408.694 137.641 408.357 136.519L401.373 112.707L399.882 113.073C398.744 113.341 397.685 113.173 396.705 112.568C395.708 111.959 395.074 111.088 394.802 109.956C394.532 108.818 394.704 107.75 395.317 106.751C395.919 105.772 396.786 105.144 397.915 104.87L403.303 103.57Z" fill="#A76854"/>
<path fill-rule="evenodd" clip-rule="evenodd" d="M393.46 116.83L391.35 115.259L408.54 91.9274L410.651 93.4985L393.46 116.83Z" fill="#BF836E"/>
<path fill-rule="evenodd" clip-rule="evenodd" d="M393.845 123.335L389.492 119.252L394.083 112.975L398.534 117.281L393.845 123.335Z" fill="#FABE00"/>
<path fill-rule="evenodd" clip-rule="evenodd" d="M396.821 119.998L395.186 117.924L418.197 99.8202L419.832 101.894L396.821 119.998Z" fill="#BF836E"/>
<path fill-rule="evenodd" clip-rule="evenodd" d="M407.445 116.681C406.747 116.929 406.071 116.896 405.416 116.583L397.865 112.951C397.212 112.635 396.772 112.131 396.545 111.439C396.29 110.756 396.319 110.087 396.632 109.432C396.948 108.778 397.455 108.329 398.154 108.087C398.828 107.847 399.492 107.884 400.147 108.197L407.698 111.829C408.352 112.145 408.803 112.646 409.053 113.329C409.285 114.02 409.244 114.693 408.932 115.348C408.616 116.002 408.12 116.446 407.445 116.681Z" fill="#A76854"/>
<path fill-rule="evenodd" clip-rule="evenodd" d="M416.082 154.316C415.141 154.316 414.186 154.098 413.292 153.639C410.279 152.094 409.088 148.397 410.632 145.381L427.527 112.37C429.071 109.355 432.764 108.163 435.777 109.708C438.789 111.253 439.98 114.95 438.436 117.966L421.541 150.977C420.456 153.097 418.308 154.316 416.082 154.316Z" fill="#FB5058"/>
<path fill-rule="evenodd" clip-rule="evenodd" d="M410.468 150.641L405.156 131.518L416.966 128.23L422.278 147.353L410.468 150.641Z" fill="#FB5058"/>
<path fill-rule="evenodd" clip-rule="evenodd" d="M427.705 152.374L411.34 148.099L412.578 143.349L428.943 147.624L427.705 152.374Z" fill="#A76854"/>
<path fill-rule="evenodd" clip-rule="evenodd" d="M402.827 137.012L386.443 136.623L389.344 156.892H402.827V137.012Z" fill="#00CBBD"/>
<path fill-rule="evenodd" clip-rule="evenodd" d="M414.983 156.891L417.435 137.216L402.827 137.012V156.891H414.983Z" fill="white"/>
<path fill-rule="evenodd" clip-rule="evenodd" d="M414.477 163.427L408.134 154.896L418.84 146.92C420.128 145.959 421.781 145.635 423.338 146.036L434.186 148.838L431.532 159.137L423.144 156.97L414.477 163.427Z" fill="#A76854"/>
<path fill-rule="evenodd" clip-rule="evenodd" d="M450.817 111.2V110.28H438.845L439.806 125.783L450.817 111.2ZM401.397 153.476L397.904 152.781C393.3 152.494 390.065 155.242 388.199 161.023L374.123 212.318L366.667 216.511V220.683L379.149 219.64L393.92 186.057L393.614 184.707C393.545 184.38 393.491 184.059 393.45 183.746C392.524 177.746 394.737 173.84 400.09 172.026L418.375 179.758L401.397 153.476Z" fill="#A76854"/>
<path fill-rule="evenodd" clip-rule="evenodd" d="M413.954 243.684L418.089 244.592L414.37 227.964L404.625 241.606L399.702 241.851L397.107 245.41L407.138 245.185L412.511 238.538L413.954 243.684Z" fill="#FABE00"/>
<path fill-rule="evenodd" clip-rule="evenodd" d="M408.772 188.47H424.013L418.374 179.758L400.089 172.026C394.737 173.84 392.524 177.746 393.45 183.746C393.491 184.059 393.546 184.38 393.613 184.707L393.92 186.057L405.013 233.916L399.702 241.851L404.625 241.606L414.37 227.964L408.772 188.47Z" fill="#C2826E"/>
<path fill-rule="evenodd" clip-rule="evenodd" d="M464.771 145.602H450.817H433.955L432.001 159.632L401.398 153.476L418.375 179.757L424.013 188.47H430.271H442.584C445.935 188.47 449.331 188.623 452.677 188.422C457.382 188.139 462.334 186.75 465.54 183.084C468.413 179.798 469.351 175.338 469.441 171.08C469.481 169.196 469.361 167.311 469.143 165.441L464.771 145.602Z" fill="#440063"/>
<path fill-rule="evenodd" clip-rule="evenodd" d="M467.222 115.618C467.25 112.155 465.602 110.375 462.278 110.28H450.817V111.2V145.602H464.771L467.222 115.618Z" fill="#FB5058"/>
<path fill-rule="evenodd" clip-rule="evenodd" d="M430.755 122.122C428.222 127.535 427.956 131.966 429.958 135.416L435.372 145.602H450.817V111.2L439.805 125.783L438.845 110.28H436.688L430.755 122.122Z" fill="#00CBBD"/>
<path fill-rule="evenodd" clip-rule="evenodd" d="M445.866 163.562L419.47 156.873L423.04 142.757L449.435 149.445L445.866 163.562Z" fill="#FB5058"/>
<path fill-rule="evenodd" clip-rule="evenodd" d="M447.65 163.786C446.798 163.786 445.932 163.635 445.088 163.317C441.329 161.9 439.429 157.701 440.844 153.937L455.566 115.072C456.98 111.309 461.175 109.405 464.934 110.823C468.694 112.24 470.594 116.439 469.179 120.203L454.457 159.068C453.36 161.987 450.591 163.786 447.65 163.786Z" fill="#FB5058"/>
<path fill-rule="evenodd" clip-rule="evenodd" d="M443.401 88.6004C444.859 87.1411 445.587 85.3824 445.587 83.3235C445.587 81.2646 444.859 79.5059 443.401 78.0467C441.944 76.5882 440.187 75.8582 438.13 75.8582C436.074 75.8582 434.317 76.5882 432.859 78.0467C431.402 79.5059 430.673 81.2646 430.673 83.3235C430.673 85.3824 431.402 87.1411 432.859 88.6004C434.317 90.0596 436.074 90.7888 438.13 90.7888C440.187 90.7888 441.944 90.0596 443.401 88.6004Z" fill="#440063"/>
<path fill-rule="evenodd" clip-rule="evenodd" d="M440.725 96.4337C442.182 94.9745 442.911 93.2158 442.911 91.1569C442.911 89.0979 442.182 87.3392 440.725 85.88C439.267 84.4215 437.51 83.6916 435.454 83.6916C433.384 83.6916 431.62 84.4215 430.163 85.88C428.719 87.3392 427.997 89.0979 427.997 91.1569C427.997 93.2158 428.719 94.9745 430.163 96.4337C431.62 97.8929 433.384 98.6222 435.454 98.6222C437.51 98.6222 439.267 97.8929 440.725 96.4337Z" fill="#440063"/>
<path fill-rule="evenodd" clip-rule="evenodd" d="M450.817 97.5379C452.275 96.0791 453.003 94.32 453.003 92.2615C453.003 90.2025 452.275 88.4435 450.817 86.9846C449.36 85.5258 447.603 84.7961 445.546 84.7961C443.49 84.7961 441.733 85.5258 440.275 86.9846C438.818 88.4435 438.089 90.2025 438.089 92.2615C438.089 94.32 438.818 96.0791 440.275 97.5379C441.733 98.9972 443.49 99.7264 445.546 99.7264C447.603 99.7264 449.36 98.9972 450.817 97.5379Z" fill="#FABE00"/>
<path fill-rule="evenodd" clip-rule="evenodd" d="M455.966 98.397C458.512 95.8338 459.786 92.752 459.786 89.1528C459.786 85.5392 458.512 82.4575 455.966 79.9078C453.419 77.3582 450.34 76.0833 446.732 76.0833C443.136 76.0833 440.057 77.3582 437.497 79.9078C434.95 82.4575 433.677 85.5392 433.677 89.1528C433.677 92.752 434.95 95.8338 437.497 98.397C440.057 100.947 443.136 102.222 446.732 102.222C450.34 102.222 453.419 100.947 455.966 98.397Z" fill="#440063"/>
<path fill-rule="evenodd" clip-rule="evenodd" d="M429.55 100.115C428.569 104.11 430.081 106.592 434.085 107.56L441.501 109.38C441.923 109.489 442.298 109.605 442.625 109.728L445.955 104.042V91.5046L433.268 87.4143L429.55 100.115Z" fill="#A76854"/>
<path fill-rule="evenodd" clip-rule="evenodd" d="M438.845 110.28L449.734 110.771L449.755 94.8179L438.355 95.6976V108.608L438.845 110.28Z" fill="#A76854"/>
<path fill-rule="evenodd" clip-rule="evenodd" d="M447.936 94.5111C446.969 94.5111 446.146 94.8521 445.465 95.5336C444.756 96.2291 444.402 97.0677 444.402 98.0494C444.402 99.0172 444.756 99.8423 445.465 100.524C446.146 101.233 446.969 101.587 447.936 101.587C448.917 101.587 449.755 101.233 450.449 100.524C451.13 99.8423 451.471 99.0172 451.471 98.0494C451.471 97.0677 451.13 96.2291 450.449 95.5336C449.755 94.8521 448.917 94.5111 447.936 94.5111Z" fill="#A76854"/>
<path fill-rule="evenodd" clip-rule="evenodd" d="M432.001 89.9092C431.226 89.9092 430.579 90.1786 430.025 90.7331C429.487 91.2825 429.223 91.9314 429.223 92.7113C429.223 93.4912 429.487 94.1397 430.031 94.695C430.579 95.2436 431.226 95.5134 432.001 95.5134C432.787 95.5134 433.432 95.2455 433.972 94.6946C434.531 94.1349 434.8 93.4879 434.8 92.7113C434.8 91.9347 434.531 91.2877 433.977 90.7331C433.432 90.1767 432.787 89.9092 432.001 89.9092ZM432.001 97.1499C430.787 97.1499 429.734 96.7109 428.87 95.8463C428.018 94.9768 427.588 93.9235 427.588 92.7113C427.588 91.4987 428.018 90.4457 428.864 89.5818C429.734 88.7113 430.787 88.2727 432.001 88.2727C433.231 88.2727 434.287 88.7131 435.139 89.5814C435.996 90.4406 436.435 91.4954 436.435 92.7113C436.435 93.9268 435.996 94.9816 435.133 95.8463C434.287 96.7091 433.231 97.1499 432.001 97.1499Z" fill="white"/>
<path fill-rule="evenodd" clip-rule="evenodd" d="M440.97 92.1388C440.194 92.1388 439.548 92.4078 438.994 92.9624C438.456 93.5118 438.192 94.1607 438.192 94.9406C438.192 95.7205 438.456 96.369 439 96.9242C439.548 97.4729 440.194 97.7427 440.97 97.7427C441.757 97.7427 442.401 97.4751 442.94 96.9242C443.5 96.3642 443.769 95.7172 443.769 94.9406C443.769 94.164 443.5 93.5169 442.946 92.9624C442.401 92.4064 441.757 92.1388 440.97 92.1388ZM440.97 99.3792C439.755 99.3792 438.702 98.9402 437.839 98.0756C436.987 97.2061 436.557 96.1532 436.557 94.9406C436.557 93.728 436.987 92.675 437.833 91.8111C438.702 90.9409 439.755 90.5023 440.97 90.5023C442.201 90.5023 443.256 90.9427 444.107 91.8111C444.965 92.6699 445.404 93.7247 445.404 94.9406C445.404 96.1561 444.965 97.2109 444.102 98.0756C443.257 98.9384 442.201 99.3792 440.97 99.3792Z" fill="white"/>
<path fill-rule="evenodd" clip-rule="evenodd" d="M366.667 220.663V216.49L357.984 221.378L357.8 223.976L372.101 223.792L369.608 229.15L374.328 230.582L379.149 219.619L366.667 220.663Z" fill="#FABE00"/>
<path fill-rule="evenodd" clip-rule="evenodd" d="M477.819 138.561C477.621 138.561 477.421 138.55 477.22 138.528C474.185 138.201 471.991 135.472 472.318 132.434L476.324 95.2756C476.651 92.2375 479.375 90.0369 482.411 90.3683C485.445 90.6964 487.64 93.4248 487.313 96.4625L483.307 133.621C483.001 136.458 480.606 138.561 477.819 138.561Z" fill="#FFAD93"/>
<path fill-rule="evenodd" clip-rule="evenodd" d="M484.579 107.197H500.25V101.455H484.579V107.197Z" fill="#FB5058"/>
<path fill-rule="evenodd" clip-rule="evenodd" d="M501.748 97.4261C501.035 96.6995 500.16 96.3358 499.123 96.3358H484.909C483.873 96.3358 482.985 96.6995 482.246 97.4261C481.52 98.166 481.157 99.0483 481.157 100.073C481.157 101.112 481.52 101.994 482.246 102.721C482.985 103.46 483.873 103.83 484.909 103.83H499.123C500.16 103.83 501.035 103.46 501.748 102.721C502.487 101.994 502.856 101.112 502.856 100.073C502.856 99.0483 502.487 98.166 501.748 97.4261Z" fill="#A76854"/>
<path fill-rule="evenodd" clip-rule="evenodd" d="M499.842 97.8151C500.452 97.2184 500.756 96.4917 500.756 95.6351C500.756 94.7789 500.452 94.0456 499.842 93.4352C499.246 92.8517 498.52 92.5595 497.665 92.5595C497.029 92.5595 496.472 92.7218 495.992 93.0462C495.837 92.8256 495.655 92.6241 495.448 92.4425C494.593 91.5734 493.536 91.1389 492.279 91.1389C491.021 91.1389 489.946 91.5734 489.051 92.4425C489.038 92.4296 489.019 92.4039 488.993 92.3647C488.396 91.7811 487.671 91.489 486.815 91.489C485.96 91.489 485.227 91.7811 484.618 92.3647C484.035 92.975 483.743 93.7083 483.743 94.5645C483.743 95.4211 484.035 96.1474 484.618 96.7446C485.227 97.3417 485.96 97.6397 486.815 97.6397C487.269 97.6397 487.69 97.5556 488.079 97.3868C488.3 97.9318 488.623 98.4251 489.051 98.8662C489.946 99.7489 491.021 100.19 492.279 100.19C493.536 100.19 494.593 99.7489 495.448 98.8662C495.655 98.6589 495.843 98.4574 496.012 98.2629C496.491 98.5741 497.042 98.7301 497.665 98.7301C498.52 98.7301 499.246 98.4251 499.842 97.8151Z" fill="#007E8A"/>
<path fill-rule="evenodd" clip-rule="evenodd" d="M501.631 94.7981C501.475 91.411 500.063 89.6981 497.392 89.6592L486.893 89.5231C484.236 89.497 482.596 91.0741 481.974 94.2531L501.631 94.7981Z" fill="#FABE00"/>
<path fill-rule="evenodd" clip-rule="evenodd" d="M482.518 106.205C482.661 108.424 484.073 109.553 486.757 109.592L497.256 109.728C499.953 109.754 501.391 108.658 501.573 106.439L482.518 106.205Z" fill="#FABE00"/>
<path fill-rule="evenodd" clip-rule="evenodd" d="M477.791 101.71C477.308 101.71 476.819 101.567 476.392 101.27C475.281 100.494 475.008 98.9651 475.782 97.8523L480.74 90.728C481.211 90.0512 481.984 89.6647 482.814 89.6776L488.18 89.8141C489.534 89.8486 490.603 90.975 490.569 92.33C490.535 93.6637 489.444 94.7221 488.119 94.7221C488.098 94.7221 488.077 94.7217 488.056 94.7214L484.008 94.6182L479.805 100.659C479.328 101.343 478.566 101.71 477.791 101.71Z" fill="#FFAD93"/>
<path fill-rule="evenodd" clip-rule="evenodd" d="M483.646 113.759C483.027 113.759 482.432 113.525 481.978 113.104L476.34 107.868C475.347 106.947 475.289 105.394 476.209 104.4C477.131 103.407 478.682 103.348 479.674 104.269L484.595 108.839L488.301 108.792C488.312 108.792 488.322 108.792 488.332 108.792C489.672 108.792 490.766 109.871 490.783 111.216C490.8 112.571 489.716 113.684 488.362 113.7L483.676 113.759C483.666 113.759 483.655 113.759 483.646 113.759Z" fill="#FFAD93"/>
<path fill-rule="evenodd" clip-rule="evenodd" d="M477.734 109.165C476.394 109.165 475.299 108.086 475.283 106.74L475.109 92.0049C475.092 90.6499 476.177 89.5382 477.531 89.5221C477.541 89.5217 477.551 89.5217 477.56 89.5217C478.901 89.5217 479.995 90.6014 480.011 91.9469L480.186 106.682C480.202 108.037 479.118 109.149 477.764 109.165C477.754 109.165 477.744 109.165 477.734 109.165Z" fill="#FFAD93"/>
<path fill-rule="evenodd" clip-rule="evenodd" d="M477.56 94.4303C476.907 94.4303 476.255 94.1704 475.772 93.6555C474.846 92.6672 474.895 91.114 475.882 90.1866L480.316 86.021C480.752 85.6107 481.324 85.3744 481.922 85.3571L490.652 85.1042C492 85.0664 493.134 86.1319 493.174 87.4865C493.213 88.8411 492.148 89.9719 490.794 90.0108L482.993 90.2369L479.237 93.7653C478.765 94.2097 478.162 94.4303 477.56 94.4303Z" fill="#FFAD93"/>
<path fill-rule="evenodd" clip-rule="evenodd" d="M512.14 129.052L511.919 129.59L520.082 108.622L532.136 110.174L528.751 133.993L512.14 129.052Z" fill="#FFAD93"/>
<path fill-rule="evenodd" clip-rule="evenodd" d="M509.957 112.17L514.608 95.6045C515.325 92.8383 516.907 90.7269 519.354 89.2699C520.535 88.573 521.769 88.1296 523.055 87.9395C524.426 87.7285 525.839 87.8129 527.295 88.1931C529.109 88.6577 530.638 89.5022 531.883 90.7269C532.536 91.3813 533.116 92.1311 533.623 92.9756C535.057 95.425 535.447 97.9801 534.793 100.641C534.751 100.725 534.73 100.81 534.73 100.894L531.123 114.64C530.111 118.23 529.373 121.039 528.909 123.066L512.109 118.093C509.831 117.058 509.114 115.084 509.957 112.17Z" fill="#FFAD93"/>
<path fill-rule="evenodd" clip-rule="evenodd" d="M515.969 91.8673C514.977 91.5928 514.218 91.0224 513.691 90.157C513.205 89.2703 513.079 88.3304 513.311 87.338C513.585 86.3244 514.165 85.5643 515.051 85.0575C515.916 84.5506 516.855 84.424 517.867 84.6772L527.864 88.3517C530.396 89.1118 532.315 90.6529 533.623 92.976C535.057 95.4251 535.447 97.9802 534.793 100.641C534.751 100.725 534.73 100.81 534.73 100.894L532.958 107.546L520.651 104.695L523.151 93.7361L515.969 91.8673Z" fill="#440063"/>
<path fill-rule="evenodd" clip-rule="evenodd" d="M533.338 106.817C533.085 107.788 532.536 108.527 531.693 109.034C530.828 109.583 529.889 109.72 528.877 109.446C527.928 109.193 527.19 108.612 526.662 107.704C526.156 106.838 526.029 105.93 526.283 104.98C526.536 103.988 527.095 103.249 527.959 102.763C528.867 102.235 529.794 102.108 530.744 102.383C531.735 102.636 532.484 103.196 532.99 104.061C533.496 104.927 533.612 105.846 533.338 106.817Z" fill="#FFAD93"/>
<path fill-rule="evenodd" clip-rule="evenodd" d="M513.564 107.007C512.952 107.577 512.225 107.852 511.381 107.83C510.516 107.83 509.81 107.524 509.261 106.912C508.67 106.3 508.365 105.561 508.344 104.695C508.386 103.85 508.713 103.143 509.325 102.573L513.754 98.2969C514.345 97.7266 515.062 97.4418 515.905 97.4418C516.791 97.4627 517.519 97.7791 518.088 98.3916C518.679 99.0042 518.964 99.7327 518.943 100.577C518.921 101.422 518.605 102.151 517.993 102.763L513.564 107.007Z" fill="#FFAD93"/>
<path fill-rule="evenodd" clip-rule="evenodd" d="M524.258 125.093C525.745 123.626 527.538 122.897 529.636 122.907L564.47 123.097C566.55 123.112 568.333 123.862 569.817 125.346C571.284 126.854 572.012 128.649 572 130.731C571.986 132.832 571.238 134.616 569.754 136.083C568.245 137.571 566.452 138.31 564.375 138.3L529.541 138.111C527.44 138.095 525.658 137.335 524.194 135.83C522.707 134.343 521.968 132.548 521.98 130.446C521.993 128.365 522.753 126.581 524.258 125.093Z" fill="#9C006D"/>
<path fill-rule="evenodd" clip-rule="evenodd" d="M512.741 131.839C512.251 133.888 511.123 135.472 509.356 136.59L479.711 155.024C477.914 156.128 476.005 156.435 473.984 155.943C471.941 155.476 470.369 154.347 469.27 152.553C468.262 150.961 467.904 149.261 468.195 147.454L473.162 113.69L488.19 115.907L485.596 133.454L501.352 123.667C503.128 122.563 505.036 122.246 507.078 122.717C509.101 123.204 510.672 124.334 511.792 126.106C512.892 127.902 513.208 129.813 512.741 131.839Z" fill="#9C006D"/>
<path fill-rule="evenodd" clip-rule="evenodd" d="M507.348 213.639C507.426 213.638 507.505 213.638 507.583 213.639C507.888 213.646 508.178 213.69 508.453 213.772C508.638 213.84 508.82 213.923 508.997 214.023L509.233 214.17C509.317 214.237 509.4 214.306 509.483 214.377L536.839 236.513L533.141 241.099L510.367 222.68L510.028 241.423L504.136 241.32L504.475 222.856L482.393 240.73L478.681 236.144L505.668 214.289C505.723 214.246 505.782 214.202 505.845 214.155L506.228 213.934C506.238 213.929 506.253 213.925 506.272 213.92C506.507 213.803 506.757 213.719 507.023 213.669L507.126 213.654C507.201 213.65 507.274 213.646 507.348 213.639Z" fill="#8C9B9B"/>
<path fill-rule="evenodd" clip-rule="evenodd" d="M537.075 156.552C537.455 157.032 537.612 157.573 537.546 158.175L534.88 180.738C534.872 180.764 534.867 180.789 534.865 180.812C533.421 190.74 527.612 196.61 517.438 198.42C517.303 198.444 517.171 198.454 517.04 198.45H511.723V222.621H503.414V198.45H493.029C492.416 198.455 491.896 198.239 491.467 197.801C491.03 197.372 490.814 196.851 490.819 196.237C490.814 195.624 491.03 195.098 491.467 194.66C491.896 194.231 492.416 194.015 493.029 194.01H503.414V192.094H511.723V194.01H516.849C524.775 192.541 529.317 187.924 530.475 180.163L533.141 157.659C533.209 157.057 533.485 156.566 533.966 156.184C534.446 155.803 534.991 155.645 535.602 155.712C536.203 155.789 536.694 156.07 537.075 156.552Z" fill="#616B6A"/>
<path fill-rule="evenodd" clip-rule="evenodd" d="M485.663 184.926C486.695 183.894 487.947 183.378 489.42 183.378H525.525C526.999 183.378 528.256 183.894 529.297 184.926C530.328 185.968 530.843 187.227 530.843 188.701V188.716C530.843 190.191 530.328 191.445 529.297 192.477C528.256 193.519 526.999 194.04 525.525 194.04H489.42C487.947 194.04 486.695 193.519 485.663 192.477C484.622 191.445 484.102 190.191 484.102 188.716V188.701C484.102 187.227 484.622 185.968 485.663 184.926Z" fill="#8C9C9C"/>
<path fill-rule="evenodd" clip-rule="evenodd" d="M545.413 176.756H545.398C541.6 176.379 534.342 175.405 523.625 173.836L535.159 129.52C539.095 129.514 544.526 129.789 551.452 130.346H551.467C552.93 130.533 554.109 131.206 555.002 132.367C555.896 133.537 557.559 135.255 557.362 136.71L551.378 172.155C551.182 173.61 550.505 174.79 549.346 175.694C548.187 176.589 546.876 176.943 545.413 176.756Z" fill="#8C9C9C"/>
<path fill-rule="evenodd" clip-rule="evenodd" d="M540.61 240.022C540.61 241.527 540.084 242.81 539.034 243.872C537.973 244.923 536.692 245.449 535.189 245.449C533.687 245.449 532.405 244.923 531.344 243.872C530.293 242.81 529.768 241.527 529.768 240.022C529.768 238.518 530.293 237.24 531.344 236.188C532.405 235.126 533.687 234.595 535.189 234.595C536.692 234.595 537.973 235.126 539.034 236.188C540.084 237.24 540.61 238.518 540.61 240.022Z" fill="#00CBBD"/>
<path fill-rule="evenodd" clip-rule="evenodd" d="M503.267 243.842C502.206 242.78 501.676 241.502 501.676 240.008C501.676 238.503 502.206 237.22 503.267 236.158C504.328 235.097 505.609 234.566 507.112 234.566C508.605 234.566 509.881 235.097 510.942 236.158C512.002 237.22 512.532 238.503 512.532 240.008C512.532 241.502 512.002 242.78 510.942 243.842C509.881 244.904 508.605 245.435 507.112 245.435C505.609 245.435 504.328 244.904 503.267 243.842Z" fill="#00CBBD"/>
<path fill-rule="evenodd" clip-rule="evenodd" d="M482.879 243.842C481.819 244.904 480.537 245.435 479.035 245.435C477.532 245.435 476.255 244.904 475.204 243.842C474.144 242.78 473.614 241.502 473.614 240.008C473.614 238.503 474.144 237.22 475.204 236.158C476.255 235.097 477.532 234.566 479.035 234.566C480.537 234.566 481.819 235.097 482.879 236.158C483.94 237.22 484.47 238.503 484.47 240.008C484.47 241.502 483.94 242.78 482.879 243.842Z" fill="#00CBBD"/>
<path fill-rule="evenodd" clip-rule="evenodd" d="M447.566 169.309C449.565 167.604 451.865 166.854 454.463 167.06L516.633 172.065C519.236 172.281 521.387 173.389 523.087 175.39C524.792 177.39 525.541 179.692 525.334 182.295C525.12 184.9 524.012 187.053 522.011 188.756C520.012 190.462 517.713 191.211 515.114 191.005L452.945 186.001C450.342 185.785 448.191 184.676 446.491 182.675C444.785 180.675 444.037 178.373 444.244 175.77C444.458 173.166 445.565 171.012 447.566 169.309Z" fill="#007E8A"/>
<path fill-rule="evenodd" clip-rule="evenodd" d="M413.524 241.968C412.788 240.788 412.588 239.521 412.922 238.167C413.239 236.809 413.998 235.753 415.2 235L440.796 219.29C441.975 218.571 443.241 218.371 444.592 218.688C445.946 219.025 446.991 219.785 447.725 220.968C448.46 222.17 448.671 223.447 448.358 224.801C448.02 226.159 447.261 227.204 446.08 227.937L420.484 243.647C419.283 244.386 418.007 244.587 416.656 244.249C415.302 243.933 414.258 243.172 413.524 241.968Z" fill="white"/>
<path fill-rule="evenodd" clip-rule="evenodd" d="M414.662 228.823L416.023 230.502C416.086 230.544 418.539 234.122 423.685 241.682L415.77 246.782L401.121 224.832C405.994 221.327 410.507 222.658 414.662 228.823Z" fill="#9C006D"/>
<path fill-rule="evenodd" clip-rule="evenodd" d="M464.715 193.127C464.798 193.064 464.883 193.011 464.967 192.969C465.305 192.758 465.653 192.578 466.012 192.431L512.14 172.793C514.566 171.758 516.991 171.737 519.417 172.73C521.843 173.701 523.562 175.4 524.574 177.829C525.608 180.236 525.639 182.654 524.669 185.082C523.699 187.51 522.001 189.242 519.575 190.276L473.984 209.693L434.025 236.045L424.502 219.606L464.715 193.127Z" fill="#007E8A"/>
<path fill-rule="evenodd" clip-rule="evenodd" d="M497.46 194.394C497.46 196.865 496.595 198.976 494.866 200.729C493.368 202.207 491.607 203.062 489.582 203.295C489.245 203.316 488.897 203.326 488.538 203.326C486.049 203.326 483.94 202.46 482.21 200.729C480.481 198.976 479.616 196.865 479.616 194.394C479.616 191.924 480.481 189.812 482.21 188.059C483.94 186.328 486.049 185.463 488.538 185.463C491.006 185.463 493.115 186.328 494.866 188.059C495.119 188.313 495.34 188.577 495.53 188.851C496.817 190.435 497.46 192.283 497.46 194.394Z" fill="#333333"/>
<path fill-rule="evenodd" clip-rule="evenodd" d="M500.149 203.453C498.813 203.859 497.527 203.733 496.289 203.073L475.661 191.924C474.436 191.254 473.624 190.25 473.225 188.915C472.823 187.575 472.96 186.287 473.637 185.05C474.288 183.822 475.28 183.009 476.61 182.612C477.947 182.205 479.233 182.332 480.47 182.991L501.099 194.141C502.323 194.811 503.135 195.814 503.534 197.15C503.937 198.489 503.81 199.777 503.155 201.014C502.482 202.242 501.48 203.055 500.149 203.453Z" fill="white"/>
<path fill-rule="evenodd" clip-rule="evenodd" d="M445.257 172.223C446.459 169.879 448.305 168.306 450.794 167.504C453.283 166.68 455.697 166.87 458.039 168.074L491.892 185.526C493.453 186.328 494.665 187.437 495.53 188.852C495.34 188.577 495.119 188.313 494.866 188.06C493.115 186.328 491.006 185.463 488.538 185.463C486.049 185.463 483.94 186.328 482.211 188.06C480.481 189.812 479.616 191.924 479.616 194.394C479.616 196.865 480.481 198.977 482.211 200.729C483.94 202.461 486.049 203.326 488.538 203.326C488.897 203.326 489.244 203.316 489.582 203.295C487.41 203.78 485.29 203.495 483.223 202.44L449.37 184.987C447.05 183.784 445.478 181.936 444.656 179.445C443.854 176.953 444.055 174.546 445.257 172.223Z" fill="#00CCBE"/>
<path fill-rule="evenodd" clip-rule="evenodd" d="M491.322 170.323L505.433 122.527L539.286 123.097L525.097 183.766L491.322 170.323Z" fill="#9C006D"/>
<path fill-rule="evenodd" clip-rule="evenodd" d="M493.822 205.892L493.948 205.543C494.012 205.417 494.064 205.29 494.106 205.163L499.074 192.209L507.394 196.168L498.125 221.76C492.746 218.382 491.312 213.092 493.822 205.892Z" fill="#9C006D"/>
<path fill-rule="evenodd" clip-rule="evenodd" d="M562.382 159.585C563.174 160.737 563.448 161.994 563.204 163.354L561.085 174.694L563.363 179.318C563.745 180.119 563.914 180.953 563.869 181.82C563.822 182.706 563.569 183.519 563.11 184.259L560.167 188.915C559.408 190.102 558.353 190.852 557.003 191.164C555.636 191.477 554.359 191.255 553.175 190.498C551.99 189.76 551.241 188.704 550.929 187.331C550.849 186.993 550.807 186.655 550.802 186.318C550.287 186.235 549.833 186.003 549.442 185.62C548.943 185.129 548.69 184.527 548.683 183.816L548.619 176.942C548.615 176.302 548.837 175.732 549.283 175.232L551.024 173.3L553.239 161.518C553.493 160.138 554.2 159.051 555.358 158.255C556.511 157.466 557.777 157.202 559.155 157.463C560.514 157.722 561.59 158.429 562.382 159.585Z" fill="#FFAD93"/>
<path fill-rule="evenodd" clip-rule="evenodd" d="M564.66 170.449L549.727 167.662L556.719 130.35L571.652 133.138L564.66 170.449Z" fill="#9C006D"/>
<path fill-rule="evenodd" clip-rule="evenodd" d="M314.632 71.0722C314.55 71.7501 314.713 72.3568 315.122 72.8926L326.91 87.966C327.337 88.4982 327.882 88.805 328.544 88.8864C329.222 88.9698 329.828 88.7995 330.362 88.3752C330.895 87.9623 331.201 87.4166 331.282 86.7391C331.364 86.0748 331.194 85.4747 330.771 84.9389L318.983 69.8655C318.569 69.3333 318.025 69.0265 317.349 68.945C316.685 68.8621 316.086 69.0254 315.551 69.4361C315.019 69.8626 314.712 70.4079 314.632 71.0722Z" fill="#C2826E"/>
<path fill-rule="evenodd" clip-rule="evenodd" d="M318.023 71.7677L314.386 78.4762L327.38 91.5656L330.669 85.3074L318.023 71.7677Z" fill="#C2826E"/>
<path fill-rule="evenodd" clip-rule="evenodd" d="M319.044 80.9712H318.227V84.1418L322.579 85.3893C323.013 85.5133 323.429 85.4656 323.825 85.2458C324.219 85.0248 324.478 84.6975 324.601 84.2644C324.726 83.8295 324.678 83.4137 324.459 83.0166C324.237 82.6224 323.91 82.3633 323.478 82.2396L319.044 80.9712Z" fill="#C2826E"/>
<path fill-rule="evenodd" clip-rule="evenodd" d="M320.459 82.3112L289.875 36.8448L291.909 35.4744L322.492 80.9408L320.459 82.3112Z" fill="#440063"/>
<path fill-rule="evenodd" clip-rule="evenodd" d="M313.059 71.2153C312.525 71.0578 312.008 71.1125 311.506 71.3789C311.015 71.6571 310.687 72.066 310.525 72.6062C310.368 73.1424 310.422 73.654 310.689 74.1403C310.964 74.6457 311.366 74.9797 311.894 75.1422L312.2 75.2241C312.113 75.2634 312.025 75.3045 311.935 75.347C311.44 75.6252 311.113 76.0341 310.954 76.5739C310.797 77.1138 310.851 77.632 311.118 78.1282C311.395 78.6233 311.803 78.9503 312.344 79.1103L313.712 79.4986C313.449 79.5074 313.19 79.5823 312.936 79.724C312.542 79.9445 312.283 80.2719 312.16 80.7053C312.035 81.1403 312.083 81.5561 312.303 81.9532C312.524 82.3473 312.851 82.6061 313.283 82.7301L318.228 84.1416V80.9711H319.044L316.838 80.3369C317.175 80.3409 317.501 80.2525 317.818 80.0715C318.314 79.8065 318.641 79.4043 318.799 78.8648C318.957 78.3246 318.895 77.8064 318.615 77.3102C318.352 76.8154 317.95 76.4881 317.41 76.3288L316.756 76.124C316.851 76.0987 316.939 76.0576 317.022 76.0014C317.527 75.7364 317.861 75.3346 318.023 74.7947C318.181 74.2581 318.119 73.7399 317.839 73.2404C317.578 72.7486 317.176 72.4212 316.634 72.2587L313.059 71.2153Z" fill="#C2826E"/>
<path fill-rule="evenodd" clip-rule="evenodd" d="M339.781 93.1816L339.76 93.2022L330.526 82.6074L323.805 90.011L337.636 104.328C338.302 104.829 339.017 105.142 339.781 105.269V93.1816Z" fill="#FB5058"/>
<path fill-rule="evenodd" clip-rule="evenodd" d="M369.282 73.1381L361.355 66.6755L339.781 93.1819V105.269C339.889 105.292 339.998 105.306 340.108 105.31C340.491 105.36 340.886 105.36 341.292 105.31C341.402 105.283 341.517 105.262 341.64 105.249C342.838 105.003 343.826 104.403 344.602 103.449L369.282 73.1381Z" fill="#C84046"/>
<path fill-rule="evenodd" clip-rule="evenodd" d="M377.658 242.854L379.865 242.751L379.435 225.469L369.833 238.395L366.83 238.845C364.542 239.336 363.52 240.767 363.765 243.14L370.65 242.936L376.739 235.245L377.658 242.854Z" fill="#440063"/>
<path fill-rule="evenodd" clip-rule="evenodd" d="M379.211 182.621L366.299 180.31L372.407 228.107L366.83 238.845L369.833 238.395L379.435 225.469L379.211 182.621Z" fill="#C2826E"/>
<path fill-rule="evenodd" clip-rule="evenodd" d="M344.112 242.956L346.237 242.649L346.89 225.469L335.184 238.395L332.099 238.845C330.152 239.077 329.185 240.474 329.198 243.038L335.511 242.935L343.213 235.122L344.112 242.956Z" fill="#440063"/>
<path fill-rule="evenodd" clip-rule="evenodd" d="M355.614 179.164L341.231 180.31L339.454 228.107L332.099 238.845L335.184 238.395L346.89 225.469L355.614 179.164Z" fill="#C2826E"/>
<path fill-rule="evenodd" clip-rule="evenodd" d="M346.584 69.784C346.584 73.1928 347.789 76.1039 350.2 78.5173C352.379 80.6988 354.967 81.8986 357.963 82.1169V57.4712C354.967 57.676 352.379 58.8622 350.2 61.0301C347.789 63.4575 346.584 66.3752 346.584 69.784Z" fill="#FABE00"/>
<path fill-rule="evenodd" clip-rule="evenodd" d="M358.413 49.0859L347.401 52.7468L352.692 64.6706C353.238 68.4886 352.155 71.897 349.444 74.8969L367.014 66.7159L358.413 49.0859Z" fill="#C2826E"/>
<path fill-rule="evenodd" clip-rule="evenodd" d="M371.529 118.891C369.459 115.85 367.927 113.28 366.932 111.18H343.376C343.363 111.425 343.349 111.664 343.336 111.896C342.559 124.836 341.143 150.885 339.086 190.045L380.722 191.17C380.055 186.902 379.231 175.06 378.25 155.644C377.269 136.214 375.029 123.963 371.529 118.891Z" fill="#9C006D"/>
<path fill-rule="evenodd" clip-rule="evenodd" d="M368.015 64.9773C367.688 64.6228 366.612 63.4711 364.787 61.5208L351.14 73.3833C352.693 72.3472 350.119 74.0377 351.14 73.3833C350.813 73.6152 350.507 73.8472 350.221 74.0788C348.872 75.1152 347.606 76.199 346.421 77.3308C345.481 78.2307 344.684 79.1446 344.03 80.0716C343.063 81.3396 342.389 82.6282 342.008 83.937C341.463 85.7507 341.64 87.8845 342.539 90.3387C343.424 92.7657 343.792 96.0655 343.642 100.238C343.656 102.61 343.622 105.044 343.54 107.539C343.513 108.739 343.458 109.953 343.376 111.18H366.932C366.237 109.748 365.802 108.535 365.624 107.539C364.726 103.98 365.162 99.958 366.932 95.4724C369.861 88.0548 371.638 83.0506 372.264 80.4603C372.278 80.3234 372.292 80.1942 372.305 80.0716C372.973 75.3402 372.244 71.2088 370.119 67.677C369.602 66.8454 368.9 65.9455 368.015 64.9773Z" fill="#FB5058"/>
<path fill-rule="evenodd" clip-rule="evenodd" d="M370.895 107.949L368.648 109.441L368.709 107.069C368.723 106.556 368.621 106.065 368.403 105.597C368.182 105.133 367.869 104.737 367.463 104.41L365.89 103.183C365.182 102.63 364.379 102.405 363.48 102.508C362.592 102.615 361.863 103.024 361.294 103.735C360.739 104.444 360.515 105.242 360.619 106.128C360.726 107.029 361.135 107.758 361.845 108.317L362.131 108.542L361.968 115.598C361.951 116.429 362.209 117.159 362.744 117.786C363.292 118.429 363.973 118.804 364.787 118.911C365.615 119.033 366.371 118.862 367.055 118.4L374.553 113.389C375.305 112.882 375.768 112.187 375.942 111.303C376.114 110.418 375.944 109.601 375.431 108.849C374.935 108.097 374.248 107.633 373.367 107.458C372.483 107.282 371.659 107.446 370.895 107.949Z" fill="#C2826E"/>
<path fill-rule="evenodd" clip-rule="evenodd" d="M369.857 67.3278L361.256 73.5864L380.845 100.136L368.628 109.441L375.043 117.909L391.407 105.453C392.557 104.575 393.238 103.423 393.45 101.997C393.664 100.567 393.344 99.2652 392.49 98.09L369.857 67.3278Z" fill="#FB5058"/>
<path fill-rule="evenodd" clip-rule="evenodd" d="M351.916 38.5323L343.928 36.8962L341.803 48.2063L342.539 58.1258C343.084 60.9892 344.779 62.1548 347.626 61.6233L362.009 57.8806L351.916 38.5323Z" fill="#C2826E"/>
<path fill-rule="evenodd" clip-rule="evenodd" d="M344.99 32.9283C343.86 34.251 343.274 35.519 343.234 36.7324C342.961 38.1505 343.424 39.5345 344.623 40.8843L346.788 43.1958C348.641 45.6907 349.955 48.295 350.731 51.0086C351.48 53.7216 352.624 55.4942 354.163 56.3262C355.716 57.1714 357.405 57.6555 359.23 57.7781C361.015 57.9146 362.771 59.3324 364.501 62.0325L365.257 60.9487C366.292 59.4487 367.191 57.9146 367.954 56.3468C370.419 51.2608 371.243 46.6724 370.426 42.5821C369.418 37.5097 367.075 33.7534 363.398 31.3128C359.57 28.7628 355.362 28.1697 350.772 29.5331C348.075 30.4466 346.148 31.5785 344.99 32.9283Z" fill="#FABE00"/>
<path fill-rule="evenodd" clip-rule="evenodd" d="M344.541 42.4181C344.105 43.9317 343.969 44.1295 344.133 43.0112L340.598 47.9611C339.236 49.8563 339.502 51.1445 341.395 51.8264L344.48 52.4808L344.541 42.4181Z" fill="#C2826E"/>
<path fill-rule="evenodd" clip-rule="evenodd" d="M229.173 143.802L228.561 136.07L187.169 129.587L187.333 143.945L229.173 143.802Z" fill="#A76854"/>
<path fill-rule="evenodd" clip-rule="evenodd" d="M228.561 136.07L236.324 101.915L194.953 104.021L187.169 129.587L228.561 136.07Z" fill="#FFAD93"/>
<path fill-rule="evenodd" clip-rule="evenodd" d="M208.136 201.26H195.22L194.78 239.445H209.41C208.995 239.374 208.571 239.309 208.136 239.248V201.26Z" fill="#FABE00"/>
<path fill-rule="evenodd" clip-rule="evenodd" d="M216.641 163.713C216.64 161.35 215.998 159.169 214.716 157.172C213.446 155.182 211.733 153.685 209.576 152.679C207.416 151.686 205.167 151.352 202.83 151.678L150.195 159.024C146.902 159.497 144.245 161.07 142.221 163.743C140.194 166.425 139.411 169.42 139.871 172.728C140.334 176.034 141.9 178.7 144.571 180.726C147.249 182.755 150.241 183.539 153.545 183.079L192.385 177.66V219.26H216.641V163.713Z" fill="#440063"/>
<path fill-rule="evenodd" clip-rule="evenodd" d="M164.415 82.3355L163.9 79.7555C163.576 78.0353 162.692 76.6898 161.247 75.7187C159.801 74.7473 158.22 74.4133 156.502 74.7168L146.238 76.7199C144.54 77.0539 143.201 77.9546 142.221 79.4219C141.25 80.8686 140.937 82.4471 141.281 84.157L141.69 94.2949L134.092 104.227L147.572 114.207L155.501 102.551L161.656 101.337C163.374 101.013 164.718 100.133 165.689 98.6961C166.659 97.239 166.977 95.6506 166.643 93.9308L166.098 91.0168C166.118 91.0168 166.133 91.0219 166.143 91.0318C166.922 91.0318 167.594 90.7639 168.16 90.2277C168.715 89.661 168.993 88.9931 168.993 88.2242C169.003 87.4249 168.735 86.7521 168.19 86.2056L164.415 82.3355Z" fill="#BF836E"/>
<path fill-rule="evenodd" clip-rule="evenodd" d="M162.566 70.4521C161.687 70.3512 160.534 70.5332 159.109 70.9982C158.482 71.2107 157.042 71.7825 154.789 72.7132C152.656 73.5735 150.847 74.2363 149.361 74.7017C145.096 76.0068 142.236 77.2968 140.781 78.5718C139.123 80.0486 138.638 82.0268 139.325 84.5056C139.942 86.6812 140.518 88.9629 141.054 91.3503C141.326 92.5544 141.539 93.5358 141.69 94.2948L142.797 94.8108C143.707 95.1649 144.586 95.438 145.435 95.6303C148.143 96.2472 150.038 95.8476 151.12 94.4313C151.686 93.6826 151.863 92.8021 151.651 91.7907C151.509 91.2339 151.155 90.3792 150.589 89.2256C150.013 88.1635 149.69 87.3844 149.619 86.8885C149.528 86.0995 149.856 85.4568 150.604 84.961C151.352 84.445 152.085 84.278 152.802 84.4601C153.308 84.612 153.914 84.9812 154.622 85.5684C155.592 86.3876 156.148 86.8482 156.289 86.9491C156.916 87.3436 157.497 87.4651 158.033 87.3132C158.599 87.1311 159.003 86.6962 159.245 86.0085C159.357 85.6543 159.498 84.9155 159.67 83.7925C159.802 82.7098 159.983 81.8954 160.216 81.3489C160.559 80.5195 161.09 79.9172 161.808 79.5433C163.768 78.4907 165.032 77.5196 165.598 76.6288C166.386 75.3539 166.275 73.8011 165.264 71.9697C164.516 71.0793 163.617 70.5736 162.566 70.4521Z" fill="#440063"/>
<path fill-rule="evenodd" clip-rule="evenodd" d="M190.884 101.367C190.567 101.277 190.244 101.256 189.914 101.306L182.758 102.415C182.167 102.507 181.681 102.79 181.303 103.264L175.451 110.731C175.068 111.23 174.911 111.792 174.981 112.415C175.064 113.038 175.352 113.544 175.846 113.933C176.346 114.326 176.906 114.482 177.528 114.404C178.152 114.333 178.657 114.049 179.044 113.554L184.35 106.8L189.565 105.981L194.265 110.078C194.75 110.497 195.306 110.685 195.933 110.64C196.557 110.596 197.072 110.333 197.479 109.851C197.898 109.376 198.085 108.825 198.04 108.196C197.994 107.572 197.731 107.051 197.251 106.634L191.748 101.838C191.5 101.624 191.212 101.467 190.884 101.367Z" fill="#BF836E"/>
<path fill-rule="evenodd" clip-rule="evenodd" d="M186.594 105.981C186.171 106.244 185.898 106.618 185.775 107.104L183.501 116.62C183.39 117.107 183.465 117.563 183.729 117.986C183.991 118.42 184.365 118.693 184.851 118.805C185.337 118.927 185.792 118.856 186.215 118.592C186.648 118.329 186.922 117.955 187.033 117.47L189.307 107.954C189.429 107.466 189.359 107.005 189.095 106.572C188.833 106.148 188.459 105.875 187.974 105.753C187.487 105.641 187.027 105.716 186.594 105.981Z" fill="#BF836E"/>
<path opacity="0.1" fill-rule="evenodd" clip-rule="evenodd" d="M179.784 115.92C178.319 115.92 177.022 114.868 176.759 113.374C176.465 111.7 177.582 110.104 179.255 109.81L191.322 107.685C192.993 107.391 194.588 108.509 194.882 110.183C195.177 111.857 194.059 113.453 192.387 113.747L180.32 115.872C180.14 115.904 179.96 115.92 179.784 115.92Z" fill="black" fill-opacity="0.1"/>
<path fill-rule="evenodd" clip-rule="evenodd" d="M199.98 97.8611C194.977 104.084 192.466 110.21 192.446 116.24L216.322 117.895L199.98 97.8611Z" fill="#FABE00"/>
<path fill-rule="evenodd" clip-rule="evenodd" d="M199.98 97.861L197.373 94.8713C189.763 101.691 186.66 108.712 188.064 115.936L192.446 116.24C192.466 110.21 194.977 104.084 199.98 97.861Z" fill="#EEA892"/>
<path fill-rule="evenodd" clip-rule="evenodd" d="M202.391 107.65C203.038 107.003 203.361 106.219 203.361 105.298C203.361 104.398 203.038 103.618 202.391 102.961C201.743 102.313 200.966 101.989 200.056 101.989C199.136 101.989 198.353 102.313 197.706 102.961C197.069 103.618 196.751 104.398 196.751 105.298C196.751 106.219 197.069 107.003 197.706 107.65C198.353 108.298 199.136 108.621 200.056 108.621C200.966 108.621 201.743 108.298 202.391 107.65Z" fill="#FB5058"/>
<path fill-rule="evenodd" clip-rule="evenodd" d="M203.528 115.269C204.175 115.917 204.957 116.24 205.877 116.24C206.787 116.24 207.565 115.917 208.212 115.269C208.859 114.621 209.182 113.837 209.182 112.916C209.182 112.016 208.859 111.237 208.212 110.579C207.565 109.932 206.787 109.608 205.877 109.608C204.957 109.608 204.175 109.932 203.528 110.579C202.891 111.237 202.573 112.016 202.573 112.916C202.573 113.837 202.891 114.621 203.528 115.269Z" fill="#FB5058"/>
<path fill-rule="evenodd" clip-rule="evenodd" d="M195.417 115.815C196.326 115.815 197.105 115.491 197.751 114.844C198.398 114.197 198.722 113.412 198.722 112.491C198.722 111.591 198.398 110.812 197.751 110.154C197.105 109.507 196.326 109.183 195.417 109.183C194.497 109.183 193.714 109.507 193.067 110.154C192.431 110.812 192.112 111.591 192.112 112.491C192.112 113.412 192.431 114.197 193.067 114.844C193.714 115.491 194.497 115.815 195.417 115.815Z" fill="#FB5058"/>
<path fill-rule="evenodd" clip-rule="evenodd" d="M180.03 107.043C178.789 107.172 177.768 107.718 176.967 108.682L171.737 115.117C170.95 116.103 170.622 117.217 170.752 118.456C170.879 119.708 171.43 120.73 172.404 121.522C173.379 122.32 174.486 122.654 175.724 122.523C176.975 122.395 177.995 121.843 178.786 120.869L184.017 114.434C184.814 113.458 185.147 112.344 185.017 111.095C184.89 109.853 184.339 108.831 183.365 108.03C182.39 107.241 181.278 106.912 180.03 107.043Z" fill="#BF836E"/>
<path fill-rule="evenodd" clip-rule="evenodd" d="M177.938 111.839C178.459 112.201 179.03 112.328 179.651 112.218L191.188 110.2C191.804 110.092 192.294 109.778 192.658 109.259C193.02 108.746 193.146 108.179 193.037 107.559C192.93 106.94 192.617 106.45 192.097 106.087C191.586 105.724 191.02 105.598 190.399 105.708L178.862 107.726C178.246 107.833 177.756 108.142 177.392 108.651C177.029 109.175 176.903 109.747 177.013 110.366C177.12 110.985 177.428 111.476 177.938 111.839Z" fill="#BF836E"/>
<path fill-rule="evenodd" clip-rule="evenodd" d="M180.894 125.635L172.586 111.156L132.943 133.997L141.25 148.475L180.894 125.635Z" fill="#00A198"/>
<path fill-rule="evenodd" clip-rule="evenodd" d="M220.962 125.468C219.145 123.181 216.82 121.733 213.988 121.127C211.153 120.53 208.434 120.914 205.832 122.28L142.767 155.548C139.806 157.131 137.83 159.519 136.839 162.711C135.849 165.902 136.137 168.978 137.703 171.939C139.277 174.912 141.657 176.895 144.843 177.888C148.031 178.881 151.109 178.598 154.076 177.038L198.949 153.363L198.873 157.43C198.813 160.77 199.945 163.649 202.269 166.066C204.596 168.492 207.427 169.737 210.759 169.799C214.098 169.87 216.973 168.742 219.385 166.415C221.809 164.087 223.057 161.254 223.129 157.915L223.614 133.269C223.675 130.368 222.791 127.767 220.962 125.468Z" fill="#440063"/>
<path fill-rule="evenodd" clip-rule="evenodd" d="M222.887 160.025C222.887 157.405 221.714 155.174 219.369 153.332C217.015 151.47 214.18 150.54 210.865 150.54C207.55 150.54 204.715 151.47 202.36 153.332C200.015 155.174 198.843 157.405 198.843 160.025C198.843 162.666 200.015 164.902 202.36 166.733C204.715 168.585 207.55 169.511 210.865 169.511C214.18 169.511 217.015 168.585 219.369 166.733C221.714 164.902 222.887 162.666 222.887 160.025Z" fill="#006D68"/>
<path fill-rule="evenodd" clip-rule="evenodd" d="M131.488 165.018C135.904 173.436 141.344 179.44 149.045 181.332L170.267 173.912L165.006 147.337L131.488 165.018Z" fill="#440063"/>
<path fill-rule="evenodd" clip-rule="evenodd" d="M150.271 108.789C143.596 101.63 138.24 100.061 134.201 104.084C124.883 116.154 123.625 137.771 130.426 168.933C131.654 174.557 138.35 172.424 141.908 170.755C146.221 168.732 150.544 166.732 154.862 164.72C155.843 164.263 170.521 157.547 170.479 157.445C170.475 157.436 150.271 108.789 150.271 108.789Z" fill="#00CBBD"/>
<path fill-rule="evenodd" clip-rule="evenodd" d="M216.626 164.942L218.278 152.664C213.986 149.929 209.893 149.595 205.999 151.663L204.18 164.775L216.626 164.942Z" fill="#FABE00"/>
<path fill-rule="evenodd" clip-rule="evenodd" d="M227.707 179.209C231.902 176.466 231.806 173.725 227.42 170.983L203.558 171.483L204.437 179.209H227.707Z" fill="#666666"/>
<path fill-rule="evenodd" clip-rule="evenodd" d="M227.42 170.983L216.626 164.942L204.179 164.775L203.558 171.483L227.42 170.983Z" fill="#8C9C9C"/>
<path opacity="0.1" fill-rule="evenodd" clip-rule="evenodd" d="M150.567 166.721L133.273 121.616L148.531 115.752L166.965 163.832L150.567 166.721Z" fill="black" fill-opacity="0.1"/>
<path fill-rule="evenodd" clip-rule="evenodd" d="M180.482 125.548C180.182 125.653 179.887 125.788 179.591 125.962C176.463 127.811 173.326 129.642 170.191 131.477L176.437 138.14C176.437 138.14 193.269 128.913 193.266 128.909C193.148 128.757 191.603 127.246 191.409 127.102C190.657 126.54 189.823 126.094 188.944 125.769C186.943 125.03 184.762 124.926 182.656 125.137C181.88 125.214 181.171 125.305 180.482 125.548Z" fill="#BF836E"/>
<path fill-rule="evenodd" clip-rule="evenodd" d="M146.738 112.097L132.473 120.747L157.199 161.604C158.269 163.348 159.77 164.542 161.701 165.185C163.645 165.84 165.565 165.78 167.462 165.003C169.367 164.227 170.792 162.926 171.737 161.103L184.184 137.047L169.372 129.384L163.763 140.219L146.738 112.097Z" fill="#00CBBD"/>
<path fill-rule="evenodd" clip-rule="evenodd" d="M209.41 232.099H194.78L194.674 241.494L224.099 241.782C223.19 236.825 218.293 233.597 209.41 232.099Z" fill="#8C9C9C"/>
<path fill-rule="evenodd" clip-rule="evenodd" d="M180.939 237.108L184.76 232.388L156.987 209.896C156.93 209.852 156.87 209.807 156.805 209.759C156.683 209.676 156.552 209.6 156.41 209.532C156.326 209.488 156.235 209.448 156.138 209.41L156.108 209.395C155.942 209.34 155.77 209.294 155.592 209.259L155.258 209.228C155.178 209.227 155.097 209.227 155.016 209.228C154.702 209.235 154.404 209.28 154.121 209.365L153.561 209.623L153.318 209.775C153.232 209.843 153.146 209.914 153.06 209.987L124.908 232.767L128.713 237.487L152.151 218.532L152.499 237.821L158.563 237.715L158.215 218.714L180.939 237.108Z" fill="#8C9B9B"/>
<path fill-rule="evenodd" clip-rule="evenodd" d="M116.661 151.617C116.591 150.999 116.308 150.493 115.812 150.099C115.318 149.707 114.758 149.545 114.13 149.614C113.511 149.694 113.006 149.982 112.614 150.479C112.223 150.973 112.061 151.529 112.129 152.148L114.872 175.369C114.881 175.396 114.885 175.421 114.887 175.445C116.374 185.662 122.352 191.702 132.822 193.566C132.961 193.59 133.097 193.6 133.231 193.596H150.756V218.47H159.306V193.596H163.248C163.878 193.601 164.414 193.379 164.855 192.928C165.305 192.487 165.527 191.95 165.522 191.32C165.527 190.688 165.305 190.147 164.855 189.696C164.414 189.255 163.878 189.032 163.248 189.028H159.306V187.055H150.756V189.028H133.428C125.271 187.515 120.597 182.764 119.405 174.777L116.661 151.617Z" fill="#616B6A"/>
<path fill-rule="evenodd" clip-rule="evenodd" d="M132.67 187.45C133.742 188.522 135.035 189.058 136.551 189.059H173.708C175.224 189.058 176.513 188.522 177.574 187.45C178.645 186.387 179.181 185.097 179.181 183.58V183.564C179.181 182.047 178.645 180.752 177.574 179.679C176.513 178.617 175.224 178.085 173.708 178.085H136.551C135.035 178.085 133.742 178.617 132.67 179.679C131.609 180.752 131.078 182.047 131.078 183.564V183.58C131.078 185.097 131.609 186.387 132.67 187.45Z" fill="#8C9C9C"/>
<path fill-rule="evenodd" clip-rule="evenodd" d="M114.736 125.589C113.816 126.793 113.458 128.144 113.659 129.641L118.465 166.536C118.667 168.033 119.365 169.247 120.557 170.178C121.75 171.099 123.099 171.463 124.605 171.271H124.62C126.126 171.069 127.339 170.366 128.259 169.162C129.179 167.968 129.537 166.622 129.335 165.124L124.529 128.23C124.327 126.732 123.63 125.513 122.437 124.572C121.245 123.662 119.895 123.307 118.39 123.51H118.375C116.868 123.702 115.656 124.395 114.736 125.589Z" fill="#8C9C9C"/>
<path fill-rule="evenodd" clip-rule="evenodd" d="M130.563 232.434C129.471 231.341 128.152 230.794 126.606 230.794C125.06 230.794 123.741 231.341 122.649 232.434C121.568 233.516 121.027 234.831 121.027 236.379C121.027 237.928 121.568 239.248 122.649 240.34C123.741 241.423 125.06 241.964 126.606 241.964C128.152 241.964 129.471 241.423 130.563 240.34C131.644 239.248 132.185 237.928 132.185 236.379C132.185 234.831 131.644 233.516 130.563 232.434Z" fill="#00CBBD"/>
<path fill-rule="evenodd" clip-rule="evenodd" d="M155.501 230.764C153.965 230.764 152.651 231.31 151.559 232.403C150.468 233.496 149.922 234.816 149.922 236.364C149.922 237.902 150.468 239.217 151.559 240.31C152.651 241.403 153.965 241.949 155.501 241.949C157.047 241.949 158.366 241.403 159.458 240.31C160.549 239.217 161.095 237.902 161.095 236.364C161.095 234.816 160.549 233.496 159.458 232.403C158.366 231.31 157.047 230.764 155.501 230.764Z" fill="#00CBBD"/>
<path fill-rule="evenodd" clip-rule="evenodd" d="M180.439 232.403C179.348 233.496 178.802 234.816 178.802 236.364C178.802 237.902 179.348 239.217 180.439 240.31C181.531 241.403 182.849 241.949 184.396 241.949C185.942 241.949 187.256 241.403 188.337 240.31C189.429 239.217 189.974 237.902 189.974 236.364C189.974 234.816 189.429 233.496 188.337 232.403C187.256 231.31 185.942 230.764 184.396 230.764C182.849 230.764 181.531 231.31 180.439 232.403Z" fill="#00CBBD"/>
<path fill-rule="evenodd" clip-rule="evenodd" d="M530.004 215.631L528.165 219.292H543.855L541.71 215.591L530.004 215.631ZM542.302 245.083L543.855 241.606H528.165L529.758 245.083H542.302Z" fill="white"/>
<path fill-rule="evenodd" clip-rule="evenodd" d="M528.165 241.606H543.855V219.292H528.165V241.606Z" fill="#FB5058"/>
<path fill-rule="evenodd" clip-rule="evenodd" d="M38.2562 212.236L26.5499 212.277L24.7114 215.938H40.4016L38.2562 212.236ZM26.3047 241.729H38.8487L40.4016 238.252H24.7114L26.3047 241.729Z" fill="white"/>
<path fill-rule="evenodd" clip-rule="evenodd" d="M24.7114 238.252H40.4016V215.938H24.7114V238.252Z" fill="#FB5058"/>
<path fill-rule="evenodd" clip-rule="evenodd" d="M270.994 164.255V172.067L294.1 169.388L293.609 163.15L270.994 164.255Z" fill="#CCCCCC"/>
<path fill-rule="evenodd" clip-rule="evenodd" d="M270.973 164.009L265.15 170.186L265.477 178.571L251.667 177.978L252.096 241.361L312.813 241.34L312.589 180.105L298.043 179.553L298.451 167.732L293.16 162.741L292.057 179.41L271.995 178.776L270.973 164.009Z" fill="white"/>
<path fill-rule="evenodd" clip-rule="evenodd" d="M288.093 210.089C287.807 210.089 287.521 209.993 287.235 209.803C287.004 209.639 286.867 209.373 286.826 209.005C286.731 208.732 286.786 208.446 286.99 208.146C287.208 207.928 287.494 207.798 287.848 207.757C288.216 207.743 288.495 207.819 288.686 207.982C288.917 208.241 289.08 208.514 289.176 208.8C289.19 209.141 289.108 209.414 288.931 209.619C288.727 209.946 288.447 210.102 288.093 210.089ZM283.721 209.619C283.544 209.877 283.279 210.021 282.924 210.048C282.584 210.13 282.271 210.048 281.985 209.803C281.712 209.639 281.576 209.373 281.576 209.005C281.521 208.678 281.61 208.391 281.841 208.146C281.991 207.928 282.23 207.778 282.557 207.696C282.857 207.668 283.156 207.743 283.456 207.921C283.633 208.166 283.762 208.453 283.844 208.78C283.953 209.08 283.912 209.36 283.721 209.619ZM283.313 192.745L276.754 195.281L280.371 205.732L270.523 208.964L273.629 217.513L291.75 219.088L294.794 209.557L294.263 190.7L287.235 190.352L287.153 203.769L283.313 192.745ZM299.493 227.698L300.882 222.524L269.727 222.933L271.075 229.007L299.493 227.698Z" fill="#00CBBD"/>
</g>
<defs>
<clipPath id="clip0">
<rect width="572" height="254" fill="white"/>
</clipPath>
</defs>
</svg>
