<?xml version="1.0" encoding="utf-8"?>
<svg width="323px" height="87px" viewbox="0 0 323 87" version="1.1" xmlns:xlink="http://www.w3.org/1999/xlink" xmlns="http://www.w3.org/2000/svg">
  <defs>
    <path d="M32.2151 8.63355C104.699 -10.7919 322.151 8.63355 322.151 8.63355L322.151 86.3356L32.2151 86.3356C32.2151 86.3356 -40.2689 28.0591 32.2151 8.63355Z" id="path_1" />
    <clipPath id="mask_1">
      <use xlink:href="#path_1" />
    </clipPath>
  </defs>
  <g id="deliveroo-logo">
    <path d="M32.2151 8.63355C104.699 -10.7919 322.151 8.63355 322.151 8.63355L322.151 86.3356L32.2151 86.3356C32.2151 86.3356 -40.2689 28.0591 32.2151 8.63355Z" id="Background" fill="none" fill-rule="evenodd" stroke="none" />
    <g clip-path="url(#mask_1)">
      <path d="M105.895 58.205L112.505 58.205L111.41 53.077L111.41 22.505L105.087 22.505L105.087 36.449C103.185 34.245 100.569 32.952 97.48 32.952C91.156 32.952 86.26 38.174 86.26 45.842C86.26 53.509 91.156 58.732 97.48 58.732C100.618 58.732 103.327 57.39 105.23 55.089L105.895 58.204L105.895 58.205ZM227.064 58.8087L220.455 58.9241L221.46 53.7777L221.057 30.6685L220.927 23.2104L227.249 23.1001L227.492 37.0419C229.355 34.8051 231.948 33.4666 235.037 33.4127C241.36 33.3024 246.346 38.4382 246.48 46.105C246.614 53.7708 241.81 59.0785 235.487 59.1888C232.349 59.2436 229.617 57.949 227.674 55.6816L227.064 58.8077L227.064 58.8087ZM127.86 39.229C131.14 39.229 133.28 40.762 133.945 43.589L121.775 43.589C122.488 40.762 124.627 39.229 127.859 39.229L127.86 39.229ZM203.5 39.229C206.782 39.229 208.922 40.762 209.587 43.589L197.417 43.589C198.13 40.762 200.269 39.229 203.501 39.229L203.5 39.229ZM172.647 58.205L182.821 58.205L189.431 33.479L182.537 33.479L177.689 53.509L172.839 33.479L166.039 33.479L172.649 58.204L172.647 58.205ZM156.339 58.205L162.659 58.205L162.659 33.478L156.339 33.478L156.339 58.205ZM128.829 58.663C132.349 58.663 135.819 57.703 138.719 55.835L136.295 50.373C134.012 51.571 131.493 52.29 128.925 52.29C125.598 52.29 123.268 50.996 122.269 48.6L140.049 48.6C140.239 47.69 140.336 46.78 140.336 45.677C140.336 38.01 135.059 32.883 127.974 32.883C120.844 32.883 115.614 38.058 115.614 45.773C115.614 53.631 120.796 58.663 128.831 58.663L128.829 58.663ZM303.84 45.81C303.84 38.143 298.515 32.92 291.336 32.92C284.156 32.92 278.832 38.143 278.832 45.81C278.832 53.478 284.156 58.7 291.335 58.7C298.515 58.7 303.839 53.478 303.839 45.81L303.84 45.81ZM204.358 58.731C207.874 58.731 211.345 57.773 214.248 55.904L211.821 50.439C209.539 51.637 207.019 52.355 204.451 52.355C201.124 52.355 198.794 51.063 197.795 48.665L215.577 48.665C215.767 47.755 215.861 46.845 215.861 45.743C215.861 38.076 210.583 32.949 203.499 32.949C196.369 32.949 191.139 38.123 191.139 45.839C191.139 53.697 196.322 58.729 204.357 58.729L204.357 58.731L204.358 58.731ZM262.428 58.731C269.608 58.731 274.931 53.509 274.931 45.841C274.931 38.174 269.607 32.951 262.427 32.951C255.247 32.951 249.923 38.174 249.923 45.841C249.923 53.509 255.248 58.731 262.426 58.731L262.428 58.731ZM144.358 58.204L150.68 58.204L150.68 22.504L144.357 22.504L144.357 58.204L144.358 58.204ZM160.325 30.551C162.559 30.551 164.271 28.825 164.271 26.525C164.271 24.225 162.561 22.5 160.326 22.5C158.044 22.5 156.332 24.225 156.332 26.525C156.332 28.825 158.045 30.55 160.327 30.55L160.325 30.551ZM262.773 51.051C265.851 51.051 268.21 48.6819 268.21 45.5248C268.21 42.5454 266.112 40.269 263.287 40.0222C263.119 40.0075 262.948 40 262.774 40C259.63 40 257.271 42.3678 257.271 45.5248C257.271 48.6819 259.631 51.0496 262.776 51.0496L262.773 51.051ZM291.712 51.051C294.79 51.051 297.149 48.6819 297.149 45.5248C297.149 42.3678 294.793 40 291.713 40C288.569 40 286.21 42.3678 286.21 45.5248C286.21 48.6819 288.57 51.0496 291.715 51.0496L291.712 51.051ZM98.4338 51.051C101.512 51.051 103.871 48.6819 103.871 45.5248C103.871 42.3678 101.515 40 98.4352 40C95.2909 40 92.932 42.3678 92.932 45.5248C92.932 48.6819 95.2923 51.0496 98.4366 51.0496L98.4338 51.051ZM234.651 51.151C237.729 51.151 240.088 48.7819 240.088 45.6248C240.088 42.4678 237.732 40.1 234.652 40.1C231.508 40.1 229.149 42.4678 229.149 45.6248C229.149 48.7819 231.509 51.1496 234.654 51.1496L234.651 51.151ZM50.895 0.001L47.275 34.263L41.1 5.377L21.74 9.471L27.912 38.355L0 44.255L4.93 67.328L54.014 77.702L65.239 52.63L70.581 2.06L50.893 0L50.895 0.002L50.895 0.001ZM35.385 49.704C34.373 50.626 33.035 50.541 31.615 50.071C30.198 49.603 29.568 47.898 30.105 45.837C30.505 44.307 32.388 44.077 33.33 44.061C33.688 44.055 34.04 44.127 34.365 44.273C35.031 44.573 36.159 45.213 36.388 46.189C36.718 47.597 36.4 48.779 35.388 49.701L35.386 49.701L35.386 49.703L35.385 49.704ZM49.595 51.294C48.86 52.564 46.93 52.732 45.031 51.808C43.751 51.184 43.761 49.596 43.901 48.628C43.9753 48.1 44.1894 47.6015 44.521 47.184C44.978 46.608 45.741 45.857 46.623 45.834C48.057 45.796 49.291 46.436 49.988 47.594C50.688 48.748 50.338 50.021 49.601 51.294L49.595 51.294Z" transform="translate(6.0191193 -2.3664436)" id="Shape" fill="#00CCBC" fill-rule="evenodd" stroke="none" />
    </g>
  </g>
</svg>